ScienceGothic-BlkCtrS.ufo
<glyph name="dollar" format="2">
  <advance width="1866"/>
  <unicode hex="0024"/>
  <outline>
    <contour>
      <point x="652" y="-160" type="line"/>
      <point x="922" y="-160" type="line"/>
      <point x="952" y="10" type="line"/>
      <point x="1208" y="10" type="line" smooth="yes"/>
      <point x="1304" y="10"/>
      <point x="1461.44" y="37.625"/>
      <point x="1581.06" y="113.375"/>
      <point x="1661.25" y="247.5"/>
      <point x="1680" y="354" type="qcurve" smooth="yes"/>
      <point x="1687" y="398" type="line" smooth="yes"/>
      <point x="1705.38" y="501.5"/>
      <point x="1667.97" y="629.875"/>
      <point x="1571.78" y="701.125"/>
      <point x="1424.5" y="726"/>
      <point x="1333" y="726" type="qcurve" smooth="yes"/>
      <point x="1077" y="726" type="line"/>
      <point x="1186" y="1354" type="line"/>
      <point x="1288" y="1354" type="line"/>
      <point x="1288" y="1354"/>
      <point x="1288" y="1354"/>
      <point x="1288" y="1354" type="qcurve"/>
      <point x="1219" y="958" type="line"/>
      <point x="1774" y="1008" type="line"/>
      <point x="1783" y="1062" type="line" smooth="yes"/>
      <point x="1801" y="1164.75"/>
      <point x="1764.12" y="1292.94"/>
      <point x="1668.88" y="1364.56"/>
      <point x="1522.5" y="1390"/>
      <point x="1431" y="1390" type="qcurve" smooth="yes"/>
      <point x="1193" y="1390" type="line"/>
      <point x="1222" y="1560" type="line"/>
      <point x="952" y="1560" type="line"/>
      <point x="923" y="1390" type="line"/>
      <point x="689" y="1390" type="line" smooth="yes"/>
      <point x="597.5" y="1390"/>
      <point x="440" y="1363.88"/>
      <point x="317" y="1291.12"/>
      <point x="233" y="1161.5"/>
      <point x="215" y="1058" type="qcurve"/>
      <point x="210" y="1034" type="line"/>
      <point x="191.625" y="928.25"/>
      <point x="224.344" y="794.312"/>
      <point x="316.406" y="718.188"/>
      <point x="462.75" y="690"/>
      <point x="558" y="690" type="qcurve" smooth="yes"/>
      <point x="800" y="690" type="line"/>
      <point x="688" y="46" type="line"/>
      <point x="554" y="46" type="line"/>
      <point x="554" y="46"/>
      <point x="554" y="46"/>
      <point x="554" y="46" type="qcurve"/>
      <point x="627" y="462" type="line"/>
      <point x="72" y="410" type="line"/>
      <point x="61" y="352" type="line" smooth="yes"/>
      <point x="42.625" y="246.25"/>
      <point x="76.2812" y="112.938"/>
      <point x="169.469" y="37.5625"/>
      <point x="316.75" y="10"/>
      <point x="412" y="10" type="qcurve" smooth="yes"/>
      <point x="682" y="10" type="line"/>
    </contour>
    <contour>
      <point x="807" y="726" type="line"/>
      <point x="703" y="726" type="line"/>
      <point x="703" y="726"/>
      <point x="703" y="726"/>
      <point x="703" y="726" type="qcurve"/>
      <point x="812" y="1354" type="line"/>
      <point x="812" y="1354"/>
      <point x="812" y="1354"/>
      <point x="812" y="1354" type="qcurve"/>
      <point x="916" y="1354" type="line"/>
    </contour>
    <contour>
      <point x="958" y="46" type="line"/>
      <point x="1070" y="690" type="line"/>
      <point x="1192" y="690" type="line"/>
      <point x="1192" y="690"/>
      <point x="1192" y="690"/>
      <point x="1192" y="690" type="qcurve"/>
      <point x="1080" y="46" type="line"/>
      <point x="1080" y="46"/>
      <point x="1080" y="46"/>
      <point x="1080" y="46" type="qcurve"/>
    </contour>
  </outline>
</glyph>
<glyph name="percent" format="2">
  <advance width="2567"/>
  <unicode hex="0025"/>
  <outline>
    <contour>
      <point x="380" y="614" type="qcurve" smooth="yes"/>
      <point x="783" y="614" type="line" smooth="yes"/>
      <point x="893.926" y="614"/>
      <point x="1027.63" y="691.792"/>
      <point x="1048" y="808" type="qcurve" smooth="yes"/>
      <point x="1120" y="1223" type="line" smooth="yes"/>
      <point x="1139.62" y="1336.19"/>
      <point x="1027.64" y="1410"/>
      <point x="922" y="1410" type="qcurve" smooth="yes"/>
      <point x="519" y="1410" type="line" smooth="yes"/>
      <point x="413.356" y="1410"/>
      <point x="275.62" y="1336.19"/>
      <point x="256" y="1223" type="qcurve" smooth="yes"/>
      <point x="184" y="808" type="line" smooth="yes"/>
      <point x="163.626" y="692.546"/>
      <point x="269.074" y="614"/>
    </contour>
    <contour>
      <point x="449" y="644" type="line"/>
      <point x="449" y="644"/>
      <point x="449" y="644"/>
      <point x="449" y="644" type="qcurve"/>
      <point x="578" y="1380" type="line"/>
      <point x="578" y="1380"/>
      <point x="578" y="1380"/>
      <point x="578" y="1380" type="qcurve"/>
      <point x="854" y="1380" type="line"/>
      <point x="854" y="1380"/>
      <point x="854" y="1380"/>
      <point x="854" y="1380" type="qcurve"/>
      <point x="725" y="644" type="line"/>
      <point x="725" y="644"/>
      <point x="725" y="644"/>
      <point x="725" y="644" type="qcurve"/>
    </contour>
    <contour>
      <point x="1852" y="1400" type="line"/>
      <point x="683" y="0" type="line"/>
      <point x="719" y="0" type="line"/>
      <point x="1888" y="1400" type="line"/>
    </contour>
    <contour>
      <point x="1655" y="-6" type="qcurve" smooth="yes"/>
      <point x="2058" y="-6" type="line" smooth="yes"/>
      <point x="2168.93" y="-6"/>
      <point x="2302.63" y="71.7916"/>
      <point x="2323" y="188" type="qcurve" smooth="yes"/>
      <point x="2395" y="603" type="line" smooth="yes"/>
      <point x="2414.62" y="716.19"/>
      <point x="2302.64" y="790"/>
      <point x="2197" y="790" type="qcurve" smooth="yes"/>
      <point x="1794" y="790" type="line" smooth="yes"/>
      <point x="1688.36" y="790"/>
      <point x="1550.62" y="716.19"/>
      <point x="1531" y="603" type="qcurve" smooth="yes"/>
      <point x="1459" y="188" type="line" smooth="yes"/>
      <point x="1438.63" y="72.5462"/>
      <point x="1544.07" y="-6"/>
    </contour>
    <contour>
      <point x="1724" y="24" type="line"/>
      <point x="1724" y="24"/>
      <point x="1724" y="24"/>
      <point x="1724" y="24" type="qcurve"/>
      <point x="1853" y="760" type="line"/>
      <point x="1853" y="760"/>
      <point x="1853" y="760"/>
      <point x="1853" y="760" type="qcurve"/>
      <point x="2129" y="760" type="line"/>
      <point x="2129" y="760"/>
      <point x="2129" y="760"/>
      <point x="2129" y="760" type="qcurve"/>
      <point x="2000" y="24" type="line"/>
      <point x="2000" y="24"/>
      <point x="2000" y="24"/>
      <point x="2000" y="24" type="qcurve"/>
    </contour>
  </outline>
</glyph>
<glyph name="quotesingle" format="2">
  <advance width="932"/>
  <unicode hex="0027"/>
  <outline>
    <contour>
      <point x="270" y="1184" type="line"/>
      <point x="341" y="785" type="line"/>
      <point x="631" y="785" type="line"/>
      <point x="840" y="1184" type="line"/>
      <point x="866" y="1333" type="line" smooth="yes"/>
      <point x="881.092" y="1419.78"/>
      <point x="861.196" y="1450"/>
      <point x="788" y="1450" type="qcurve" smooth="yes"/>
      <point x="416" y="1450" type="line" smooth="yes"/>
      <point x="342.804" y="1450"/>
      <point x="311.092" y="1419.78"/>
      <point x="296" y="1333" type="qcurve" smooth="yes"/>
    </contour>
  </outline>
</glyph>
<glyph name="parenleft" format="2">
  <advance width="748"/>
  <unicode hex="0028"/>
  <outline>
    <contour>
      <point x="572" y="-256" type="line"/>
      <point x="513.125" y="-205.75"/>
      <point x="453.688" y="-125.25"/>
      <point x="448.812" y="41.25"/>
      <point x="496.625" y="346.75"/>
      <point x="545" y="622" type="qcurve" smooth="yes"/>
      <point x="593" y="897.25"/>
      <point x="651.719" y="1202.75"/>
      <point x="714.531" y="1369.25"/>
      <point x="802.125" y="1449.75"/>
      <point x="879" y="1500" type="qcurve"/>
      <point x="831" y="1500" type="line"/>
      <point x="693" y="1426.12"/>
      <point x="456.094" y="1241.56"/>
      <point x="272.156" y="1021.44"/>
      <point x="148.125" y="766.375"/>
      <point x="123" y="622" type="qcurve" smooth="yes"/>
      <point x="71.6872" y="331.479"/>
      <point x="299.129" y="-106.589"/>
      <point x="524" y="-256" type="qcurve"/>
    </contour>
  </outline>
</glyph>
<glyph name="parenright" format="2">
  <advance width="748"/>
  <unicode hex="0029"/>
  <outline>
    <contour>
      <point x="155" y="1500" type="line"/>
      <point x="213.875" y="1449.75"/>
      <point x="273.312" y="1369.25"/>
      <point x="278.188" y="1202.75"/>
      <point x="230.375" y="897.25"/>
      <point x="182" y="622" type="qcurve" smooth="yes"/>
      <point x="134" y="346.75"/>
      <point x="75.2812" y="41.25"/>
      <point x="12.4688" y="-125.25"/>
      <point x="-75.125" y="-205.75"/>
      <point x="-152" y="-256" type="qcurve"/>
      <point x="-104" y="-256" type="line"/>
      <point x="34" y="-182.125"/>
      <point x="270.906" y="2.4375"/>
      <point x="454.844" y="222.562"/>
      <point x="578.875" y="477.625"/>
      <point x="604" y="622" type="qcurve" smooth="yes"/>
      <point x="655.313" y="912.521"/>
      <point x="427.871" y="1350.59"/>
      <point x="203" y="1500" type="qcurve"/>
    </contour>
  </outline>
</glyph>
<glyph name="asterisk" format="2">
  <advance width="1073"/>
  <unicode hex="002A"/>
  <outline>
    <contour>
      <point x="453" y="802" type="line"/>
      <point x="661" y="802" type="line"/>
      <point x="628" y="1105" type="line"/>
      <point x="815" y="874" type="line"/>
      <point x="945" y="1026" type="line"/>
      <point x="648" y="1137" type="line"/>
      <point x="990" y="1232" type="line"/>
      <point x="909" y="1393" type="line"/>
      <point x="639" y="1166" type="line"/>
      <point x="778" y="1472" type="line"/>
      <point x="570" y="1472" type="line"/>
      <point x="603" y="1166" type="line"/>
      <point x="416" y="1400" type="line"/>
      <point x="286" y="1247" type="line"/>
      <point x="583" y="1137" type="line"/>
      <point x="243" y="1034" type="line"/>
      <point x="324" y="872" type="line"/>
      <point x="592" y="1105" type="line"/>
    </contour>
  </outline>
</glyph>
<glyph name="zero" format="2">
  <advance width="1902"/>
  <unicode hex="0030"/>
  <outline>
    <contour>
      <point x="492" y="-10" type="qcurve" smooth="yes"/>
      <point x="1166" y="-10" type="line" smooth="yes"/>
      <point x="1365.21" y="-10"/>
      <point x="1604.02" y="127.73"/>
      <point x="1641" y="336" type="qcurve" smooth="yes"/>
      <point x="1770" y="1076" type="line" smooth="yes"/>
      <point x="1805.25" y="1277"/>
      <point x="1603" y="1410"/>
      <point x="1414" y="1410" type="qcurve" smooth="yes"/>
      <point x="740" y="1410" type="line" smooth="yes"/>
      <point x="551" y="1410"/>
      <point x="305.25" y="1277"/>
      <point x="270" y="1076" type="qcurve" smooth="yes"/>
      <point x="141" y="336" type="line" smooth="yes"/>
      <point x="104.779" y="129.24"/>
      <point x="292.786" y="-10"/>
    </contour>
    <contour>
      <point x="659" y="26" type="line"/>
      <point x="659" y="26"/>
      <point x="659" y="26"/>
      <point x="659" y="26" type="qcurve"/>
      <point x="894" y="1374" type="line"/>
      <point x="894" y="1374"/>
      <point x="894" y="1374"/>
      <point x="894" y="1374" type="qcurve"/>
      <point x="1250" y="1374" type="line"/>
      <point x="1250" y="1374"/>
      <point x="1250" y="1374"/>
      <point x="1250" y="1374" type="qcurve"/>
      <point x="1015" y="26" type="line"/>
      <point x="1015" y="26"/>
      <point x="1015" y="26"/>
      <point x="1015" y="26" type="qcurve"/>
    </contour>
  </outline>
</glyph>
<glyph name="one" format="2">
  <advance width="1115"/>
  <unicode hex="0031"/>
  <outline>
    <contour>
      <point x="223" y="0" type="line"/>
      <point x="795" y="0" type="line"/>
      <point x="1043" y="1422" type="line"/>
      <point x="175" y="1332" type="line"/>
      <point x="169" y="1296" type="line"/>
      <point x="454" y="1325" type="line"/>
    </contour>
  </outline>
  <guideline angle="90" color="0.4,0.4,0.4,1" name="halfwidth" x="557.5" y="0"/>
</glyph>
<glyph name="two" format="2">
  <advance width="1846"/>
  <unicode hex="0032"/>
  <outline>
    <contour>
      <point x="81" y="0" type="line"/>
      <point x="1156" y="0" type="line" smooth="yes"/>
      <point x="1346.5" y="0"/>
      <point x="1588.5" y="130.5"/>
      <point x="1626" y="342" type="qcurve" smooth="yes"/>
      <point x="1635" y="396" type="line"/>
      <point x="1106" y="492" type="line"/>
      <point x="1026" y="36" type="line"/>
      <point x="1026" y="36"/>
      <point x="1026" y="36"/>
      <point x="1026" y="36" type="qcurve"/>
      <point x="629" y="36" type="line"/>
      <point x="723" y="578" type="line" smooth="yes"/>
      <point x="726.018" y="594.601"/>
      <point x="744.571" y="617.472"/>
      <point x="774" y="622" type="qcurve" smooth="yes"/>
      <point x="1229" y="690" type="line" smooth="yes"/>
      <point x="1362.88" y="709.875"/>
      <point x="1538.59" y="782.188"/>
      <point x="1647.16" y="880.812"/>
      <point x="1701" y="1002.62"/>
      <point x="1713" y="1072" type="qcurve" smooth="yes"/>
      <point x="1721" y="1118" type="line" smooth="yes"/>
      <point x="1735.25" y="1199"/>
      <point x="1693.38" y="1310.5"/>
      <point x="1595.12" y="1379.5"/>
      <point x="1447.5" y="1410"/>
      <point x="1356" y="1410" type="qcurve" smooth="yes"/>
      <point x="756" y="1410" type="line" smooth="yes"/>
      <point x="664.5" y="1410"/>
      <point x="509.188" y="1384.56"/>
      <point x="388.812" y="1312.94"/>
      <point x="307" y="1184.75"/>
      <point x="289" y="1082" type="qcurve" smooth="yes"/>
      <point x="275" y="1004" type="line"/>
      <point x="804" y="908" type="line"/>
      <point x="886" y="1374" type="line"/>
      <point x="886" y="1374"/>
      <point x="886" y="1374"/>
      <point x="886" y="1374" type="qcurve"/>
      <point x="1220" y="1374" type="line"/>
      <point x="1220" y="1374"/>
      <point x="1220" y="1374"/>
      <point x="1220" y="1374" type="qcurve"/>
      <point x="1107" y="727" type="line" smooth="yes"/>
      <point x="1105.5" y="719.5"/>
      <point x="1091.5" y="705.5"/>
      <point x="1081" y="704" type="qcurve" smooth="yes"/>
      <point x="605" y="633" type="line" smooth="yes"/>
      <point x="371.75" y="598.5"/>
      <point x="148.25" y="389.5"/>
      <point x="119" y="220" type="qcurve" smooth="yes"/>
    </contour>
  </outline>
</glyph>
<glyph name="colon" format="2">
  <advance width="933"/>
  <unicode hex="003A"/>
  <outline>
    <contour>
      <point x="86" y="135" type="line" smooth="yes"/>
      <point x="78.125" y="90"/>
      <point x="78.6562" y="34.6875"/>
      <point x="103.594" y="4.3125"/>
      <point x="157" y="-6"/>
      <point x="202" y="-6" type="qcurve" smooth="yes"/>
      <point x="490" y="-6" type="line" smooth="yes"/>
      <point x="535" y="-6"/>
      <point x="592.219" y="4.3125"/>
      <point x="628.031" y="34.6875"/>
      <point x="648.125" y="90"/>
      <point x="656" y="135" type="qcurve" smooth="yes"/>
      <point x="687" y="314" type="line" smooth="yes"/>
      <point x="694.875" y="358.625"/>
      <point x="693.719" y="413.531"/>
      <point x="668.031" y="443.719"/>
      <point x="614" y="454"/>
      <point x="569" y="454" type="qcurve" smooth="yes"/>
      <point x="282" y="454" type="line" smooth="yes"/>
      <point x="237" y="454"/>
      <point x="180.094" y="443.781"/>
      <point x="144.656" y="413.969"/>
      <point x="124.875" y="359.875"/>
      <point x="117" y="316" type="qcurve" smooth="yes"/>
    </contour>
    <contour>
      <point x="187" y="715" type="line" smooth="yes"/>
      <point x="179.125" y="670"/>
      <point x="179.656" y="614.688"/>
      <point x="204.594" y="584.312"/>
      <point x="258" y="574"/>
      <point x="303" y="574" type="qcurve" smooth="yes"/>
      <point x="591" y="574" type="line" smooth="yes"/>
      <point x="636" y="574"/>
      <point x="693.219" y="584.312"/>
      <point x="729.031" y="614.688"/>
      <point x="749.125" y="670"/>
      <point x="757" y="715" type="qcurve" smooth="yes"/>
      <point x="788" y="894" type="line" smooth="yes"/>
      <point x="795.875" y="938.625"/>
      <point x="794.719" y="993.531"/>
      <point x="769.031" y="1023.72"/>
      <point x="715" y="1034"/>
      <point x="670" y="1034" type="qcurve" smooth="yes"/>
      <point x="383" y="1034" type="line" smooth="yes"/>
      <point x="338" y="1034"/>
      <point x="281.094" y="1023.78"/>
      <point x="245.656" y="993.969"/>
      <point x="225.875" y="939.875"/>
      <point x="218" y="896" type="qcurve" smooth="yes"/>
    </contour>
  </outline>
</glyph>
<glyph name="less" format="2">
  <advance width="1426"/>
  <unicode hex="003C"/>
  <outline>
    <contour>
      <point x="1177" y="0" type="line"/>
      <point x="1183" y="37" type="line"/>
      <point x="158" y="581" type="line"/>
      <point x="1373" y="1125" type="line"/>
      <point x="1381" y="1168" type="line"/>
      <point x="116" y="602" type="line"/>
      <point x="110" y="566" type="line"/>
    </contour>
  </outline>
</glyph>
<glyph name="equal" format="2">
  <advance width="1426"/>
  <unicode hex="003D"/>
  <outline>
    <contour>
      <point x="117" y="749" type="line"/>
      <point x="1331" y="749" type="line"/>
      <point x="1338" y="785" type="line"/>
      <point x="124" y="785" type="line"/>
    </contour>
    <contour>
      <point x="56" y="389" type="line"/>
      <point x="1270" y="389" type="line"/>
      <point x="1277" y="425" type="line"/>
      <point x="63" y="425" type="line"/>
    </contour>
  </outline>
</glyph>
<glyph name="G" format="2">
  <advance width="2006"/>
  <unicode hex="0047"/>
  <anchor x="1161" y="1550" name="top"/>
  <anchor x="864" y="-150" name="bottom"/>
  <outline>
    <contour>
      <point x="248" y="1076" type="qcurve" smooth="yes"/>
      <point x="119" y="336" type="line" smooth="yes"/>
      <point x="82.7792" y="129.24"/>
      <point x="270.786" y="-10"/>
      <point x="470" y="-10" type="qcurve" smooth="yes"/>
      <point x="1302" y="-10" type="line" smooth="yes"/>
      <point x="1501.21" y="-10"/>
      <point x="1740.02" y="127.73"/>
      <point x="1777" y="336" type="qcurve" smooth="yes"/>
      <point x="1840" y="700" type="line"/>
      <point x="1012" y="700" type="line"/>
      <point x="1006" y="664" type="line"/>
      <point x="1262" y="664" type="line"/>
      <point x="1151" y="26" type="line"/>
      <point x="1151" y="26"/>
      <point x="1151" y="26"/>
      <point x="1151" y="26" type="qcurve"/>
      <point x="637" y="26" type="line"/>
      <point x="637" y="26"/>
      <point x="637" y="26"/>
      <point x="637" y="26" type="qcurve"/>
      <point x="872" y="1374" type="line"/>
      <point x="872" y="1374"/>
      <point x="872" y="1374"/>
      <point x="872" y="1374" type="qcurve"/>
      <point x="1380" y="1374" type="line"/>
      <point x="1380" y="1374"/>
      <point x="1380" y="1374"/>
      <point x="1380" y="1374" type="qcurve"/>
      <point x="1298" y="906" type="line"/>
      <point x="1889" y="1012" type="line"/>
      <point x="1900" y="1076" type="line" smooth="yes"/>
      <point x="1935.25" y="1277"/>
      <point x="1733" y="1410"/>
      <point x="1544" y="1410" type="qcurve" smooth="yes"/>
      <point x="718" y="1410" type="line" smooth="yes"/>
      <point x="529" y="1410"/>
      <point x="283.25" y="1277"/>
    </contour>
  </outline>
  <guideline angle="0" x="0" y="574"/>
  <guideline angle="0" x="0" y="1036"/>
  <guideline angle="0" x="0" y="980"/>
  <guideline angle="0" x="0" y="806"/>
  <guideline angle="0" x="0" y="700"/>
  <guideline angle="0" x="0" y="906"/>
  <guideline angle="0" x="0" y="494"/>
</glyph>
<glyph name="W" format="2">
  <advance width="2603"/>
  <unicode hex="0057"/>
  <anchor x="1301.5" y="-150" name="bottom"/>
  <anchor x="1454" y="1550" name="top"/>
  <outline>
    <contour>
      <point x="425" y="0" type="line"/>
      <point x="799" y="0" type="line"/>
      <point x="1393" y="1092" type="line"/>
      <point x="1593" y="0" type="line"/>
      <point x="1967" y="0" type="line"/>
      <point x="2729" y="1400" type="line"/>
      <point x="2689" y="1400" type="line"/>
      <point x="2096" y="307" type="line"/>
      <point x="1906" y="1400" type="line"/>
      <point x="1521" y="1400" type="line"/>
      <point x="927" y="305" type="line"/>
      <point x="706" y="1400" type="line"/>
      <point x="127" y="1400" type="line"/>
    </contour>
  </outline>
</glyph>
<glyph name="Z" format="2">
  <advance width="1610"/>
  <unicode hex="005A"/>
  <anchor x="990" y="1550" name="top"/>
  <anchor x="678" y="-150" name="bottom"/>
  <outline>
    <contour>
      <point x="-64" y="0" type="line"/>
      <point x="1420" y="0" type="line"/>
      <point x="1426" y="36" type="line"/>
      <point x="565" y="36" type="line"/>
      <point x="570" y="27" type="line"/>
      <point x="1649" y="1382" type="line"/>
      <point x="1652" y="1400" type="line"/>
      <point x="274" y="1400" type="line"/>
      <point x="267" y="1364" type="line"/>
      <point x="1023" y="1364" type="line"/>
      <point x="1018" y="1373" type="line"/>
      <point x="-61" y="18" type="line"/>
    </contour>
  </outline>
</glyph>
<glyph name="d" format="2">
  <advance width="1709"/>
  <unicode hex="0064"/>
  <anchor x="1031" y="1598" name="top"/>
  <anchor x="726" y="-150" name="bottom"/>
  <anchor x="1667" y="1472" name="right"/>
  <outline>
    <contour>
      <point x="87" y="264" type="line" smooth="yes"/>
      <point x="62.8528" y="125.154"/>
      <point x="185.516" y="0"/>
      <point x="347" y="0" type="qcurve" smooth="yes"/>
      <point x="809" y="0" type="line" smooth="yes"/>
      <point x="836.166" y="0"/>
      <point x="877.172" y="14.4172"/>
      <point x="890" y="28" type="qcurve"/>
      <point x="885" y="0" type="line"/>
      <point x="1409" y="0" type="line"/>
      <point x="1666" y="1472" type="line"/>
      <point x="1142" y="1472" type="line"/>
      <point x="1061" y="1006" type="line"/>
      <point x="1057.23" y="1018.07"/>
      <point x="1020.69" y="1030"/>
      <point x="989" y="1030" type="qcurve" smooth="yes"/>
      <point x="527" y="1030" type="line" smooth="yes"/>
      <point x="367.025" y="1030"/>
      <point x="199.638" y="907.3"/>
      <point x="177" y="776" type="qcurve" smooth="yes"/>
    </contour>
    <contour>
      <point x="1060" y="998" type="line"/>
      <point x="891" y="32" type="line"/>
      <point x="571" y="32" type="line"/>
      <point x="571" y="32"/>
      <point x="571" y="32"/>
      <point x="571" y="32" type="qcurve"/>
      <point x="740" y="998" type="line"/>
      <point x="740" y="998"/>
      <point x="740" y="998"/>
      <point x="740" y="998" type="qcurve"/>
    </contour>
  </outline>
</glyph>
<glyph name="f" format="2">
  <advance width="958"/>
  <unicode hex="0066"/>
  <outline>
    <contour>
      <point x="233" y="1024" type="line"/>
      <point x="111" y="1024" type="line"/>
      <point x="105" y="992" type="line"/>
      <point x="227" y="992" type="line"/>
      <point x="54" y="0" type="line"/>
      <point x="578" y="0" type="line"/>
      <point x="751" y="992" type="line"/>
      <point x="981" y="992" type="line"/>
      <point x="987" y="1024" type="line"/>
      <point x="757" y="1024" type="line"/>
      <point x="829" y="1440" type="line"/>
      <point x="829" y="1440"/>
      <point x="829" y="1440"/>
      <point x="829" y="1440" type="qcurve"/>
      <point x="1079" y="1440" type="line"/>
      <point x="1095" y="1472" type="line"/>
      <point x="625" y="1472" type="line" smooth="yes"/>
      <point x="469.552" y="1472"/>
      <point x="286.92" y="1332.96"/>
      <point x="259" y="1176" type="qcurve" smooth="yes"/>
    </contour>
  </outline>
</glyph>
<glyph name="i" format="2">
  <advance width="913"/>
  <unicode hex="0069"/>
  <anchor x="312" y="-150" name="bottom"/>
  <anchor x="543" y="1174" name="top"/>
  <anchor x="110" y="0" name="ogonek"/>
  <outline>
    <contour>
      <point x="76" y="0" type="line"/>
      <point x="600" y="0" type="line"/>
      <point x="779" y="1024" type="line"/>
      <point x="255" y="1024" type="line"/>
    </contour>
    <contour>
      <point x="278" y="1232" type="line" smooth="yes"/>
      <point x="263.663" y="1150.5"/>
      <point x="287.503" y="1122"/>
      <point x="369" y="1122" type="qcurve" smooth="yes"/>
      <point x="701" y="1122" type="line" smooth="yes"/>
      <point x="782.497" y="1122"/>
      <point x="815.663" y="1150.5"/>
      <point x="830" y="1232" type="qcurve" smooth="yes"/>
      <point x="853" y="1364" type="line" smooth="yes"/>
      <point x="867.337" y="1443.99"/>
      <point x="843.497" y="1472"/>
      <point x="762" y="1472" type="qcurve" smooth="yes"/>
      <point x="430" y="1472" type="line" smooth="yes"/>
      <point x="348.503" y="1472"/>
      <point x="315.337" y="1443.99"/>
      <point x="301" y="1364" type="qcurve" smooth="yes"/>
    </contour>
  </outline>
</glyph>
<glyph name="u" format="2">
  <advance width="1623"/>
  <unicode hex="0075"/>
  <anchor x="897" y="1174" name="top"/>
  <anchor x="666" y="-150" name="bottom"/>
  <anchor x="709" y="0" name="ogonek"/>
  <anchor x="1511" y="1024" name="horn"/>
  <outline>
    <contour>
      <point x="88" y="204" type="line" smooth="yes"/>
      <point x="65.362" y="77.2272"/>
      <point x="181.301" y="0"/>
      <point x="296" y="0" type="qcurve" smooth="yes"/>
      <point x="1086" y="0" type="line" smooth="yes"/>
      <point x="1200.7" y="0"/>
      <point x="1345.36" y="77.2272"/>
      <point x="1368" y="204" type="qcurve" smooth="yes"/>
      <point x="1511" y="1024" type="line"/>
      <point x="987" y="1024" type="line"/>
      <point x="814" y="32" type="line"/>
      <point x="814" y="32"/>
      <point x="814" y="32"/>
      <point x="814" y="32" type="qcurve"/>
      <point x="582" y="32" type="line"/>
      <point x="582" y="32"/>
      <point x="582" y="32"/>
      <point x="582" y="32" type="qcurve"/>
      <point x="755" y="1024" type="line"/>
      <point x="231" y="1024" type="line"/>
    </contour>
  </outline>
</glyph>
<glyph name="z" format="2">
  <advance width="1389"/>
  <unicode hex="007A"/>
  <anchor x="780" y="1174" name="top"/>
  <anchor x="549" y="-150" name="bottom"/>
  <outline>
    <contour>
      <point x="-35" y="0" type="line"/>
      <point x="1184" y="0" type="line"/>
      <point x="1189" y="32" type="line"/>
      <point x="530" y="32" type="line"/>
      <point x="534" y="23" type="line"/>
      <point x="1354" y="1008" type="line"/>
      <point x="1356" y="1024" type="line"/>
      <point x="204" y="1024" type="line"/>
      <point x="199" y="992" type="line"/>
      <point x="791" y="992" type="line"/>
      <point x="787" y="1001" type="line"/>
      <point x="-33" y="16" type="line"/>
    </contour>
  </outline>
</glyph>
<glyph name="braceleft" format="2">
  <advance width="1042"/>
  <unicode hex="007B"/>
  <outline>
    <contour>
      <point x="187" y="18" type="line" smooth="yes"/>
      <point x="165.117" y="-110.282"/>
      <point x="302.172" y="-256"/>
      <point x="438" y="-256" type="qcurve" smooth="yes"/>
      <point x="871" y="-256" type="line"/>
      <point x="876" y="-224" type="line"/>
      <point x="707" y="-224" type="line" smooth="yes"/>
      <point x="641.35" y="-224"/>
      <point x="594.681" y="-167.896"/>
      <point x="606" y="-103" type="qcurve" smooth="yes"/>
      <point x="680" y="317" type="line" smooth="yes"/>
      <point x="698.865" y="428.681"/>
      <point x="620.307" y="569.834"/>
      <point x="529" y="597" type="qcurve"/>
      <point x="630.116" y="624.166"/>
      <point x="758.135" y="765.319"/>
      <point x="777" y="877" type="qcurve" smooth="yes"/>
      <point x="850" y="1295" type="line" smooth="yes"/>
      <point x="861.319" y="1359.9"/>
      <point x="927.35" y="1416"/>
      <point x="993" y="1416" type="qcurve" smooth="yes"/>
      <point x="1162" y="1416" type="line"/>
      <point x="1168" y="1448" type="line"/>
      <point x="735" y="1448" type="line" smooth="yes"/>
      <point x="599.172" y="1448"/>
      <point x="411.147" y="1299.83"/>
      <point x="387" y="1164" type="qcurve" smooth="yes"/>
      <point x="322" y="791" type="line" smooth="yes"/>
      <point x="308.417" y="709.503"/>
      <point x="195.699" y="613"/>
      <point x="81" y="613" type="qcurve"/>
      <point x="76" y="581" type="line"/>
      <point x="190.699" y="581"/>
      <point x="269.337" y="485.251"/>
      <point x="255" y="403" type="qcurve" smooth="yes"/>
    </contour>
  </outline>
</glyph>
<glyph name="brokenbar" format="2">
  <advance width="805"/>
  <unicode hex="00A6"/>
  <outline>
    <contour>
      <point x="349" y="1520" type="line"/>
      <point x="210" y="720" type="line"/>
      <point x="610" y="720" type="line"/>
      <point x="749" y="1520" type="line"/>
    </contour>
    <contour>
      <point x="140" y="320" type="line"/>
      <point x="0" y="-480" type="line"/>
      <point x="400" y="-480" type="line"/>
      <point x="540" y="320" type="line"/>
    </contour>
  </outline>
</glyph>
<glyph name="ordfeminine" format="2">
  <advance width="1134"/>
  <unicode hex="00AA"/>
  <outline>
    <contour>
      <point x="326" y="788" type="qcurve" smooth="yes"/>
      <point x="587" y="788" type="line" smooth="yes"/>
      <point x="624.73" y="788"/>
      <point x="674.399" y="801.663"/>
      <point x="691" y="816" type="qcurve"/>
      <point x="688" y="795" type="line"/>
      <point x="1027" y="795" type="line"/>
      <point x="1114" y="1292" type="line" smooth="yes"/>
      <point x="1132.87" y="1402.17"/>
      <point x="1038.78" y="1472"/>
      <point x="952" y="1472" type="qcurve" smooth="yes"/>
      <point x="466" y="1472" type="line" smooth="yes"/>
      <point x="379.976" y="1472"/>
      <point x="261.356" y="1400.34"/>
      <point x="244" y="1303" type="qcurve"/>
      <point x="242" y="1290" type="line"/>
      <point x="571" y="1228" type="line"/>
      <point x="608" y="1440" type="line"/>
      <point x="608" y="1440"/>
      <point x="608" y="1440"/>
      <point x="608" y="1440" type="qcurve"/>
      <point x="800" y="1440" type="line"/>
      <point x="800" y="1440"/>
      <point x="800" y="1440"/>
      <point x="800" y="1440" type="qcurve"/>
      <point x="750" y="1151" type="line"/>
      <point x="389" y="1151" type="line" smooth="yes"/>
      <point x="308.258" y="1151"/>
      <point x="183.601" y="1087.83"/>
      <point x="167" y="992" type="qcurve" smooth="yes"/>
      <point x="161" y="954" type="line" smooth="yes"/>
      <point x="143.644" y="856.657"/>
      <point x="244.503" y="788"/>
    </contour>
    <contour>
      <point x="477" y="820" type="qcurve"/>
      <point x="529" y="1119" type="line"/>
      <point x="529" y="1119"/>
      <point x="529" y="1119"/>
      <point x="529" y="1119" type="qcurve"/>
      <point x="744" y="1119" type="line"/>
      <point x="692" y="820" type="line"/>
      <point x="477" y="820" type="line"/>
      <point x="477" y="820"/>
      <point x="477" y="820"/>
    </contour>
  </outline>
  <guideline angle="0" x="0" y="36"/>
  <guideline angle="0" x="0" y="36"/>
</glyph>
<glyph name="logicalnot" format="2">
  <advance width="1426"/>
  <unicode hex="00AC"/>
  <outline>
    <contour>
      <point x="1246" y="389" type="line"/>
      <point x="1315" y="785" type="line"/>
      <point x="149" y="785" type="line"/>
      <point x="143" y="749" type="line"/>
      <point x="1269" y="749" type="line"/>
      <point x="1206" y="389" type="line"/>
    </contour>
  </outline>
</glyph>
<glyph name="cedilla" format="2">
  <advance width="404"/>
  <unicode hex="00B8"/>
  <outline>
    <contour>
      <point x="-33" y="-438" type="qcurve" smooth="yes"/>
      <point x="14.625" y="-438"/>
      <point x="103.125" y="-420.156"/>
      <point x="174.375" y="-380.594"/>
      <point x="223.125" y="-317.375"/>
      <point x="231" y="-272" type="qcurve" smooth="yes"/>
      <point x="238.125" y="-232.25"/>
      <point x="228.312" y="-163.094"/>
      <point x="192.688" y="-111.156"/>
      <point x="130.375" y="-79.875"/>
      <point x="85" y="-78" type="qcurve"/>
      <point x="140" y="0" type="line"/>
      <point x="18" y="0" type="line"/>
      <point x="-61" y="-112" type="line"/>
      <point x="-53.454" y="-108.982"/>
      <point x="-39" y="-108"/>
      <point x="-39" y="-108" type="qcurve"/>
      <point x="-1.27" y="-108"/>
      <point x="27.8098" y="-173.16"/>
      <point x="18" y="-229" type="qcurve" smooth="yes"/>
      <point x="2.908" y="-315.024"/>
      <point x="-52.5829" y="-403"/>
      <point x="-88.2002" y="-403" type="qcurve" smooth="yes"/>
      <point x="-105.405" y="-403"/>
      <point x="-143.926" y="-384.337"/>
      <point x="-156" y="-370" type="qcurve"/>
      <point x="-184" y="-392" type="line"/>
      <point x="-163.626" y="-416.902"/>
      <point x="-93.368" y="-438"/>
    </contour>
  </outline>
</glyph>
<glyph name="onesuperior" format="2">
  <advance width="666"/>
  <unicode hex="00B9"/>
  <outline>
    <contour>
      <point x="259" y="950" type="line"/>
      <point x="553" y="950" type="line"/>
      <point x="692" y="1746" type="line"/>
      <point x="228" y="1696" type="line"/>
      <point x="223" y="1666" type="line"/>
      <point x="387" y="1682" type="line"/>
    </contour>
  </outline>
  <guideline angle="90" color="0.4,0.4,0.4,1" name="halfwidth" x="333" y="0"/>
</glyph>
<glyph name="onequarter" format="2">
  <advance width="1871"/>
  <unicode hex="00BC"/>
  <outline>
    <contour>
      <point x="199" y="614" type="line"/>
      <point x="493" y="614" type="line"/>
      <point x="632" y="1410" type="line"/>
      <point x="168" y="1360" type="line"/>
      <point x="163" y="1330" type="line"/>
      <point x="327" y="1346" type="line"/>
    </contour>
    <contour>
      <point x="1309" y="1400" type="line"/>
      <point x="140" y="0" type="line"/>
      <point x="176" y="0" type="line"/>
      <point x="1345" y="1400" type="line"/>
    </contour>
    <contour>
      <point x="761" y="200" type="line"/>
      <point x="1260" y="200" type="line"/>
      <point x="1225" y="0" type="line"/>
      <point x="1519" y="0" type="line"/>
      <point x="1554" y="200" type="line"/>
      <point x="1682" y="200" type="line"/>
      <point x="1687" y="230" type="line"/>
      <point x="1559" y="230" type="line"/>
      <point x="1656" y="784" type="line"/>
      <point x="1484" y="784" type="line"/>
      <point x="765" y="224" type="line"/>
    </contour>
    <contour>
      <point x="822" y="230" type="line"/>
      <point x="1335" y="630" type="line"/>
      <point x="1265" y="230" type="line"/>
    </contour>
  </outline>
  <guideline angle="90" color="0.4,0.4,0.4,1" name="halfwidth" x="935.5" y="0"/>
</glyph>
<glyph name="questiondown" format="2">
  <advance width="1565"/>
  <unicode hex="00BF"/>
  <outline>
    <contour>
      <point x="844" y="570" type="line"/>
      <point x="804" y="570" type="line"/>
      <point x="788" y="475" type="line" smooth="yes"/>
      <point x="776.681" y="411.614"/>
      <point x="693.669" y="343"/>
      <point x="625" y="343" type="qcurve" smooth="yes"/>
      <point x="374" y="343" type="line" smooth="yes"/>
      <point x="224.589" y="343"/>
      <point x="68.3742" y="163.472"/>
      <point x="48" y="45" type="qcurve" smooth="yes"/>
      <point x="25" y="-87" type="line" smooth="yes"/>
      <point x="-2.9202" y="-246.975"/>
      <point x="146.503" y="-382"/>
      <point x="351" y="-382" type="qcurve" smooth="yes"/>
      <point x="897" y="-382" type="line" smooth="yes"/>
      <point x="1101.5" y="-382"/>
      <point x="1302.08" y="-244.221"/>
      <point x="1330" y="-85" type="qcurve" smooth="yes"/>
      <point x="1349" y="24" type="line"/>
      <point x="828" y="101" type="line"/>
      <point x="749" y="-346" type="line"/>
      <point x="749" y="-346"/>
      <point x="749" y="-346"/>
      <point x="749" y="-346" type="qcurve"/>
      <point x="504" y="-346" type="line"/>
      <point x="504" y="-346"/>
      <point x="504" y="-346"/>
      <point x="504" y="-346" type="qcurve"/>
      <point x="618" y="307" type="line"/>
      <point x="618" y="307"/>
      <point x="618" y="307"/>
      <point x="618" y="307" type="qcurve"/>
      <point x="618" y="307" type="line"/>
      <point x="704.779" y="307"/>
      <point x="813.663" y="395.767"/>
      <point x="828" y="475" type="qcurve" smooth="yes"/>
    </contour>
    <contour>
      <point x="1166" y="897" type="line" smooth="yes"/>
      <point x="1181.85" y="987.552"/>
      <point x="1140.55" y="1038"/>
      <point x="1050" y="1038" type="qcurve" smooth="yes"/>
      <point x="762" y="1038" type="line" smooth="yes"/>
      <point x="672" y="1038"/>
      <point x="611.75" y="987"/>
      <point x="596" y="897" type="qcurve" smooth="yes"/>
      <point x="581" y="808" type="line" smooth="yes"/>
      <point x="565.153" y="718.203"/>
      <point x="607.448" y="668"/>
      <point x="698" y="668" type="qcurve" smooth="yes"/>
      <point x="985" y="668" type="line" smooth="yes"/>
      <point x="1075" y="668"/>
      <point x="1135.25" y="718.25"/>
      <point x="1151" y="806" type="qcurve" smooth="yes"/>
    </contour>
  </outline>
</glyph>
<glyph name="Aacute" format="2">
  <advance width="1824"/>
  <unicode hex="00C1"/>
  <anchor x="1063" y="1550" name="top"/>
  <anchor x="766" y="-150" name="bottom"/>
  <anchor x="1044" y="0" name="ogonek_in"/>
  <anchor x="902" y="1500" name="topright"/>
  <outline>
    <contour>
      <point x="-120" y="0" type="line"/>
      <point x="-75" y="0" type="line"/>
      <point x="159" y="338" type="line"/>
      <point x="940" y="338" type="line"/>
      <point x="1044" y="0" type="line"/>
      <point x="1704" y="0" type="line"/>
      <point x="1224" y="1400" type="line"/>
      <point x="850" y="1400" type="line"/>
    </contour>
    <contour>
      <point x="184" y="374" type="line"/>
      <point x="700" y="1119" type="line"/>
      <point x="929" y="374" type="line"/>
    </contour>
    <contour>
      <point x="858" y="1500" type="line"/>
      <point x="902" y="1500" type="line"/>
      <point x="1603" y="1800" type="line"/>
      <point x="969" y="1800" type="line"/>
    </contour>
  </outline>
</glyph>
<glyph name="Acircumflex" format="2">
  <advance width="1824"/>
  <unicode hex="00C2"/>
  <anchor x="1117" y="1856" name="top"/>
  <anchor x="766" y="-150" name="bottom"/>
  <anchor x="1044" y="0" name="ogonek_in"/>
  <anchor x="1582" y="1576" name="topright"/>
  <outline>
    <contour>
      <point x="-120" y="0" type="line"/>
      <point x="-75" y="0" type="line"/>
      <point x="159" y="338" type="line"/>
      <point x="940" y="338" type="line"/>
      <point x="1044" y="0" type="line"/>
      <point x="1704" y="0" type="line"/>
      <point x="1224" y="1400" type="line"/>
      <point x="850" y="1400" type="line"/>
    </contour>
    <contour>
      <point x="184" y="374" type="line"/>
      <point x="700" y="1119" type="line"/>
      <point x="929" y="374" type="line"/>
    </contour>
    <contour>
      <point x="669" y="1476" type="line"/>
      <point x="728" y="1476" type="line"/>
      <point x="970" y="1698" type="line"/>
      <point x="1104" y="1476" type="line"/>
      <point x="1565" y="1476" type="line"/>
      <point x="1335" y="1776" type="line"/>
      <point x="997" y="1776" type="line"/>
    </contour>
  </outline>
</glyph>
<glyph name="Edieresis" format="2">
  <advance width="1725"/>
  <unicode hex="00CB"/>
  <anchor x="1176" y="1918" name="top"/>
  <anchor x="814" y="-150" name="bottom"/>
  <anchor x="1218" y="0" name="ogonek"/>
  <outline>
    <contour>
      <point x="83" y="0" type="line"/>
      <point x="1603" y="0" type="line"/>
      <point x="1609" y="36" type="line"/>
      <point x="661" y="36" type="line"/>
      <point x="777" y="700" type="line"/>
      <point x="1319" y="700" type="line"/>
      <point x="1325" y="736" type="line"/>
      <point x="783" y="736" type="line"/>
      <point x="893" y="1364" type="line"/>
      <point x="1821" y="1364" type="line"/>
      <point x="1827" y="1400" type="line"/>
      <point x="327" y="1400" type="line"/>
    </contour>
    <contour>
      <point x="712" y="1478" type="qcurve" smooth="yes"/>
      <point x="894" y="1478" type="line" smooth="yes"/>
      <point x="975.497" y="1478"/>
      <point x="1009.66" y="1506.5"/>
      <point x="1024" y="1588" type="qcurve" smooth="yes"/>
      <point x="1049" y="1730" type="line" smooth="yes"/>
      <point x="1062.58" y="1809.99"/>
      <point x="1039.5" y="1838"/>
      <point x="958" y="1838" type="qcurve" smooth="yes"/>
      <point x="776" y="1838" type="line" smooth="yes"/>
      <point x="694.503" y="1838"/>
      <point x="660.583" y="1809.99"/>
      <point x="647" y="1730" type="qcurve" smooth="yes"/>
      <point x="622" y="1588" type="line" smooth="yes"/>
      <point x="607.663" y="1506.5"/>
      <point x="630.503" y="1478"/>
    </contour>
    <contour>
      <point x="1302" y="1478" type="qcurve" smooth="yes"/>
      <point x="1484" y="1478" type="line" smooth="yes"/>
      <point x="1565.5" y="1478"/>
      <point x="1599.66" y="1506.5"/>
      <point x="1614" y="1588" type="qcurve" smooth="yes"/>
      <point x="1639" y="1730" type="line" smooth="yes"/>
      <point x="1652.58" y="1809.99"/>
      <point x="1629.5" y="1838"/>
      <point x="1548" y="1838" type="qcurve" smooth="yes"/>
      <point x="1366" y="1838" type="line" smooth="yes"/>
      <point x="1284.5" y="1838"/>
      <point x="1250.58" y="1809.99"/>
      <point x="1237" y="1730" type="qcurve" smooth="yes"/>
      <point x="1212" y="1588" type="line" smooth="yes"/>
      <point x="1197.66" y="1506.5"/>
      <point x="1220.5" y="1478"/>
    </contour>
  </outline>
  <guideline angle="90" x="-122" y="0"/>
</glyph>
<glyph name="Iacute" format="2">
  <advance width="972"/>
  <unicode hex="00CD"/>
  <anchor x="637" y="1550" name="top"/>
  <anchor x="340" y="-150" name="bottom"/>
  <anchor x="131" y="0" name="ogonek"/>
  <anchor x="476" y="1500" name="topright"/>
  <outline>
    <contour>
      <point x="83" y="0" type="line"/>
      <point x="655" y="0" type="line"/>
      <point x="899" y="1400" type="line"/>
      <point x="327" y="1400" type="line"/>
    </contour>
    <contour>
      <point x="432" y="1500" type="line"/>
      <point x="476" y="1500" type="line"/>
      <point x="1177" y="1800" type="line"/>
      <point x="543" y="1800" type="line"/>
    </contour>
  </outline>
</glyph>
<glyph name="Icircumflex" format="2">
  <advance width="972"/>
  <unicode hex="00CE"/>
  <anchor x="691" y="1856" name="top"/>
  <anchor x="340" y="-150" name="bottom"/>
  <anchor x="131" y="0" name="ogonek"/>
  <anchor x="1156" y="1576" name="topright"/>
  <outline>
    <contour>
      <point x="83" y="0" type="line"/>
      <point x="655" y="0" type="line"/>
      <point x="899" y="1400" type="line"/>
      <point x="327" y="1400" type="line"/>
    </contour>
    <contour>
      <point x="243" y="1476" type="line"/>
      <point x="302" y="1476" type="line"/>
      <point x="544" y="1698" type="line"/>
      <point x="678" y="1476" type="line"/>
      <point x="1139" y="1476" type="line"/>
      <point x="909" y="1776" type="line"/>
      <point x="571" y="1776" type="line"/>
    </contour>
  </outline>
</glyph>
<glyph name="Ucircumflex" format="2">
  <advance width="1972"/>
  <unicode hex="00DB"/>
  <anchor x="1192" y="1856" name="top"/>
  <anchor x="841" y="-150" name="bottom"/>
  <anchor x="893" y="0" name="ogonek"/>
  <anchor x="1908" y="1400" name="horn"/>
  <anchor x="1657" y="1576" name="topright"/>
  <outline>
    <contour>
      <point x="316" y="1400" type="line"/>
      <point x="130" y="333" type="line" smooth="yes"/>
      <point x="111.625" y="226.875"/>
      <point x="144.969" y="93.1562"/>
      <point x="237.781" y="17.5938"/>
      <point x="384.75" y="-10"/>
      <point x="480" y="-10" type="qcurve" smooth="yes"/>
      <point x="1252" y="-10" type="line" smooth="yes"/>
      <point x="1444.75" y="-10"/>
      <point x="1687.25" y="120.75"/>
      <point x="1724" y="333" type="qcurve" smooth="yes"/>
      <point x="1910" y="1400" type="line"/>
      <point x="1338" y="1400" type="line"/>
      <point x="1099" y="26" type="line"/>
      <point x="1099" y="26"/>
      <point x="1099" y="26"/>
      <point x="1099" y="26" type="qcurve"/>
      <point x="649" y="26" type="line"/>
      <point x="649" y="26"/>
      <point x="649" y="26"/>
      <point x="649" y="26" type="qcurve"/>
      <point x="888" y="1400" type="line"/>
    </contour>
    <contour>
      <point x="744" y="1476" type="line"/>
      <point x="803" y="1476" type="line"/>
      <point x="1045" y="1698" type="line"/>
      <point x="1179" y="1476" type="line"/>
      <point x="1640" y="1476" type="line"/>
      <point x="1410" y="1776" type="line"/>
      <point x="1072" y="1776" type="line"/>
    </contour>
  </outline>
</glyph>
<glyph name="ccedilla" format="2">
  <advance width="1614"/>
  <unicode hex="00E7"/>
  <anchor x="912" y="1174" name="top"/>
  <anchor x="681" y="-150" name="bottom"/>
  <outline>
    <contour>
      <point x="87" y="264" type="line" smooth="yes"/>
      <point x="62.0982" y="117.608"/>
      <point x="185.914" y="-6"/>
      <point x="364" y="-6" type="qcurve" smooth="yes"/>
      <point x="1050" y="-6" type="line" smooth="yes"/>
      <point x="1228.09" y="-6"/>
      <point x="1396.1" y="117.608"/>
      <point x="1421" y="264" type="qcurve" smooth="yes"/>
      <point x="1439" y="366" type="line"/>
      <point x="934" y="474" type="line"/>
      <point x="856" y="26" type="line"/>
      <point x="856" y="26"/>
      <point x="856" y="26"/>
      <point x="856" y="26" type="qcurve"/>
      <point x="570" y="26" type="line"/>
      <point x="570" y="26"/>
      <point x="570" y="26"/>
      <point x="570" y="26" type="qcurve"/>
      <point x="740" y="998" type="line"/>
      <point x="740" y="998"/>
      <point x="740" y="998"/>
      <point x="740" y="998" type="qcurve"/>
      <point x="1022" y="998" type="line"/>
      <point x="1022" y="998"/>
      <point x="1022" y="998"/>
      <point x="1022" y="998" type="qcurve"/>
      <point x="944" y="552" type="line"/>
      <point x="1485" y="650" type="line"/>
      <point x="1506" y="774" type="line" smooth="yes"/>
      <point x="1530.9" y="912.846"/>
      <point x="1404.07" y="1030"/>
      <point x="1229" y="1030" type="qcurve" smooth="yes"/>
      <point x="547" y="1030" type="line" smooth="yes"/>
      <point x="371.933" y="1030"/>
      <point x="200.147" y="910.356"/>
      <point x="176" y="770" type="qcurve" smooth="yes"/>
    </contour>
    <contour>
      <point x="593" y="-438" type="qcurve" smooth="yes"/>
      <point x="640.625" y="-438"/>
      <point x="729.125" y="-420.156"/>
      <point x="800.375" y="-380.594"/>
      <point x="849.125" y="-317.375"/>
      <point x="857" y="-272" type="qcurve" smooth="yes"/>
      <point x="864.125" y="-232.25"/>
      <point x="854.312" y="-163.094"/>
      <point x="818.688" y="-111.156"/>
      <point x="756.375" y="-79.875"/>
      <point x="711" y="-78" type="qcurve"/>
      <point x="766" y="0" type="line"/>
      <point x="644" y="0" type="line"/>
      <point x="565" y="-112" type="line"/>
      <point x="572.546" y="-108.982"/>
      <point x="587" y="-108"/>
      <point x="587" y="-108" type="qcurve"/>
      <point x="624.73" y="-108"/>
      <point x="653.81" y="-173.16"/>
      <point x="644" y="-229" type="qcurve" smooth="yes"/>
      <point x="628.908" y="-315.024"/>
      <point x="573.417" y="-403"/>
      <point x="537.8" y="-403" type="qcurve" smooth="yes"/>
      <point x="520.595" y="-403"/>
      <point x="482.074" y="-384.337"/>
      <point x="470" y="-370" type="qcurve"/>
      <point x="442" y="-392" type="line"/>
      <point x="462.374" y="-416.902"/>
      <point x="532.632" y="-438"/>
    </contour>
  </outline>
</glyph>
<glyph name="egrave" format="2">
  <advance width="1650"/>
  <unicode hex="00E8"/>
  <anchor x="910" y="1174" name="top"/>
  <anchor x="679" y="-150" name="bottom"/>
  <anchor x="952" y="-6" name="ogonek"/>
  <outline>
    <contour>
      <point x="94" y="304" type="line" smooth="yes"/>
      <point x="66.0798" y="141.006"/>
      <point x="220.675" y="-6"/>
      <point x="438" y="-6" type="qcurve" smooth="yes"/>
      <point x="954" y="-6" type="line" smooth="yes"/>
      <point x="1171.32" y="-6"/>
      <point x="1393.83" y="118.062"/>
      <point x="1421" y="272" type="qcurve"/>
      <point x="1423" y="282" type="line"/>
      <point x="934" y="368" type="line"/>
      <point x="874" y="26" type="line"/>
      <point x="874" y="26"/>
      <point x="874" y="26"/>
      <point x="874" y="26" type="qcurve"/>
      <point x="550" y="26" type="line"/>
      <point x="550" y="26"/>
      <point x="550" y="26"/>
      <point x="550" y="26" type="qcurve"/>
      <point x="636" y="518" type="line"/>
      <point x="1464" y="518" type="line"/>
      <point x="1501" y="730" type="line" smooth="yes"/>
      <point x="1528.17" y="888.466"/>
      <point x="1352.32" y="1030"/>
      <point x="1135" y="1030" type="qcurve" smooth="yes"/>
      <point x="619" y="1030" type="line" smooth="yes"/>
      <point x="403.184" y="1030"/>
      <point x="196.166" y="886.957"/>
      <point x="169" y="730" type="qcurve" smooth="yes"/>
    </contour>
    <contour>
      <point x="641" y="550" type="line"/>
      <point x="720" y="998" type="line"/>
      <point x="720" y="998"/>
      <point x="720" y="998"/>
      <point x="720" y="998" type="qcurve"/>
      <point x="1044" y="998" type="line"/>
      <point x="1044" y="998"/>
      <point x="1044" y="998"/>
      <point x="1044" y="998" type="qcurve"/>
      <point x="965" y="550" type="line"/>
    </contour>
    <contour>
      <point x="1049" y="1100" type="line"/>
      <point x="1082" y="1100" type="line"/>
      <point x="1049" y="1448" type="line"/>
      <point x="531" y="1448" type="line"/>
    </contour>
  </outline>
  <guideline angle="0" color="1,0,0,1" x="0" y="-1030"/>
</glyph>
<glyph name="ntilde" format="2">
  <advance width="1615"/>
  <unicode hex="00F1"/>
  <anchor x="958" y="1521" name="top"/>
  <anchor x="666" y="-150" name="bottom"/>
  <outline>
    <contour>
      <point x="59" y="0" type="line"/>
      <point x="583" y="0" type="line"/>
      <point x="756" y="992" type="line"/>
      <point x="974" y="992" type="line"/>
      <point x="974" y="992"/>
      <point x="974" y="992"/>
      <point x="974" y="992" type="qcurve"/>
      <point x="801" y="0" type="line"/>
      <point x="1325" y="0" type="line"/>
      <point x="1451" y="724" type="line" smooth="yes"/>
      <point x="1478" y="878.5"/>
      <point x="1333" y="1024"/>
      <point x="1138" y="1024" type="qcurve" smooth="yes"/>
      <point x="838" y="1024" type="line" smooth="yes"/>
      <point x="810.834" y="1024"/>
      <point x="769.828" y="1009.58"/>
      <point x="757" y="996" type="qcurve"/>
      <point x="762" y="1024" type="line"/>
      <point x="238" y="1024" type="line"/>
    </contour>
    <contour>
      <point x="525" y="1135" type="qcurve"/>
      <point x="554" y="1130" type="line"/>
      <point x="558.528" y="1145.85"/>
      <point x="600.387" y="1214"/>
      <point x="660" y="1214" type="qcurve" smooth="yes"/>
      <point x="696.375" y="1214"/>
      <point x="784" y="1184.31"/>
      <point x="877" y="1148.69"/>
      <point x="970.625" y="1119"/>
      <point x="1013" y="1119" type="qcurve" smooth="yes"/>
      <point x="1139" y="1119"/>
      <point x="1259" y="1310.75"/>
      <point x="1310" y="1448" type="qcurve"/>
      <point x="1281" y="1453" type="line"/>
      <point x="1276.47" y="1437.15"/>
      <point x="1233.61" y="1369"/>
      <point x="1174" y="1369" type="qcurve" smooth="yes"/>
      <point x="1137.62" y="1369"/>
      <point x="1050.31" y="1398.69"/>
      <point x="957.688" y="1434.31"/>
      <point x="864.375" y="1464"/>
      <point x="822" y="1464" type="qcurve" smooth="yes"/>
      <point x="696" y="1464"/>
      <point x="578.25" y="1284.25"/>
    </contour>
  </outline>
  <guideline angle="0" x="0" y="988"/>
  <guideline angle="0" x="0" y="870"/>
  <guideline angle="90" x="336" y="0"/>
  <guideline angle="90" x="1066" y="0"/>
  <guideline angle="90" x="1036" y="0"/>
  <guideline angle="90" x="366" y="0"/>
</glyph>
<glyph name="odieresis" format="2">
  <advance width="1658"/>
  <unicode hex="00F6"/>
  <anchor x="977" y="1532" name="top"/>
  <anchor x="683" y="-150" name="bottom"/>
  <anchor x="1514" y="776" name="horn"/>
  <anchor x="726" y="0" name="ogonek"/>
  <outline>
    <contour>
      <point x="86" y="258" type="line" smooth="yes"/>
      <point x="61.8528" y="119.154"/>
      <point x="184.516" y="-6"/>
      <point x="346" y="-6" type="qcurve" smooth="yes"/>
      <point x="1074" y="-6" type="line" smooth="yes"/>
      <point x="1236.99" y="-6"/>
      <point x="1401.85" y="119.154"/>
      <point x="1426" y="258" type="qcurve" smooth="yes"/>
      <point x="1517" y="776" type="line" smooth="yes"/>
      <point x="1539.64" y="907.3"/>
      <point x="1414.98" y="1030"/>
      <point x="1255" y="1030" type="qcurve" smooth="yes"/>
      <point x="527" y="1030" type="line" smooth="yes"/>
      <point x="367.025" y="1030"/>
      <point x="199.638" y="907.3"/>
      <point x="177" y="776" type="qcurve" smooth="yes"/>
    </contour>
    <contour>
      <point x="570" y="26" type="qcurve"/>
      <point x="740" y="998" type="line"/>
      <point x="740" y="998"/>
      <point x="740" y="998"/>
      <point x="740" y="998" type="qcurve"/>
      <point x="1032" y="998" type="line"/>
      <point x="1032" y="998"/>
      <point x="1032" y="998"/>
      <point x="1032" y="998" type="qcurve"/>
      <point x="862" y="26" type="line"/>
      <point x="862" y="26"/>
      <point x="862" y="26"/>
      <point x="862" y="26" type="qcurve"/>
      <point x="570" y="26" type="line"/>
      <point x="570" y="26"/>
      <point x="570" y="26"/>
    </contour>
    <contour>
      <point x="567" y="1112" type="qcurve" smooth="yes"/>
      <point x="709" y="1112" type="line" smooth="yes"/>
      <point x="790.497" y="1112"/>
      <point x="823.663" y="1140.5"/>
      <point x="838" y="1222" type="qcurve" smooth="yes"/>
      <point x="860" y="1344" type="line" smooth="yes"/>
      <point x="873.583" y="1423.99"/>
      <point x="850.497" y="1452"/>
      <point x="769" y="1452" type="qcurve" smooth="yes"/>
      <point x="627" y="1452" type="line" smooth="yes"/>
      <point x="545.503" y="1452"/>
      <point x="511.583" y="1423.99"/>
      <point x="498" y="1344" type="qcurve" smooth="yes"/>
      <point x="476" y="1222" type="line" smooth="yes"/>
      <point x="461.663" y="1140.5"/>
      <point x="485.503" y="1112"/>
    </contour>
    <contour>
      <point x="1097" y="1112" type="qcurve" smooth="yes"/>
      <point x="1239" y="1112" type="line" smooth="yes"/>
      <point x="1320.5" y="1112"/>
      <point x="1353.66" y="1140.5"/>
      <point x="1368" y="1222" type="qcurve" smooth="yes"/>
      <point x="1390" y="1344" type="line" smooth="yes"/>
      <point x="1403.58" y="1423.99"/>
      <point x="1380.5" y="1452"/>
      <point x="1299" y="1452" type="qcurve" smooth="yes"/>
      <point x="1157" y="1452" type="line" smooth="yes"/>
      <point x="1075.5" y="1452"/>
      <point x="1041.58" y="1423.99"/>
      <point x="1028" y="1344" type="qcurve" smooth="yes"/>
      <point x="1006" y="1222" type="line" smooth="yes"/>
      <point x="991.663" y="1140.5"/>
      <point x="1015.5" y="1112"/>
    </contour>
  </outline>
</glyph>
<glyph name="ydieresis" format="2">
  <advance width="1285"/>
  <unicode hex="00FF"/>
  <anchor x="923" y="1532" name="top"/>
  <anchor x="903" y="-115" name="bottom"/>
  <outline>
    <contour>
      <point x="-163" y="-428" type="line"/>
      <point x="252" y="-428" type="line" smooth="yes"/>
      <point x="291" y="-428"/>
      <point x="348.719" y="-416.312"/>
      <point x="398.031" y="-385.188"/>
      <point x="444.875" y="-330.75"/>
      <point x="473" y="-288" type="qcurve" smooth="yes"/>
      <point x="1338" y="1024" type="line"/>
      <point x="1301" y="1024" type="line"/>
      <point x="827" y="307" type="line"/>
      <point x="599" y="1024" type="line"/>
      <point x="70" y="1024" type="line"/>
      <point x="479" y="-225" type="line"/>
      <point x="444" y="-278" type="line" smooth="yes"/>
      <point x="394.951" y="-352.705"/>
      <point x="327.65" y="-396"/>
      <point x="262" y="-396" type="qcurve" smooth="yes"/>
      <point x="-164" y="-396" type="line"/>
    </contour>
    <contour>
      <point x="513" y="1112" type="qcurve" smooth="yes"/>
      <point x="655" y="1112" type="line" smooth="yes"/>
      <point x="736.497" y="1112"/>
      <point x="769.663" y="1140.5"/>
      <point x="784" y="1222" type="qcurve" smooth="yes"/>
      <point x="806" y="1344" type="line" smooth="yes"/>
      <point x="819.583" y="1423.99"/>
      <point x="796.497" y="1452"/>
      <point x="715" y="1452" type="qcurve" smooth="yes"/>
      <point x="573" y="1452" type="line" smooth="yes"/>
      <point x="491.503" y="1452"/>
      <point x="457.583" y="1423.99"/>
      <point x="444" y="1344" type="qcurve" smooth="yes"/>
      <point x="422" y="1222" type="line" smooth="yes"/>
      <point x="407.663" y="1140.5"/>
      <point x="431.503" y="1112"/>
    </contour>
    <contour>
      <point x="1043" y="1112" type="qcurve" smooth="yes"/>
      <point x="1185" y="1112" type="line" smooth="yes"/>
      <point x="1266.5" y="1112"/>
      <point x="1299.66" y="1140.5"/>
      <point x="1314" y="1222" type="qcurve" smooth="yes"/>
      <point x="1336" y="1344" type="line" smooth="yes"/>
      <point x="1349.58" y="1423.99"/>
      <point x="1326.5" y="1452"/>
      <point x="1245" y="1452" type="qcurve" smooth="yes"/>
      <point x="1103" y="1452" type="line" smooth="yes"/>
      <point x="1021.5" y="1452"/>
      <point x="987.583" y="1423.99"/>
      <point x="974" y="1344" type="qcurve" smooth="yes"/>
      <point x="952" y="1222" type="line" smooth="yes"/>
      <point x="937.663" y="1140.5"/>
      <point x="961.503" y="1112"/>
    </contour>
  </outline>
</glyph>
<glyph name="Cacute" format="2">
  <advance width="1933"/>
  <unicode hex="0106"/>
  <anchor x="1138" y="1550" name="top"/>
  <anchor x="841" y="-150" name="bottom"/>
  <anchor x="977" y="1500" name="topright"/>
  <outline>
    <contour>
      <point x="248" y="1076" type="qcurve" smooth="yes"/>
      <point x="119" y="336" type="line" smooth="yes"/>
      <point x="82.7792" y="129.24"/>
      <point x="270.786" y="-10"/>
      <point x="470" y="-10" type="qcurve" smooth="yes"/>
      <point x="1262" y="-10" type="line" smooth="yes"/>
      <point x="1461.21" y="-10"/>
      <point x="1700.02" y="127.73"/>
      <point x="1737" y="336" type="qcurve" smooth="yes"/>
      <point x="1768" y="518" type="line"/>
      <point x="1216" y="630" type="line"/>
      <point x="1111" y="26" type="line"/>
      <point x="1111" y="26"/>
      <point x="1111" y="26"/>
      <point x="1111" y="26" type="qcurve"/>
      <point x="637" y="26" type="line"/>
      <point x="637" y="26"/>
      <point x="637" y="26"/>
      <point x="637" y="26" type="qcurve"/>
      <point x="872" y="1374" type="line"/>
      <point x="872" y="1374"/>
      <point x="872" y="1374"/>
      <point x="872" y="1374" type="qcurve"/>
      <point x="1340" y="1374" type="line"/>
      <point x="1340" y="1374"/>
      <point x="1340" y="1374"/>
      <point x="1340" y="1374" type="qcurve"/>
      <point x="1239" y="796" type="line"/>
      <point x="1829" y="902" type="line"/>
      <point x="1860" y="1076" type="line" smooth="yes"/>
      <point x="1895.25" y="1277"/>
      <point x="1693" y="1410"/>
      <point x="1504" y="1410" type="qcurve" smooth="yes"/>
      <point x="718" y="1410" type="line" smooth="yes"/>
      <point x="529" y="1410"/>
      <point x="283.25" y="1277"/>
    </contour>
    <contour>
      <point x="933" y="1500" type="line"/>
      <point x="977" y="1500" type="line"/>
      <point x="1678" y="1800" type="line"/>
      <point x="1044" y="1800" type="line"/>
    </contour>
  </outline>
</glyph>
<glyph name="dcaron" format="2">
  <advance width="1706"/>
  <unicode hex="010F"/>
  <anchor x="1028" y="1598" name="top"/>
  <anchor x="723" y="-150" name="bottom"/>
  <anchor x="1664" y="1472" name="right"/>
  <outline>
    <contour>
      <point x="84" y="264" type="line" smooth="yes"/>
      <point x="59.8528" y="125.154"/>
      <point x="182.516" y="0"/>
      <point x="344" y="0" type="qcurve" smooth="yes"/>
      <point x="806" y="0" type="line" smooth="yes"/>
      <point x="833.166" y="0"/>
      <point x="874.172" y="14.4172"/>
      <point x="887" y="28" type="qcurve"/>
      <point x="882" y="0" type="line"/>
      <point x="1406" y="0" type="line"/>
      <point x="1663" y="1472" type="line"/>
      <point x="1139" y="1472" type="line"/>
      <point x="1058" y="1006" type="line"/>
      <point x="1054.23" y="1018.07"/>
      <point x="1017.69" y="1030"/>
      <point x="986" y="1030" type="qcurve" smooth="yes"/>
      <point x="524" y="1030" type="line" smooth="yes"/>
      <point x="364.025" y="1030"/>
      <point x="196.638" y="907.3"/>
      <point x="174" y="776" type="qcurve" smooth="yes"/>
    </contour>
    <contour>
      <point x="1057" y="998" type="line"/>
      <point x="888" y="32" type="line"/>
      <point x="568" y="32" type="line"/>
      <point x="568" y="32"/>
      <point x="568" y="32"/>
      <point x="568" y="32" type="qcurve"/>
      <point x="737" y="998" type="line"/>
      <point x="737" y="998"/>
      <point x="737" y="998"/>
      <point x="737" y="998" type="qcurve"/>
    </contour>
    <contour>
      <point x="1825" y="1170" type="line"/>
      <point x="1861" y="1177" type="line"/>
      <point x="2174" y="1472" type="line"/>
      <point x="1767" y="1472" type="line"/>
    </contour>
  </outline>
</glyph>
<glyph name="eogonek" format="2">
  <advance width="1650"/>
  <unicode hex="0119"/>
  <anchor x="910" y="1174" name="top"/>
  <anchor x="679" y="-150" name="bottom"/>
  <anchor x="952" y="-6" name="ogonek"/>
  <outline>
    <contour>
      <point x="94" y="304" type="line" smooth="yes"/>
      <point x="66.0798" y="141.006"/>
      <point x="220.675" y="-6"/>
      <point x="438" y="-6" type="qcurve" smooth="yes"/>
      <point x="954" y="-6" type="line" smooth="yes"/>
      <point x="1171.32" y="-6"/>
      <point x="1393.83" y="118.062"/>
      <point x="1421" y="272" type="qcurve"/>
      <point x="1423" y="282" type="line"/>
      <point x="934" y="368" type="line"/>
      <point x="874" y="26" type="line"/>
      <point x="874" y="26"/>
      <point x="874" y="26"/>
      <point x="874" y="26" type="qcurve"/>
      <point x="550" y="26" type="line"/>
      <point x="550" y="26"/>
      <point x="550" y="26"/>
      <point x="550" y="26" type="qcurve"/>
      <point x="636" y="518" type="line"/>
      <point x="1464" y="518" type="line"/>
      <point x="1501" y="730" type="line" smooth="yes"/>
      <point x="1528.17" y="888.466"/>
      <point x="1352.32" y="1030"/>
      <point x="1135" y="1030" type="qcurve" smooth="yes"/>
      <point x="619" y="1030" type="line" smooth="yes"/>
      <point x="403.184" y="1030"/>
      <point x="196.166" y="886.957"/>
      <point x="169" y="730" type="qcurve" smooth="yes"/>
    </contour>
    <contour>
      <point x="641" y="550" type="line"/>
      <point x="720" y="998" type="line"/>
      <point x="720" y="998"/>
      <point x="720" y="998"/>
      <point x="720" y="998" type="qcurve"/>
      <point x="1044" y="998" type="line"/>
      <point x="1044" y="998"/>
      <point x="1044" y="998"/>
      <point x="1044" y="998" type="qcurve"/>
      <point x="965" y="550" type="line"/>
    </contour>
    <contour>
      <point x="989.522" y="-434" type="qcurve" smooth="yes"/>
      <point x="1040.63" y="-434"/>
      <point x="1130.42" y="-417.129"/>
      <point x="1184" y="-396" type="qcurve"/>
      <point x="1294" y="-160" type="line"/>
      <point x="1250.23" y="-177.356"/>
      <point x="1154.25" y="-196"/>
      <point x="1105.84" y="-196" type="qcurve" smooth="yes"/>
      <point x="1010.88" y="-196"/>
      <point x="901.164" y="-128.691"/>
      <point x="910.893" y="-75.467" type="qcurve" smooth="yes"/>
      <point x="913.992" y="-58.5134"/>
      <point x="934.644" y="-21.8466"/>
      <point x="952" y="-6" type="qcurve"/>
      <point x="918" y="-6" type="line"/>
      <point x="874.988" y="-57.3128"/>
      <point x="771.012" y="-180.442"/>
      <point x="728" y="-231" type="qcurve"/>
      <point x="712.153" y="-322.307"/>
      <point x="858.016" y="-434"/>
    </contour>
  </outline>
  <guideline angle="0" color="1,0,0,1" x="0" y="-1030"/>
</glyph>
<glyph name="gbreve" format="2">
  <advance width="1697"/>
  <unicode hex="011F"/>
  <anchor x="848.5" y="1561" name="top"/>
  <anchor x="848.5" y="-554" name="bottom"/>
  <outline>
    <contour>
      <point x="571" y="32" type="qcurve"/>
      <point x="739" y="992" type="line"/>
      <point x="739" y="992"/>
      <point x="739" y="992"/>
      <point x="739" y="992" type="qcurve"/>
      <point x="1059" y="992" type="line"/>
      <point x="891" y="32" type="line"/>
      <point x="571" y="32" type="line"/>
      <point x="571" y="32"/>
      <point x="571" y="32"/>
    </contour>
    <contour>
      <point x="143" y="-404" type="line"/>
      <point x="1079" y="-404" type="line" smooth="yes"/>
      <point x="1137.5" y="-404"/>
      <point x="1241.62" y="-357.25"/>
      <point x="1324.88" y="-271.75"/>
      <point x="1383.25" y="-151.5"/>
      <point x="1396" y="-78" type="qcurve" smooth="yes"/>
      <point x="1588" y="1024" type="line"/>
      <point x="1064" y="1024" type="line"/>
      <point x="1060" y="1000" type="line"/>
      <point x="1056.23" y="1012.07"/>
      <point x="1019.69" y="1024"/>
      <point x="988" y="1024" type="qcurve" smooth="yes"/>
      <point x="526" y="1024" type="line" smooth="yes"/>
      <point x="366.025" y="1024"/>
      <point x="198.638" y="901.3"/>
      <point x="176" y="770" type="qcurve" smooth="yes"/>
      <point x="87" y="264" type="line" smooth="yes"/>
      <point x="62.8528" y="125.154"/>
      <point x="185.516" y="0"/>
      <point x="347" y="0" type="qcurve" smooth="yes"/>
      <point x="809" y="0" type="line" smooth="yes"/>
      <point x="836.166" y="0"/>
      <point x="877.172" y="14.4172"/>
      <point x="890" y="28" type="qcurve"/>
      <point x="820" y="-372" type="line"/>
      <point x="820" y="-372"/>
      <point x="820" y="-372"/>
      <point x="820" y="-372" type="qcurve"/>
      <point x="138" y="-372" type="line"/>
    </contour>
    <contour>
      <point x="847" y="1099" type="qcurve" smooth="yes"/>
      <point x="973.375" y="1099"/>
      <point x="1126.75" y="1137.59"/>
      <point x="1216.75" y="1223.66"/>
      <point x="1261.38" y="1361.62"/>
      <point x="1279" y="1461" type="qcurve"/>
      <point x="1014" y="1461" type="line"/>
      <point x="993.75" y="1347"/>
      <point x="961.688" y="1215.38"/>
      <point x="925.312" y="1148.62"/>
      <point x="878.25" y="1131"/>
      <point x="843" y="1131" type="qcurve" smooth="yes"/>
      <point x="806.625" y="1131"/>
      <point x="764.531" y="1148.62"/>
      <point x="751.219" y="1215.38"/>
      <point x="765.75" y="1347"/>
      <point x="786" y="1461" type="qcurve"/>
      <point x="521" y="1461" type="line"/>
      <point x="503.375" y="1361.62"/>
      <point x="506.062" y="1223.66"/>
      <point x="573.938" y="1137.59"/>
      <point x="720.625" y="1099"/>
    </contour>
  </outline>
  <guideline angle="0" x="0" y="988"/>
  <guideline angle="0" x="0" y="42"/>
</glyph>
<glyph name="itilde" format="2">
  <advance width="886"/>
  <unicode hex="0129"/>
  <anchor x="298" y="-150" name="bottom"/>
  <anchor x="590" y="1521" name="top"/>
  <anchor x="96" y="0" name="ogonek"/>
  <outline>
    <contour>
      <point x="62" y="0" type="line"/>
      <point x="586" y="0" type="line"/>
      <point x="765" y="1024" type="line"/>
      <point x="241" y="1024" type="line"/>
    </contour>
    <contour>
      <point x="157" y="1135" type="qcurve"/>
      <point x="186" y="1130" type="line"/>
      <point x="190.528" y="1145.85"/>
      <point x="232.387" y="1214"/>
      <point x="292" y="1214" type="qcurve" smooth="yes"/>
      <point x="328.375" y="1214"/>
      <point x="416" y="1184.31"/>
      <point x="509" y="1148.69"/>
      <point x="602.625" y="1119"/>
      <point x="645" y="1119" type="qcurve" smooth="yes"/>
      <point x="771" y="1119"/>
      <point x="891" y="1310.75"/>
      <point x="942" y="1448" type="qcurve"/>
      <point x="913" y="1453" type="line"/>
      <point x="908.472" y="1437.15"/>
      <point x="865.613" y="1369"/>
      <point x="806" y="1369" type="qcurve" smooth="yes"/>
      <point x="769.625" y="1369"/>
      <point x="682.312" y="1398.69"/>
      <point x="589.688" y="1434.31"/>
      <point x="496.375" y="1464"/>
      <point x="454" y="1464" type="qcurve" smooth="yes"/>
      <point x="328" y="1464"/>
      <point x="210.25" y="1284.25"/>
    </contour>
  </outline>
  <guideline angle="90" x="-32" y="0"/>
  <guideline angle="90" x="698" y="0"/>
  <guideline angle="90" x="668" y="0"/>
  <guideline angle="90" x="-2" y="0"/>
</glyph>
<glyph name="imacron" format="2">
  <advance width="886"/>
  <unicode hex="012B"/>
  <anchor x="298" y="-150" name="bottom"/>
  <anchor x="559" y="1344" name="top"/>
  <anchor x="96" y="0" name="ogonek"/>
  <outline>
    <contour>
      <point x="62" y="0" type="line"/>
      <point x="586" y="0" type="line"/>
      <point x="765" y="1024" type="line"/>
      <point x="241" y="1024" type="line"/>
    </contour>
    <contour>
      <point x="141" y="1212" type="line"/>
      <point x="931" y="1212" type="line"/>
      <point x="937" y="1244" type="line"/>
      <point x="147" y="1244" type="line"/>
    </contour>
  </outline>
</glyph>
<glyph name="Ibreve" format="2">
  <advance width="972"/>
  <unicode hex="012C"/>
  <anchor x="703" y="1926" name="top"/>
  <anchor x="340" y="-150" name="bottom"/>
  <anchor x="131" y="0" name="ogonek"/>
  <outline>
    <contour>
      <point x="83" y="0" type="line"/>
      <point x="655" y="0" type="line"/>
      <point x="899" y="1400" type="line"/>
      <point x="327" y="1400" type="line"/>
    </contour>
    <contour>
      <point x="633" y="1468" type="qcurve" smooth="yes"/>
      <point x="780.375" y="1468"/>
      <point x="957.812" y="1501.97"/>
      <point x="1060.19" y="1584.28"/>
      <point x="1108.62" y="1722.12"/>
      <point x="1127" y="1826" type="qcurve"/>
      <point x="801" y="1826" type="line"/>
      <point x="784.875" y="1735.25"/>
      <point x="756.062" y="1611.94"/>
      <point x="718.938" y="1536.56"/>
      <point x="667.625" y="1504"/>
      <point x="629" y="1504" type="qcurve" smooth="yes"/>
      <point x="592.625" y="1504"/>
      <point x="553.312" y="1536.56"/>
      <point x="541.688" y="1611.94"/>
      <point x="554.875" y="1735.25"/>
      <point x="571" y="1826" type="qcurve"/>
      <point x="245" y="1826" type="line"/>
      <point x="226.625" y="1722.12"/>
      <point x="233.312" y="1584.28"/>
      <point x="314.688" y="1501.97"/>
      <point x="486.375" y="1468"/>
    </contour>
  </outline>
</glyph>
<glyph name="uni0137" format="2">
  <advance width="1846"/>
  <unicode hex="0137"/>
  <anchor x="601" y="1598" name="top"/>
  <anchor x="732" y="-150" name="bottom"/>
  <anchor x="88" y="736" name="left"/>
  <outline>
    <contour>
      <point x="63" y="0" type="line"/>
      <point x="587" y="0" type="line"/>
      <point x="674" y="501" type="line"/>
      <point x="664" y="501" type="line"/>
      <point x="1019" y="0" type="line"/>
      <point x="1721" y="0" type="line"/>
      <point x="1148" y="772" type="line"/>
      <point x="1144" y="757" type="line"/>
      <point x="1778" y="1024" type="line"/>
      <point x="1698" y="1024" type="line"/>
      <point x="665" y="591" type="line"/>
      <point x="690" y="591" type="line"/>
      <point x="844" y="1472" type="line"/>
      <point x="320" y="1472" type="line"/>
    </contour>
    <contour>
      <point x="618" y="-709" type="line"/>
      <point x="857" y="-460" type="line" smooth="yes"/>
      <point x="869.074" y="-447.172"/>
      <point x="881.718" y="-410.166"/>
      <point x="887" y="-383" type="qcurve"/>
      <point x="915" y="-221" type="line" smooth="yes"/>
      <point x="925.564" y="-161.387"/>
      <point x="897.632" y="-128"/>
      <point x="835" y="-128" type="qcurve" smooth="yes"/>
      <point x="637" y="-128" type="line" smooth="yes"/>
      <point x="574.368" y="-128"/>
      <point x="533.564" y="-161.387"/>
      <point x="523" y="-221" type="qcurve" smooth="yes"/>
      <point x="495" y="-383" type="line" smooth="yes"/>
      <point x="483.681" y="-444.123"/>
      <point x="512.368" y="-478"/>
      <point x="575" y="-478" type="qcurve" smooth="yes"/>
      <point x="715" y="-478" type="line"/>
      <point x="601" y="-705" type="line"/>
    </contour>
  </outline>
</glyph>
<glyph name="kgreenlandic" format="2">
  <advance width="1845"/>
  <unicode hex="0138"/>
  <anchor x="1128" y="1150" name="top"/>
  <outline>
    <contour>
      <point x="62" y="0" type="line"/>
      <point x="586" y="0" type="line"/>
      <point x="666" y="459" type="line"/>
      <point x="1018" y="0" type="line"/>
      <point x="1720" y="0" type="line"/>
      <point x="1122" y="733" type="line"/>
      <point x="1777" y="1024" type="line"/>
      <point x="1700" y="1024" type="line"/>
      <point x="686" y="573" type="line"/>
      <point x="765" y="1024" type="line"/>
      <point x="241" y="1024" type="line"/>
    </contour>
  </outline>
  <guideline angle="90" x="254" y="0"/>
  <guideline angle="90" x="338" y="0"/>
</glyph>
<glyph name="lacute" format="2">
  <advance width="884"/>
  <unicode hex="013A"/>
  <anchor x="601" y="1598" name="top"/>
  <anchor x="296" y="-150" name="bottom"/>
  <anchor x="841" y="1472" name="right"/>
  <anchor x="886" y="700" name="eldot"/>
  <outline>
    <contour>
      <point x="60" y="0" type="line"/>
      <point x="584" y="0" type="line"/>
      <point x="841" y="1472" type="line"/>
      <point x="317" y="1472" type="line"/>
    </contour>
    <contour>
      <point x="397" y="1524" type="line"/>
      <point x="437" y="1524" type="line"/>
      <point x="1157" y="1872" type="line"/>
      <point x="559" y="1872" type="line"/>
    </contour>
  </outline>
</glyph>
<glyph name="Nacute" format="2">
  <advance width="1810"/>
  <unicode hex="0143"/>
  <anchor x="1056" y="1550" name="top"/>
  <anchor x="759" y="-150" name="bottom"/>
  <anchor x="895" y="1500" name="topright"/>
  <outline>
    <contour>
      <point x="83" y="0" type="line"/>
      <point x="119" y="0" type="line"/>
      <point x="271" y="870" type="line"/>
      <point x="1222" y="0" type="line"/>
      <point x="1493" y="0" type="line"/>
      <point x="1737" y="1400" type="line"/>
      <point x="1701" y="1400" type="line"/>
      <point x="1550" y="530" type="line"/>
      <point x="599" y="1400" type="line"/>
      <point x="327" y="1400" type="line"/>
    </contour>
    <contour>
      <point x="851" y="1500" type="line"/>
      <point x="895" y="1500" type="line"/>
      <point x="1596" y="1800" type="line"/>
      <point x="962" y="1800" type="line"/>
    </contour>
  </outline>
</glyph>
<glyph name="Ncaron" format="2">
  <advance width="1810"/>
  <unicode hex="0147"/>
  <anchor x="1114" y="1880" name="top"/>
  <anchor x="759" y="-150" name="bottom"/>
  <anchor x="622" y="1700" name="topright"/>
  <outline>
    <contour>
      <point x="83" y="0" type="line"/>
      <point x="119" y="0" type="line"/>
      <point x="271" y="870" type="line"/>
      <point x="1222" y="0" type="line"/>
      <point x="1493" y="0" type="line"/>
      <point x="1737" y="1400" type="line"/>
      <point x="1701" y="1400" type="line"/>
      <point x="1550" y="530" type="line"/>
      <point x="599" y="1400" type="line"/>
      <point x="327" y="1400" type="line"/>
    </contour>
    <contour>
      <point x="1535" y="1800" type="line"/>
      <point x="1476" y="1800" type="line"/>
      <point x="1234" y="1578" type="line"/>
      <point x="1100" y="1800" type="line"/>
      <point x="639" y="1800" type="line"/>
      <point x="869" y="1500" type="line"/>
      <point x="1207" y="1500" type="line"/>
    </contour>
  </outline>
</glyph>
<glyph name="eng" format="2">
  <advance width="1718"/>
  <unicode hex="014B"/>
  <anchor x="1249" y="1174" name="top"/>
  <anchor x="714" y="-150" name="bottom"/>
  <outline>
    <contour>
      <point x="62" y="0" type="line"/>
      <point x="586" y="0" type="line"/>
      <point x="759" y="992" type="line"/>
      <point x="1067" y="992" type="line"/>
      <point x="1067" y="992"/>
      <point x="1067" y="992"/>
      <point x="1067" y="992" type="qcurve"/>
      <point x="825" y="-396" type="line"/>
      <point x="825" y="-396"/>
      <point x="825" y="-396"/>
      <point x="825" y="-396" type="qcurve"/>
      <point x="511" y="-396" type="line"/>
      <point x="511" y="-428" type="line"/>
      <point x="1083" y="-428" type="line" smooth="yes"/>
      <point x="1141.5" y="-428"/>
      <point x="1245.62" y="-381.25"/>
      <point x="1328.88" y="-295.75"/>
      <point x="1387.25" y="-175.5"/>
      <point x="1400" y="-102" type="qcurve" smooth="yes"/>
      <point x="1544" y="724" type="line" smooth="yes"/>
      <point x="1571" y="878.5"/>
      <point x="1426" y="1024"/>
      <point x="1231" y="1024" type="qcurve" smooth="yes"/>
      <point x="841" y="1024" type="line" smooth="yes"/>
      <point x="813.834" y="1024"/>
      <point x="772.828" y="1009.58"/>
      <point x="760" y="996" type="qcurve"/>
      <point x="765" y="1024" type="line"/>
      <point x="241" y="1024" type="line"/>
    </contour>
  </outline>
  <guideline angle="260.1" color="1,0,0,1" x="740" y="0"/>
  <guideline angle="260.1" color="1,0,0,1" x="324" y="0"/>
</glyph>
<glyph name="Scircumflex" format="2">
  <advance width="1861"/>
  <unicode hex="015C"/>
  <anchor x="1132" y="1866" name="top"/>
  <anchor x="777" y="-160" name="bottom"/>
  <anchor x="1597" y="1586" name="topright"/>
  <outline>
    <contour>
      <point x="71" y="410" type="line"/>
      <point x="57" y="332" type="line" smooth="yes"/>
      <point x="38.625" y="226.25"/>
      <point x="71.9688" y="92.9375"/>
      <point x="164.781" y="17.5625"/>
      <point x="311.75" y="-10"/>
      <point x="407" y="-10" type="qcurve" smooth="yes"/>
      <point x="1203" y="-10" type="line" smooth="yes"/>
      <point x="1395" y="-10"/>
      <point x="1638.25" y="121"/>
      <point x="1675" y="334" type="qcurve" smooth="yes"/>
      <point x="1686" y="398" type="line" smooth="yes"/>
      <point x="1704.38" y="501.5"/>
      <point x="1666.97" y="629.875"/>
      <point x="1570.78" y="701.125"/>
      <point x="1423.5" y="726"/>
      <point x="1332" y="726" type="qcurve" smooth="yes"/>
      <point x="702" y="726" type="line"/>
      <point x="702" y="726"/>
      <point x="702" y="726"/>
      <point x="702" y="726" type="qcurve"/>
      <point x="815" y="1374" type="line"/>
      <point x="815" y="1374"/>
      <point x="815" y="1374"/>
      <point x="815" y="1374" type="qcurve"/>
      <point x="1291" y="1374" type="line"/>
      <point x="1291" y="1374"/>
      <point x="1291" y="1374"/>
      <point x="1291" y="1374" type="qcurve"/>
      <point x="1218" y="958" type="line"/>
      <point x="1773" y="1008" type="line"/>
      <point x="1786" y="1082" type="line" smooth="yes"/>
      <point x="1804" y="1184.75"/>
      <point x="1766.81" y="1312.94"/>
      <point x="1671.19" y="1384.56"/>
      <point x="1524.5" y="1410"/>
      <point x="1433" y="1410" type="qcurve" smooth="yes"/>
      <point x="691" y="1410" type="line" smooth="yes"/>
      <point x="599.5" y="1410"/>
      <point x="442" y="1383.88"/>
      <point x="319" y="1311.12"/>
      <point x="235" y="1181.5"/>
      <point x="217" y="1078" type="qcurve" smooth="yes"/>
      <point x="209" y="1034" type="line" smooth="yes"/>
      <point x="190.625" y="928.25"/>
      <point x="223.344" y="794.312"/>
      <point x="315.406" y="718.188"/>
      <point x="461.75" y="690"/>
      <point x="557" y="690" type="qcurve" smooth="yes"/>
      <point x="1191" y="690" type="line"/>
      <point x="1191" y="690"/>
      <point x="1191" y="690"/>
      <point x="1191" y="690" type="qcurve"/>
      <point x="1076" y="26" type="line"/>
      <point x="1076" y="26"/>
      <point x="1076" y="26"/>
      <point x="1076" y="26" type="qcurve"/>
      <point x="550" y="26" type="line"/>
      <point x="550" y="26"/>
      <point x="550" y="26"/>
      <point x="550" y="26" type="qcurve"/>
      <point x="626" y="462" type="line"/>
    </contour>
    <contour>
      <point x="684" y="1486" type="line"/>
      <point x="743" y="1486" type="line"/>
      <point x="985" y="1708" type="line"/>
      <point x="1119" y="1486" type="line"/>
      <point x="1580" y="1486" type="line"/>
      <point x="1350" y="1786" type="line"/>
      <point x="1012" y="1786" type="line"/>
    </contour>
  </outline>
</glyph>
<glyph name="Tcaron" format="2">
  <advance width="1534"/>
  <unicode hex="0164"/>
  <anchor x="979" y="1880" name="top"/>
  <anchor x="624" y="-150" name="bottom"/>
  <anchor x="487" y="1700" name="topright"/>
  <outline>
    <contour>
      <point x="364" y="0" type="line"/>
      <point x="936" y="0" type="line"/>
      <point x="1174" y="1364" type="line"/>
      <point x="1650" y="1364" type="line"/>
      <point x="1656" y="1400" type="line"/>
      <point x="132" y="1400" type="line"/>
      <point x="126" y="1364" type="line"/>
      <point x="602" y="1364" type="line"/>
    </contour>
    <contour>
      <point x="1400" y="1800" type="line"/>
      <point x="1341" y="1800" type="line"/>
      <point x="1099" y="1578" type="line"/>
      <point x="965" y="1800" type="line"/>
      <point x="504" y="1800" type="line"/>
      <point x="734" y="1500" type="line"/>
      <point x="1072" y="1500" type="line"/>
    </contour>
  </outline>
</glyph>
<glyph name="Uhungarumlaut" format="2">
  <advance width="1971"/>
  <unicode hex="0170"/>
  <anchor x="1138" y="1550" name="top"/>
  <anchor x="841" y="-150" name="bottom"/>
  <anchor x="893" y="0" name="ogonek"/>
  <anchor x="1908" y="1400" name="horn"/>
  <anchor x="1449.3" y="1500" name="topright"/>
  <outline>
    <contour>
      <point x="316" y="1400" type="line"/>
      <point x="130" y="333" type="line" smooth="yes"/>
      <point x="111.625" y="226.875"/>
      <point x="144.969" y="93.1562"/>
      <point x="237.781" y="17.5938"/>
      <point x="384.75" y="-10"/>
      <point x="480" y="-10" type="qcurve" smooth="yes"/>
      <point x="1252" y="-10" type="line" smooth="yes"/>
      <point x="1444.75" y="-10"/>
      <point x="1687.25" y="120.75"/>
      <point x="1724" y="333" type="qcurve" smooth="yes"/>
      <point x="1910" y="1400" type="line"/>
      <point x="1338" y="1400" type="line"/>
      <point x="1099" y="26" type="line"/>
      <point x="1099" y="26"/>
      <point x="1099" y="26"/>
      <point x="1099" y="26" type="qcurve"/>
      <point x="649" y="26" type="line"/>
      <point x="649" y="26"/>
      <point x="649" y="26"/>
      <point x="649" y="26" type="qcurve"/>
      <point x="888" y="1400" type="line"/>
    </contour>
    <contour>
      <point x="791.9" y="1500" type="line"/>
      <point x="829.3" y="1500" type="line"/>
      <point x="1425.15" y="1800" type="line"/>
      <point x="886.25" y="1800" type="line"/>
    </contour>
    <contour>
      <point x="1411.9" y="1500" type="line"/>
      <point x="1449.3" y="1500" type="line"/>
      <point x="2045.15" y="1800" type="line"/>
      <point x="1506.25" y="1800" type="line"/>
    </contour>
  </outline>
</glyph>
<glyph name="Uogonek" format="2">
  <advance width="1972"/>
  <unicode hex="0172"/>
  <anchor x="1138" y="1550" name="top"/>
  <anchor x="841" y="-150" name="bottom"/>
  <anchor x="893" y="0" name="ogonek"/>
  <anchor x="1908" y="1400" name="horn"/>
  <outline>
    <contour>
      <point x="316" y="1400" type="line"/>
      <point x="130" y="333" type="line" smooth="yes"/>
      <point x="111.625" y="226.875"/>
      <point x="144.969" y="93.1562"/>
      <point x="237.781" y="17.5938"/>
      <point x="384.75" y="-10"/>
      <point x="480" y="-10" type="qcurve" smooth="yes"/>
      <point x="1252" y="-10" type="line" smooth="yes"/>
      <point x="1444.75" y="-10"/>
      <point x="1687.25" y="120.75"/>
      <point x="1724" y="333" type="qcurve" smooth="yes"/>
      <point x="1910" y="1400" type="line"/>
      <point x="1338" y="1400" type="line"/>
      <point x="1099" y="26" type="line"/>
      <point x="1099" y="26"/>
      <point x="1099" y="26"/>
      <point x="1099" y="26" type="qcurve"/>
      <point x="649" y="26" type="line"/>
      <point x="649" y="26"/>
      <point x="649" y="26"/>
      <point x="649" y="26" type="qcurve"/>
      <point x="888" y="1400" type="line"/>
    </contour>
    <contour>
      <point x="934.249" y="-438" type="qcurve" smooth="yes"/>
      <point x="989.068" y="-438"/>
      <point x="1083.93" y="-419.62"/>
      <point x="1136" y="-400" type="qcurve"/>
      <point x="1248" y="-154" type="line"/>
      <point x="1205.74" y="-171.356"/>
      <point x="1102.07" y="-190"/>
      <point x="1046.95" y="-190" type="qcurve" smooth="yes"/>
      <point x="928.514" y="-190"/>
      <point x="832.658" y="-115.29"/>
      <point x="840.833" y="-70.0573" type="qcurve" smooth="yes"/>
      <point x="843.977" y="-52.6583"/>
      <point x="868.098" y="-16.6012"/>
      <point x="893" y="0" type="qcurve"/>
      <point x="842" y="0" type="line"/>
      <point x="796.724" y="-51.3128"/>
      <point x="687.276" y="-174.442"/>
      <point x="642" y="-225" type="qcurve"/>
      <point x="626.153" y="-317.061"/>
      <point x="793.627" y="-438"/>
    </contour>
  </outline>
</glyph>
<glyph name="Wcircumflex" format="2">
  <advance width="2602"/>
  <unicode hex="0174"/>
  <anchor x="1301" y="-150" name="bottom"/>
  <anchor x="1508" y="1550" name="top"/>
  <anchor x="1973" y="1576" name="topright"/>
  <outline>
    <contour>
      <point x="425" y="0" type="line"/>
      <point x="799" y="0" type="line"/>
      <point x="1393" y="1092" type="line"/>
      <point x="1593" y="0" type="line"/>
      <point x="1967" y="0" type="line"/>
      <point x="2729" y="1400" type="line"/>
      <point x="2689" y="1400" type="line"/>
      <point x="2096" y="307" type="line"/>
      <point x="1906" y="1400" type="line"/>
      <point x="1521" y="1400" type="line"/>
      <point x="927" y="305" type="line"/>
      <point x="706" y="1400" type="line"/>
      <point x="127" y="1400" type="line"/>
    </contour>
    <contour>
      <point x="1060" y="1476" type="line"/>
      <point x="1119" y="1476" type="line"/>
      <point x="1361" y="1698" type="line"/>
      <point x="1495" y="1476" type="line"/>
      <point x="1956" y="1476" type="line"/>
      <point x="1726" y="1776" type="line"/>
      <point x="1388" y="1776" type="line"/>
    </contour>
  </outline>
</glyph>
<glyph name="Ycircumflex" format="2">
  <advance width="1898"/>
  <unicode hex="0176"/>
  <anchor x="1401" y="1856" name="top"/>
  <anchor x="852" y="-149" name="bottom"/>
  <anchor x="1866" y="1576" name="topright"/>
  <outline>
    <contour>
      <point x="592" y="1" type="line"/>
      <point x="1164" y="1" type="line"/>
      <point x="1277" y="649" type="line"/>
      <point x="2024" y="1400" type="line"/>
      <point x="1978" y="1400" type="line"/>
      <point x="1262" y="686" type="line"/>
      <point x="800" y="1400" type="line"/>
      <point x="127" y="1400" type="line"/>
      <point x="690" y="562" type="line"/>
    </contour>
    <contour>
      <point x="953" y="1476" type="line"/>
      <point x="1012" y="1476" type="line"/>
      <point x="1254" y="1698" type="line"/>
      <point x="1388" y="1476" type="line"/>
      <point x="1849" y="1476" type="line"/>
      <point x="1619" y="1776" type="line"/>
      <point x="1281" y="1776" type="line"/>
    </contour>
  </outline>
  <guideline angle="260.1" color="1,0,0,1" x="944" y="-0"/>
</glyph>
<glyph name="zcaron" format="2">
  <advance width="1387"/>
  <unicode hex="017E"/>
  <anchor x="851" y="1572" name="top"/>
  <anchor x="548" y="-150" name="bottom"/>
  <anchor x="353" y="1298" name="topright"/>
  <outline>
    <contour>
      <point x="-35" y="0" type="line"/>
      <point x="1184" y="0" type="line"/>
      <point x="1189" y="32" type="line"/>
      <point x="530" y="32" type="line"/>
      <point x="534" y="23" type="line"/>
      <point x="1354" y="1008" type="line"/>
      <point x="1356" y="1024" type="line"/>
      <point x="204" y="1024" type="line"/>
      <point x="199" y="992" type="line"/>
      <point x="791" y="992" type="line"/>
      <point x="787" y="1001" type="line"/>
      <point x="-33" y="16" type="line"/>
    </contour>
    <contour>
      <point x="1235" y="1472" type="line"/>
      <point x="1192" y="1472" type="line"/>
      <point x="934" y="1158" type="line"/>
      <point x="801" y="1472" type="line"/>
      <point x="384" y="1472" type="line"/>
      <point x="619" y="1124" type="line"/>
      <point x="944" y="1124" type="line"/>
    </contour>
  </outline>
</glyph>
<glyph name="uni0190" format="2">
  <advance width="1875"/>
  <unicode hex="0190"/>
  <outline>
    <contour>
      <point x="423" y="0" type="qcurve" smooth="yes"/>
      <point x="1229" y="0" type="line" smooth="yes"/>
      <point x="1416.14" y="0"/>
      <point x="1642.06" y="141.914"/>
      <point x="1673" y="320" type="qcurve" smooth="yes"/>
      <point x="1688" y="406" type="line"/>
      <point x="1230" y="490" type="line"/>
      <point x="1151" y="36" type="line"/>
      <point x="1151" y="36"/>
      <point x="1151" y="36"/>
      <point x="1151" y="36" type="qcurve"/>
      <point x="820" y="36" type="line" smooth="yes"/>
      <point x="715.111" y="36"/>
      <point x="605.399" y="139.411"/>
      <point x="622" y="236" type="qcurve" smooth="yes"/>
      <point x="668" y="500" type="line" smooth="yes"/>
      <point x="683.847" y="590.552"/>
      <point x="820.546" y="700"/>
      <point x="936" y="700" type="qcurve" smooth="yes"/>
      <point x="1327" y="700" type="line"/>
      <point x="1333" y="736" type="line"/>
      <point x="947" y="736" type="line" smooth="yes"/>
      <point x="831.546" y="736"/>
      <point x="733.153" y="845.448"/>
      <point x="749" y="936" type="qcurve" smooth="yes"/>
      <point x="789" y="1164" type="line" smooth="yes"/>
      <point x="807.865" y="1272.66"/>
      <point x="943.055" y="1364"/>
      <point x="1057" y="1364" type="qcurve" smooth="yes"/>
      <point x="1368" y="1364" type="line"/>
      <point x="1368" y="1364"/>
      <point x="1368" y="1364"/>
      <point x="1368" y="1364" type="qcurve"/>
      <point x="1293" y="936" type="line"/>
      <point x="1780" y="1020" type="line"/>
      <point x="1792" y="1092" type="line" smooth="yes"/>
      <point x="1819.92" y="1248.96"/>
      <point x="1615.37" y="1400"/>
      <point x="1432" y="1400" type="qcurve" smooth="yes"/>
      <point x="672" y="1400" type="line" smooth="yes"/>
      <point x="474.295" y="1400"/>
      <point x="232.448" y="1253.14"/>
      <point x="200" y="1066" type="qcurve" smooth="yes"/>
      <point x="194" y="1034" type="line" smooth="yes"/>
      <point x="169.098" y="890.626"/>
      <point x="270.902" y="746.411"/>
      <point x="369" y="720" type="qcurve"/>
      <point x="254.301" y="695.098"/>
      <point x="105.411" y="551.411"/>
      <point x="79" y="402" type="qcurve" smooth="yes"/>
      <point x="67" y="334" type="line" smooth="yes"/>
      <point x="38.3252" y="169.497"/>
      <point x="238.123" y="0"/>
    </contour>
  </outline>
</glyph>
<glyph name="florin" format="2">
  <advance width="1377"/>
  <unicode hex="0192"/>
  <outline>
    <contour>
      <point x="-195" y="-428" type="line"/>
      <point x="329" y="-428" type="line" smooth="yes"/>
      <point x="387.5" y="-428"/>
      <point x="499.875" y="-381.25"/>
      <point x="598.125" y="-295.75"/>
      <point x="677.5" y="-175.5"/>
      <point x="703" y="-102" type="qcurve" smooth="yes"/>
      <point x="1023" y="808" type="line"/>
      <point x="1233" y="808" type="line"/>
      <point x="1244" y="840" type="line"/>
      <point x="1034" y="840" type="line"/>
      <point x="1244" y="1440" type="line"/>
      <point x="1244" y="1440"/>
      <point x="1244" y="1440"/>
      <point x="1244" y="1440" type="qcurve"/>
      <point x="1494" y="1440" type="line"/>
      <point x="1516" y="1472" type="line"/>
      <point x="1046" y="1472" type="line" smooth="yes"/>
      <point x="890.552" y="1472"/>
      <point x="683.086" y="1332.96"/>
      <point x="628" y="1176" type="qcurve" smooth="yes"/>
      <point x="510" y="840" type="line"/>
      <point x="368" y="840" type="line"/>
      <point x="357" y="808" type="line"/>
      <point x="499" y="808" type="line"/>
      <point x="76" y="-396" type="line"/>
      <point x="76" y="-396"/>
      <point x="76" y="-396"/>
      <point x="76" y="-396" type="qcurve"/>
      <point x="-174" y="-396" type="line"/>
    </contour>
  </outline>
</glyph>
<glyph name="uni01C4" format="2">
  <advance width="3699"/>
  <unicode hex="01C4"/>
  <anchor x="3137" y="1880" name="top"/>
  <anchor x="2767" y="-150" name="bottom"/>
  <anchor x="2645" y="1700" name="topright"/>
  <outline>
    <contour>
      <point x="661" y="36" type="line"/>
      <point x="893" y="1364" type="line"/>
      <point x="1126" y="1364" type="line" smooth="yes"/>
      <point x="1229.88" y="1364"/>
      <point x="1362.31" y="1295.66"/>
      <point x="1425.69" y="1142.09"/>
      <point x="1423.12" y="894.875"/>
      <point x="1392" y="716" type="qcurve" smooth="yes"/>
      <point x="1360.12" y="534.125"/>
      <point x="1275.56" y="276.156"/>
      <point x="1157.44" y="112.094"/>
      <point x="999.375" y="36"/>
      <point x="894" y="36" type="qcurve" smooth="yes"/>
    </contour>
    <contour>
      <point x="83" y="0" type="line"/>
      <point x="1098" y="0" type="line" smooth="yes"/>
      <point x="1251.75" y="0"/>
      <point x="1530.44" y="60.375"/>
      <point x="1755.06" y="208.125"/>
      <point x="1913" y="456.75"/>
      <point x="1946" y="645" type="qcurve" smooth="yes"/>
      <point x="1976.75" y="822"/>
      <point x="1923.09" y="1102.19"/>
      <point x="1766.16" y="1296.81"/>
      <point x="1511.88" y="1400"/>
      <point x="1342" y="1400" type="qcurve" smooth="yes"/>
      <point x="327" y="1400" type="line"/>
    </contour>
    <contour>
      <point x="2026" y="0" type="line"/>
      <point x="3510" y="0" type="line"/>
      <point x="3516" y="36" type="line"/>
      <point x="2655" y="36" type="line"/>
      <point x="2660" y="27" type="line"/>
      <point x="3739" y="1382" type="line"/>
      <point x="3742" y="1400" type="line"/>
      <point x="2364" y="1400" type="line"/>
      <point x="2357" y="1364" type="line"/>
      <point x="3113" y="1364" type="line"/>
      <point x="3108" y="1373" type="line"/>
      <point x="2029" y="18" type="line"/>
    </contour>
    <contour>
      <point x="3558" y="1800" type="line"/>
      <point x="3499" y="1800" type="line"/>
      <point x="3257" y="1578" type="line"/>
      <point x="3123" y="1800" type="line"/>
      <point x="2662" y="1800" type="line"/>
      <point x="2892" y="1500" type="line"/>
      <point x="3230" y="1500" type="line"/>
    </contour>
  </outline>
</glyph>
<glyph name="uni01CC" format="2">
  <advance width="2499"/>
  <unicode hex="01CC"/>
  <anchor x="2154" y="1174" name="top"/>
  <anchor x="666" y="-150" name="bottom"/>
  <outline>
    <contour>
      <point x="59" y="0" type="line"/>
      <point x="583" y="0" type="line"/>
      <point x="756" y="992" type="line"/>
      <point x="974" y="992" type="line"/>
      <point x="974" y="992"/>
      <point x="974" y="992"/>
      <point x="974" y="992" type="qcurve"/>
      <point x="801" y="0" type="line"/>
      <point x="1325" y="0" type="line"/>
      <point x="1451" y="724" type="line" smooth="yes"/>
      <point x="1478" y="878.5"/>
      <point x="1333" y="1024"/>
      <point x="1138" y="1024" type="qcurve" smooth="yes"/>
      <point x="838" y="1024" type="line" smooth="yes"/>
      <point x="810.834" y="1024"/>
      <point x="769.828" y="1009.58"/>
      <point x="757" y="996" type="qcurve"/>
      <point x="762" y="1024" type="line"/>
      <point x="238" y="1024" type="line"/>
    </contour>
    <contour>
      <point x="1006" y="-396" type="line"/>
      <point x="1006" y="-428" type="line"/>
      <point x="1876" y="-428" type="line" smooth="yes"/>
      <point x="1934.5" y="-428"/>
      <point x="2038.62" y="-381.25"/>
      <point x="2121.88" y="-295.75"/>
      <point x="2180.25" y="-175.5"/>
      <point x="2193" y="-102" type="qcurve" smooth="yes"/>
      <point x="2390" y="1024" type="line"/>
      <point x="1866" y="1024" type="line"/>
      <point x="1618" y="-396" type="line"/>
      <point x="1618" y="-396"/>
      <point x="1618" y="-396"/>
      <point x="1618" y="-396" type="qcurve"/>
    </contour>
    <contour>
      <point x="1889" y="1232" type="line" smooth="yes"/>
      <point x="1874.66" y="1150.5"/>
      <point x="1898.5" y="1122"/>
      <point x="1980" y="1122" type="qcurve" smooth="yes"/>
      <point x="2312" y="1122" type="line" smooth="yes"/>
      <point x="2393.5" y="1122"/>
      <point x="2426.66" y="1150.5"/>
      <point x="2441" y="1232" type="qcurve" smooth="yes"/>
      <point x="2464" y="1364" type="line" smooth="yes"/>
      <point x="2478.34" y="1443.99"/>
      <point x="2454.5" y="1472"/>
      <point x="2373" y="1472" type="qcurve" smooth="yes"/>
      <point x="2041" y="1472" type="line" smooth="yes"/>
      <point x="1959.5" y="1472"/>
      <point x="1926.34" y="1443.99"/>
      <point x="1912" y="1364" type="qcurve" smooth="yes"/>
    </contour>
  </outline>
  <guideline angle="0" x="0" y="988"/>
  <guideline angle="0" x="0" y="870"/>
</glyph>
<glyph name="aringacute" format="2">
  <advance width="1681"/>
  <unicode hex="01FB"/>
  <anchor x="924" y="1174" name="top"/>
  <anchor x="686" y="-150" name="bottom"/>
  <anchor x="902" y="0" name="ogonek"/>
  <outline>
    <contour>
      <point x="327" y="0" type="qcurve" smooth="yes"/>
      <point x="791" y="0" type="line" smooth="yes"/>
      <point x="818.166" y="0"/>
      <point x="859.172" y="14.4172"/>
      <point x="872" y="28" type="qcurve"/>
      <point x="867" y="0" type="line"/>
      <point x="1391" y="0" type="line"/>
      <point x="1523" y="754" type="line" smooth="yes"/>
      <point x="1552.43" y="923.03"/>
      <point x="1407.81" y="1030"/>
      <point x="1275" y="1030" type="qcurve" smooth="yes"/>
      <point x="541" y="1030" type="line" smooth="yes"/>
      <point x="408.19" y="1030"/>
      <point x="225.411" y="919.411"/>
      <point x="199" y="770" type="qcurve"/>
      <point x="197" y="756" type="line"/>
      <point x="704" y="661" type="line"/>
      <point x="763" y="998" type="line"/>
      <point x="763" y="998"/>
      <point x="763" y="998"/>
      <point x="763" y="998" type="qcurve"/>
      <point x="1041" y="998" type="line"/>
      <point x="1041" y="998"/>
      <point x="1041" y="998"/>
      <point x="1041" y="998" type="qcurve"/>
      <point x="966" y="566" type="line"/>
      <point x="426" y="566" type="line" smooth="yes"/>
      <point x="303" y="566"/>
      <point x="112.5" y="467.5"/>
      <point x="87" y="322" type="qcurve" smooth="yes"/>
      <point x="75" y="254" type="line" smooth="yes"/>
      <point x="49.3436" y="104.589"/>
      <point x="203.246" y="0"/>
    </contour>
    <contour>
      <point x="571" y="32" type="qcurve"/>
      <point x="658" y="534" type="line"/>
      <point x="658" y="534"/>
      <point x="658" y="534"/>
      <point x="658" y="534" type="qcurve"/>
      <point x="960" y="534" type="line"/>
      <point x="873" y="32" type="line"/>
      <point x="571" y="32" type="line"/>
      <point x="571" y="32"/>
      <point x="571" y="32"/>
    </contour>
    <contour>
      <point x="672" y="1249" type="qcurve" smooth="yes"/>
      <point x="663" y="1197.62"/>
      <point x="672.938" y="1133.84"/>
      <point x="726.562" y="1098.41"/>
      <point x="831.75" y="1086"/>
      <point x="918" y="1086" type="qcurve" smooth="yes"/>
      <point x="1004.25" y="1086"/>
      <point x="1113.44" y="1098.41"/>
      <point x="1179.06" y="1133.84"/>
      <point x="1211" y="1197.62"/>
      <point x="1220" y="1249" type="qcurve" smooth="yes"/>
      <point x="1229" y="1300.38"/>
      <point x="1219.06" y="1364.16"/>
      <point x="1165.44" y="1399.59"/>
      <point x="1060.25" y="1412"/>
      <point x="974" y="1412" type="qcurve" smooth="yes"/>
      <point x="887.75" y="1412"/>
      <point x="778.562" y="1399.59"/>
      <point x="712.938" y="1364.16"/>
      <point x="681" y="1300.38"/>
    </contour>
    <contour>
      <point x="889" y="1264" type="qcurve" smooth="yes"/>
      <point x="901.828" y="1337.95"/>
      <point x="933.025" y="1384"/>
      <point x="970" y="1384" type="qcurve" smooth="yes"/>
      <point x="1006.98" y="1384"/>
      <point x="1021.83" y="1337.95"/>
      <point x="1009" y="1264" type="qcurve" smooth="yes"/>
      <point x="990.89" y="1159.87"/>
      <point x="963.503" y="1114"/>
      <point x="922" y="1114" type="qcurve" smooth="yes"/>
      <point x="880.497" y="1114"/>
      <point x="870.89" y="1159.87"/>
    </contour>
    <contour>
      <point x="1003" y="1472" type="line"/>
      <point x="1462" y="1698" type="line"/>
      <point x="1041" y="1698" type="line"/>
      <point x="967" y="1472" type="line"/>
    </contour>
  </outline>
  <guideline angle="260.1" color="1,0,0,1" x="848" y="-0"/>
</glyph>
<glyph name="uni0207" format="2">
  <advance width="1651"/>
  <unicode hex="0207"/>
  <anchor x="910" y="1174" name="top"/>
  <anchor x="679" y="-150" name="bottom"/>
  <anchor x="952" y="-6" name="ogonek"/>
  <outline>
    <contour>
      <point x="94" y="304" type="line" smooth="yes"/>
      <point x="66.0798" y="141.006"/>
      <point x="220.675" y="-6"/>
      <point x="438" y="-6" type="qcurve" smooth="yes"/>
      <point x="954" y="-6" type="line" smooth="yes"/>
      <point x="1171.32" y="-6"/>
      <point x="1393.83" y="118.062"/>
      <point x="1421" y="272" type="qcurve"/>
      <point x="1423" y="282" type="line"/>
      <point x="934" y="368" type="line"/>
      <point x="874" y="26" type="line"/>
      <point x="874" y="26"/>
      <point x="874" y="26"/>
      <point x="874" y="26" type="qcurve"/>
      <point x="550" y="26" type="line"/>
      <point x="550" y="26"/>
      <point x="550" y="26"/>
      <point x="550" y="26" type="qcurve"/>
      <point x="636" y="518" type="line"/>
      <point x="1464" y="518" type="line"/>
      <point x="1501" y="730" type="line" smooth="yes"/>
      <point x="1528.17" y="888.466"/>
      <point x="1352.32" y="1030"/>
      <point x="1135" y="1030" type="qcurve" smooth="yes"/>
      <point x="619" y="1030" type="line" smooth="yes"/>
      <point x="403.184" y="1030"/>
      <point x="196.166" y="886.957"/>
      <point x="169" y="730" type="qcurve" smooth="yes"/>
    </contour>
    <contour>
      <point x="641" y="550" type="line"/>
      <point x="720" y="998" type="line"/>
      <point x="720" y="998"/>
      <point x="720" y="998"/>
      <point x="720" y="998" type="qcurve"/>
      <point x="1044" y="998" type="line"/>
      <point x="1044" y="998"/>
      <point x="1044" y="998"/>
      <point x="1044" y="998" type="qcurve"/>
      <point x="965" y="550" type="line"/>
    </contour>
    <contour>
      <point x="971.383" y="1461" type="qcurve" smooth="yes"/>
      <point x="845.008" y="1461"/>
      <point x="684.708" y="1422.41"/>
      <point x="586.479" y="1336.34"/>
      <point x="535.13" y="1198.38"/>
      <point x="517.705" y="1099" type="qcurve"/>
      <point x="782.705" y="1099" type="line"/>
      <point x="802.663" y="1213"/>
      <point x="834.556" y="1344.62"/>
      <point x="871.411" y="1411.38"/>
      <point x="919.721" y="1429"/>
      <point x="956.096" y="1429" type="qcurve" smooth="yes"/>
      <point x="991.346" y="1429"/>
      <point x="1032.19" y="1411.38"/>
      <point x="1045.02" y="1344.62"/>
      <point x="1030.66" y="1213"/>
      <point x="1010.71" y="1099" type="qcurve"/>
      <point x="1275.71" y="1099" type="line"/>
      <point x="1293.13" y="1198.38"/>
      <point x="1297.17" y="1336.34"/>
      <point x="1237.52" y="1422.41"/>
      <point x="1097.76" y="1461"/>
    </contour>
  </outline>
  <guideline angle="0" color="1,0,0,1" x="0" y="-1030"/>
</glyph>
<glyph name="uni0219" format="2">
  <advance width="1600"/>
  <unicode hex="0219"/>
  <anchor x="884" y="1174" name="top"/>
  <anchor x="651" y="-150" name="bottom"/>
  <outline>
    <contour>
      <point x="76" y="258" type="line"/>
      <point x="71" y="232" type="line" smooth="yes"/>
      <point x="47.6074" y="94.6628"/>
      <point x="190.117" y="-10"/>
      <point x="335" y="-10" type="qcurve" smooth="yes"/>
      <point x="1023" y="-10" type="line" smooth="yes"/>
      <point x="1169.39" y="-10"/>
      <point x="1349.08" y="92.0248"/>
      <point x="1377" y="252" type="qcurve" smooth="yes"/>
      <point x="1382" y="280" type="line" smooth="yes"/>
      <point x="1409.17" y="436.957"/>
      <point x="1258.36" y="532"/>
      <point x="1118" y="532" type="qcurve" smooth="yes"/>
      <point x="680" y="532" type="line"/>
      <point x="680" y="532"/>
      <point x="680" y="532"/>
      <point x="680" y="532" type="qcurve"/>
      <point x="762" y="1002" type="line"/>
      <point x="762" y="1002"/>
      <point x="762" y="1002"/>
      <point x="762" y="1002" type="qcurve"/>
      <point x="956" y="1002" type="line"/>
      <point x="956" y="1002"/>
      <point x="956" y="1002"/>
      <point x="956" y="1002" type="qcurve"/>
      <point x="902" y="691" type="line"/>
      <point x="1450" y="772" type="line"/>
      <point x="1455" y="802" type="line" smooth="yes"/>
      <point x="1474.62" y="919.718"/>
      <point x="1349.81" y="1034"/>
      <point x="1217" y="1034" type="qcurve" smooth="yes"/>
      <point x="575" y="1034" type="line" smooth="yes"/>
      <point x="435.5" y="1034"/>
      <point x="204" y="922.5"/>
      <point x="177" y="768" type="qcurve" smooth="yes"/>
      <point x="175" y="756" type="line" smooth="yes"/>
      <point x="151.607" y="621.681"/>
      <point x="291.117" y="500"/>
      <point x="436" y="500" type="qcurve" smooth="yes"/>
      <point x="876" y="500" type="line"/>
      <point x="876" y="500"/>
      <point x="876" y="500"/>
      <point x="876" y="500" type="qcurve"/>
      <point x="793" y="22" type="line"/>
      <point x="793" y="22"/>
      <point x="793" y="22"/>
      <point x="793" y="22" type="qcurve"/>
      <point x="569" y="22" type="line"/>
      <point x="569" y="22"/>
      <point x="569" y="22"/>
      <point x="569" y="22" type="qcurve"/>
      <point x="624" y="339" type="line"/>
    </contour>
    <contour>
      <point x="537" y="-709" type="line"/>
      <point x="776" y="-460" type="line" smooth="yes"/>
      <point x="788.074" y="-447.172"/>
      <point x="800.718" y="-410.166"/>
      <point x="806" y="-383" type="qcurve"/>
      <point x="834" y="-221" type="line" smooth="yes"/>
      <point x="844.564" y="-161.387"/>
      <point x="816.632" y="-128"/>
      <point x="754" y="-128" type="qcurve" smooth="yes"/>
      <point x="556" y="-128" type="line" smooth="yes"/>
      <point x="493.368" y="-128"/>
      <point x="452.564" y="-161.387"/>
      <point x="442" y="-221" type="qcurve" smooth="yes"/>
      <point x="414" y="-383" type="line" smooth="yes"/>
      <point x="402.681" y="-444.123"/>
      <point x="431.368" y="-478"/>
      <point x="494" y="-478" type="qcurve" smooth="yes"/>
      <point x="634" y="-478" type="line"/>
      <point x="520" y="-705" type="line"/>
    </contour>
  </outline>
</glyph>
<glyph name="uni022A" format="2">
  <advance width="2098"/>
  <unicode hex="022A"/>
  <anchor x="1305" y="2086" name="top"/>
  <anchor x="913" y="-160" name="bottom"/>
  <anchor x="1987" y="1076" name="horn"/>
  <anchor x="956" y="0" name="ogonek"/>
  <outline>
    <contour>
      <point x="248" y="1076" type="qcurve" smooth="yes"/>
      <point x="119" y="336" type="line" smooth="yes"/>
      <point x="82.7792" y="129.24"/>
      <point x="270.786" y="-10"/>
      <point x="470" y="-10" type="qcurve" smooth="yes"/>
      <point x="1384" y="-10" type="line" smooth="yes"/>
      <point x="1583.21" y="-10"/>
      <point x="1822.02" y="127.73"/>
      <point x="1859" y="336" type="qcurve" smooth="yes"/>
      <point x="1988" y="1076" type="line" smooth="yes"/>
      <point x="2023.25" y="1277"/>
      <point x="1821" y="1410"/>
      <point x="1632" y="1410" type="qcurve" smooth="yes"/>
      <point x="718" y="1410" type="line" smooth="yes"/>
      <point x="529" y="1410"/>
      <point x="283.25" y="1277"/>
    </contour>
    <contour>
      <point x="872" y="1374" type="line"/>
      <point x="872" y="1374"/>
      <point x="872" y="1374"/>
      <point x="872" y="1374" type="qcurve"/>
      <point x="1468" y="1374" type="line"/>
      <point x="1468" y="1374"/>
      <point x="1468" y="1374"/>
      <point x="1468" y="1374" type="qcurve"/>
      <point x="1233" y="26" type="line"/>
      <point x="1233" y="26"/>
      <point x="1233" y="26"/>
      <point x="1233" y="26" type="qcurve"/>
      <point x="637" y="26" type="line"/>
      <point x="637" y="26"/>
      <point x="637" y="26"/>
      <point x="637" y="26" type="qcurve"/>
    </contour>
    <contour>
      <point x="813" y="1488" type="qcurve" smooth="yes"/>
      <point x="995" y="1488" type="line" smooth="yes"/>
      <point x="1076.5" y="1488"/>
      <point x="1110.66" y="1516.5"/>
      <point x="1125" y="1598" type="qcurve" smooth="yes"/>
      <point x="1150" y="1740" type="line" smooth="yes"/>
      <point x="1163.58" y="1819.99"/>
      <point x="1140.5" y="1848"/>
      <point x="1059" y="1848" type="qcurve" smooth="yes"/>
      <point x="877" y="1848" type="line" smooth="yes"/>
      <point x="795.503" y="1848"/>
      <point x="761.583" y="1819.99"/>
      <point x="748" y="1740" type="qcurve" smooth="yes"/>
      <point x="723" y="1598" type="line" smooth="yes"/>
      <point x="708.663" y="1516.5"/>
      <point x="731.503" y="1488"/>
    </contour>
    <contour>
      <point x="1403" y="1488" type="qcurve" smooth="yes"/>
      <point x="1585" y="1488" type="line" smooth="yes"/>
      <point x="1666.5" y="1488"/>
      <point x="1700.66" y="1516.5"/>
      <point x="1715" y="1598" type="qcurve" smooth="yes"/>
      <point x="1740" y="1740" type="line" smooth="yes"/>
      <point x="1753.58" y="1819.99"/>
      <point x="1730.5" y="1848"/>
      <point x="1649" y="1848" type="qcurve" smooth="yes"/>
      <point x="1467" y="1848" type="line" smooth="yes"/>
      <point x="1385.5" y="1848"/>
      <point x="1351.58" y="1819.99"/>
      <point x="1338" y="1740" type="qcurve" smooth="yes"/>
      <point x="1313" y="1598" type="line" smooth="yes"/>
      <point x="1298.66" y="1516.5"/>
      <point x="1321.5" y="1488"/>
    </contour>
    <contour>
      <point x="906" y="1950" type="line"/>
      <point x="1656" y="1950" type="line"/>
      <point x="1663" y="1986" type="line"/>
      <point x="913" y="1986" type="line"/>
    </contour>
  </outline>
</glyph>
<glyph name="uni022D" format="2">
  <advance width="1658"/>
  <unicode hex="022D"/>
  <anchor x="1005" y="1691" name="top"/>
  <anchor x="683" y="-150" name="bottom"/>
  <anchor x="1514" y="776" name="horn"/>
  <anchor x="726" y="0" name="ogonek"/>
  <outline>
    <contour>
      <point x="86" y="258" type="line" smooth="yes"/>
      <point x="61.8528" y="119.154"/>
      <point x="184.516" y="-6"/>
      <point x="346" y="-6" type="qcurve" smooth="yes"/>
      <point x="1074" y="-6" type="line" smooth="yes"/>
      <point x="1236.99" y="-6"/>
      <point x="1401.85" y="119.154"/>
      <point x="1426" y="258" type="qcurve" smooth="yes"/>
      <point x="1517" y="776" type="line" smooth="yes"/>
      <point x="1539.64" y="907.3"/>
      <point x="1414.98" y="1030"/>
      <point x="1255" y="1030" type="qcurve" smooth="yes"/>
      <point x="527" y="1030" type="line" smooth="yes"/>
      <point x="367.025" y="1030"/>
      <point x="199.638" y="907.3"/>
      <point x="177" y="776" type="qcurve" smooth="yes"/>
    </contour>
    <contour>
      <point x="570" y="26" type="qcurve"/>
      <point x="740" y="998" type="line"/>
      <point x="740" y="998"/>
      <point x="740" y="998"/>
      <point x="740" y="998" type="qcurve"/>
      <point x="1032" y="998" type="line"/>
      <point x="1032" y="998"/>
      <point x="1032" y="998"/>
      <point x="1032" y="998" type="qcurve"/>
      <point x="862" y="26" type="line"/>
      <point x="862" y="26"/>
      <point x="862" y="26"/>
      <point x="862" y="26" type="qcurve"/>
      <point x="570" y="26" type="line"/>
      <point x="570" y="26"/>
      <point x="570" y="26"/>
    </contour>
    <contour>
      <point x="542" y="1135" type="qcurve"/>
      <point x="571" y="1130" type="line"/>
      <point x="575.528" y="1145.85"/>
      <point x="617.387" y="1214"/>
      <point x="677" y="1214" type="qcurve" smooth="yes"/>
      <point x="713.375" y="1214"/>
      <point x="801" y="1184.31"/>
      <point x="894" y="1148.69"/>
      <point x="987.625" y="1119"/>
      <point x="1030" y="1119" type="qcurve" smooth="yes"/>
      <point x="1156" y="1119"/>
      <point x="1276" y="1310.75"/>
      <point x="1327" y="1448" type="qcurve"/>
      <point x="1298" y="1453" type="line"/>
      <point x="1293.47" y="1437.15"/>
      <point x="1250.61" y="1369"/>
      <point x="1191" y="1369" type="qcurve" smooth="yes"/>
      <point x="1154.62" y="1369"/>
      <point x="1067.31" y="1398.69"/>
      <point x="974.688" y="1434.31"/>
      <point x="881.375" y="1464"/>
      <point x="839" y="1464" type="qcurve" smooth="yes"/>
      <point x="713" y="1464"/>
      <point x="595.25" y="1284.25"/>
    </contour>
    <contour>
      <point x="587" y="1559" type="line"/>
      <point x="1377" y="1559" type="line"/>
      <point x="1383" y="1591" type="line"/>
      <point x="593" y="1591" type="line"/>
    </contour>
  </outline>
  <guideline angle="90" x="353" y="0"/>
  <guideline angle="90" x="1083" y="0"/>
  <guideline angle="90" x="1053" y="0"/>
  <guideline angle="90" x="383" y="0"/>
</glyph>
<glyph name="uni0230" format="2">
  <advance width="2098"/>
  <unicode hex="0230"/>
  <anchor x="1301" y="2064" name="top"/>
  <anchor x="913" y="-160" name="bottom"/>
  <anchor x="1987" y="1076" name="horn"/>
  <anchor x="956" y="0" name="ogonek"/>
  <outline>
    <contour>
      <point x="248" y="1076" type="qcurve" smooth="yes"/>
      <point x="119" y="336" type="line" smooth="yes"/>
      <point x="82.7792" y="129.24"/>
      <point x="270.786" y="-10"/>
      <point x="470" y="-10" type="qcurve" smooth="yes"/>
      <point x="1384" y="-10" type="line" smooth="yes"/>
      <point x="1583.21" y="-10"/>
      <point x="1822.02" y="127.73"/>
      <point x="1859" y="336" type="qcurve" smooth="yes"/>
      <point x="1988" y="1076" type="line" smooth="yes"/>
      <point x="2023.25" y="1277"/>
      <point x="1821" y="1410"/>
      <point x="1632" y="1410" type="qcurve" smooth="yes"/>
      <point x="718" y="1410" type="line" smooth="yes"/>
      <point x="529" y="1410"/>
      <point x="283.25" y="1277"/>
    </contour>
    <contour>
      <point x="872" y="1374" type="line"/>
      <point x="872" y="1374"/>
      <point x="872" y="1374"/>
      <point x="872" y="1374" type="qcurve"/>
      <point x="1468" y="1374" type="line"/>
      <point x="1468" y="1374"/>
      <point x="1468" y="1374"/>
      <point x="1468" y="1374" type="qcurve"/>
      <point x="1233" y="26" type="line"/>
      <point x="1233" y="26"/>
      <point x="1233" y="26"/>
      <point x="1233" y="26" type="qcurve"/>
      <point x="637" y="26" type="line"/>
      <point x="637" y="26"/>
      <point x="637" y="26"/>
      <point x="637" y="26" type="qcurve"/>
    </contour>
    <contour>
      <point x="1113" y="1486" type="qcurve" smooth="yes"/>
      <point x="1285" y="1486" type="line" smooth="yes"/>
      <point x="1366.5" y="1486"/>
      <point x="1399.91" y="1514.5"/>
      <point x="1415" y="1596" type="qcurve" smooth="yes"/>
      <point x="1438" y="1728" type="line" smooth="yes"/>
      <point x="1451.58" y="1807.99"/>
      <point x="1428.5" y="1836"/>
      <point x="1347" y="1836" type="qcurve" smooth="yes"/>
      <point x="1175" y="1836" type="line" smooth="yes"/>
      <point x="1093.5" y="1836"/>
      <point x="1059.58" y="1807.99"/>
      <point x="1046" y="1728" type="qcurve" smooth="yes"/>
      <point x="1023" y="1596" type="line" smooth="yes"/>
      <point x="1007.91" y="1514.5"/>
      <point x="1031.5" y="1486"/>
    </contour>
    <contour>
      <point x="902" y="1928" type="line"/>
      <point x="1652" y="1928" type="line"/>
      <point x="1659" y="1964" type="line"/>
      <point x="909" y="1964" type="line"/>
    </contour>
  </outline>
</glyph>
<glyph name="uni0237" format="2">
  <advance width="913"/>
  <unicode hex="0237"/>
  <anchor x="556" y="1174" name="top"/>
  <outline>
    <contour>
      <point x="-592" y="-396" type="line"/>
      <point x="-592" y="-428" type="line"/>
      <point x="278" y="-428" type="line" smooth="yes"/>
      <point x="336.5" y="-428"/>
      <point x="440.625" y="-381.25"/>
      <point x="523.875" y="-295.75"/>
      <point x="582.25" y="-175.5"/>
      <point x="595" y="-102" type="qcurve" smooth="yes"/>
      <point x="792" y="1024" type="line"/>
      <point x="268" y="1024" type="line"/>
      <point x="20" y="-396" type="line"/>
      <point x="20" y="-396"/>
      <point x="20" y="-396"/>
      <point x="20" y="-396" type="qcurve"/>
    </contour>
  </outline>
</glyph>
<glyph name="uni02BB" format="2">
  <advance width="929"/>
  <unicode hex="02BB"/>
  <outline>
    <contour>
      <point x="635" y="1528" type="line"/>
      <point x="313" y="1182" type="line"/>
      <point x="282.061" y="1153.33"/>
      <point x="253.055" y="1095.33"/>
      <point x="244" y="1041" type="qcurve" smooth="yes"/>
      <point x="202" y="797" type="line" smooth="yes"/>
      <point x="186.153" y="707.957"/>
      <point x="228.448" y="658"/>
      <point x="319" y="658" type="qcurve" smooth="yes"/>
      <point x="607" y="658" type="line" smooth="yes"/>
      <point x="697" y="658"/>
      <point x="756.25" y="708.5"/>
      <point x="772" y="797" type="qcurve" smooth="yes"/>
      <point x="814" y="1041" type="line" smooth="yes"/>
      <point x="829.847" y="1131.55"/>
      <point x="787.552" y="1182"/>
      <point x="697" y="1182" type="qcurve" smooth="yes"/>
      <point x="421" y="1182" type="line"/>
      <point x="661" y="1522" type="line"/>
    </contour>
  </outline>
</glyph>
<glyph name="uni0308" format="2">
  <unicode hex="0308"/>
  <anchor x="79" y="1172" name="_top"/>
  <anchor x="158" y="1622" name="_bottom"/>
  <anchor x="142" y="1530" name="top"/>
  <outline>
    <contour>
      <point x="-268" y="1110" type="qcurve" smooth="yes"/>
      <point x="-126" y="1110" type="line" smooth="yes"/>
      <point x="-44.5032" y="1110"/>
      <point x="-11.3374" y="1138.5"/>
      <point x="3" y="1220" type="qcurve" smooth="yes"/>
      <point x="25" y="1342" type="line" smooth="yes"/>
      <point x="38.5828" y="1421.99"/>
      <point x="15.4968" y="1450"/>
      <point x="-66" y="1450" type="qcurve" smooth="yes"/>
      <point x="-208" y="1450" type="line" smooth="yes"/>
      <point x="-289.497" y="1450"/>
      <point x="-323.417" y="1421.99"/>
      <point x="-337" y="1342" type="qcurve" smooth="yes"/>
      <point x="-359" y="1220" type="line" smooth="yes"/>
      <point x="-373.337" y="1138.5"/>
      <point x="-349.497" y="1110"/>
    </contour>
    <contour>
      <point x="262" y="1110" type="qcurve" smooth="yes"/>
      <point x="404" y="1110" type="line" smooth="yes"/>
      <point x="485.497" y="1110"/>
      <point x="518.663" y="1138.5"/>
      <point x="533" y="1220" type="qcurve" smooth="yes"/>
      <point x="555" y="1342" type="line" smooth="yes"/>
      <point x="568.583" y="1421.99"/>
      <point x="545.497" y="1450"/>
      <point x="464" y="1450" type="qcurve" smooth="yes"/>
      <point x="322" y="1450" type="line" smooth="yes"/>
      <point x="240.503" y="1450"/>
      <point x="206.583" y="1421.99"/>
      <point x="193" y="1342" type="qcurve" smooth="yes"/>
      <point x="171" y="1220" type="line" smooth="yes"/>
      <point x="156.663" y="1138.5"/>
      <point x="180.503" y="1110"/>
    </contour>
  </outline>
</glyph>
<glyph name="uni030B" format="2">
  <unicode hex="030B"/>
  <anchor x="75" y="1150" name="_top"/>
  <anchor x="-221.97" y="1100" name="_topright"/>
  <outline>
    <contour>
      <point x="-257.17" y="1100" type="line"/>
      <point x="-225.17" y="1100" type="line"/>
      <point x="363.114" y="1448" type="line"/>
      <point x="-115.286" y="1448" type="line"/>
    </contour>
    <contour>
      <point x="271.83" y="1100" type="line"/>
      <point x="303.83" y="1100" type="line"/>
      <point x="892.114" y="1448" type="line"/>
      <point x="413.714" y="1448" type="line"/>
    </contour>
  </outline>
</glyph>
<glyph name="uni030C" format="2">
  <unicode hex="030C"/>
  <anchor x="83" y="1150" name="_top"/>
  <anchor x="155" y="1548" name="top"/>
  <anchor x="54" y="950" name="_bottom"/>
  <anchor x="-343" y="1274" name="topright"/>
  <outline>
    <contour>
      <point x="539" y="1448" type="line"/>
      <point x="496" y="1448" type="line"/>
      <point x="238" y="1134" type="line"/>
      <point x="105" y="1448" type="line"/>
      <point x="-312" y="1448" type="line"/>
      <point x="-77" y="1100" type="line"/>
      <point x="248" y="1100" type="line"/>
    </contour>
  </outline>
</glyph>
<glyph name="uni030F" format="2">
  <unicode hex="030F"/>
  <anchor x="83" y="1150" name="_top"/>
  <anchor x="393.94" y="1100" name="_topright"/>
  <outline>
    <contour>
      <point x="429.14" y="1100" type="line"/>
      <point x="397.14" y="1100" type="line"/>
      <point x="-68.4048" y="1448" type="line"/>
      <point x="409.995" y="1448" type="line"/>
    </contour>
    <contour>
      <point x="-99.86" y="1100" type="line"/>
      <point x="-131.86" y="1100" type="line"/>
      <point x="-597.405" y="1448" type="line"/>
      <point x="-119.005" y="1448" type="line"/>
    </contour>
  </outline>
</glyph>
<glyph name="uni0402" format="2">
  <advance width="2161"/>
  <unicode hex="0402"/>
  <outline>
    <contour>
      <point x="364" y="0" type="line"/>
      <point x="936" y="0" type="line"/>
      <point x="1084" y="849" type="line"/>
      <point x="1257" y="849" type="line" smooth="yes"/>
      <point x="1371.7" y="849"/>
      <point x="1469.85" y="739.552"/>
      <point x="1454" y="649" type="qcurve" smooth="yes"/>
      <point x="1367" y="151" type="line" smooth="yes"/>
      <point x="1357.94" y="98.9326"/>
      <point x="1293.56" y="36"/>
      <point x="1243" y="36" type="qcurve" smooth="yes"/>
      <point x="1112" y="36" type="line"/>
      <point x="1106" y="0" type="line"/>
      <point x="1499" y="0" type="line" smooth="yes"/>
      <point x="1593.5" y="0"/>
      <point x="1751.69" y="29"/>
      <point x="1872.81" y="104"/>
      <point x="1953.75" y="233.5"/>
      <point x="1971" y="334" type="qcurve" smooth="yes"/>
      <point x="2009" y="551" type="line" smooth="yes"/>
      <point x="2026.62" y="651.5"/>
      <point x="1990.66" y="781"/>
      <point x="1895.59" y="856"/>
      <point x="1747.5" y="885"/>
      <point x="1653" y="885" type="qcurve" smooth="yes"/>
      <point x="1090" y="885" type="line"/>
      <point x="1174" y="1364" type="line"/>
      <point x="1650" y="1364" type="line"/>
      <point x="1656" y="1400" type="line"/>
      <point x="132" y="1400" type="line"/>
      <point x="126" y="1364" type="line"/>
      <point x="602" y="1364" type="line"/>
    </contour>
  </outline>
  <guideline angle="260.1" color="1,0,0,1" x="601.858" y="1364"/>
</glyph>
<glyph name="uni0404" format="2">
  <advance width="1936"/>
  <unicode hex="0404"/>
  <anchor x="1140" y="1550" name="top"/>
  <outline>
    <contour>
      <point x="470" y="-10" type="qcurve" smooth="yes"/>
      <point x="1262" y="-10" type="line" smooth="yes"/>
      <point x="1461.21" y="-10"/>
      <point x="1700.02" y="127.73"/>
      <point x="1737" y="336" type="qcurve" smooth="yes"/>
      <point x="1756" y="446" type="line"/>
      <point x="1198" y="526" type="line"/>
      <point x="1111" y="26" type="line"/>
      <point x="1111" y="26"/>
      <point x="1111" y="26"/>
      <point x="1111" y="26" type="qcurve"/>
      <point x="637" y="26" type="line"/>
      <point x="637" y="26"/>
      <point x="637" y="26"/>
      <point x="637" y="26" type="qcurve"/>
      <point x="753" y="696" type="line"/>
      <point x="1314" y="696" type="line"/>
      <point x="1321" y="736" type="line"/>
      <point x="760" y="736" type="line"/>
      <point x="872" y="1374" type="line"/>
      <point x="872" y="1374"/>
      <point x="872" y="1374"/>
      <point x="872" y="1374" type="qcurve"/>
      <point x="1340" y="1374" type="line"/>
      <point x="1340" y="1374"/>
      <point x="1340" y="1374"/>
      <point x="1340" y="1374" type="qcurve"/>
      <point x="1257" y="901" type="line"/>
      <point x="1843" y="981" type="line"/>
      <point x="1860" y="1076" type="line" smooth="yes"/>
      <point x="1895.25" y="1277"/>
      <point x="1693" y="1410"/>
      <point x="1504" y="1410" type="qcurve" smooth="yes"/>
      <point x="718" y="1410" type="line" smooth="yes"/>
      <point x="529" y="1410"/>
      <point x="283.25" y="1277"/>
      <point x="248" y="1076" type="qcurve" smooth="yes"/>
      <point x="119" y="336" type="line" smooth="yes"/>
      <point x="82.7792" y="129.24"/>
      <point x="270.786" y="-10"/>
    </contour>
  </outline>
  <guideline angle="260.1" color="1,0,0,1" x="1111.87" y="0"/>
</glyph>
<glyph name="uni0407" format="2">
  <advance width="1290"/>
  <unicode hex="0407"/>
  <anchor x="863" y="1908" name="top"/>
  <anchor x="503" y="-150" name="bottom"/>
  <anchor x="294" y="0" name="ogonek"/>
  <outline>
    <contour>
      <point x="246" y="0" type="line"/>
      <point x="818" y="0" type="line"/>
      <point x="1062" y="1400" type="line"/>
      <point x="490" y="1400" type="line"/>
    </contour>
    <contour>
      <point x="453" y="1488" type="qcurve" smooth="yes"/>
      <point x="595" y="1488" type="line" smooth="yes"/>
      <point x="676.497" y="1488"/>
      <point x="709.663" y="1516.5"/>
      <point x="724" y="1598" type="qcurve" smooth="yes"/>
      <point x="746" y="1720" type="line" smooth="yes"/>
      <point x="759.583" y="1799.99"/>
      <point x="736.497" y="1828"/>
      <point x="655" y="1828" type="qcurve" smooth="yes"/>
      <point x="513" y="1828" type="line" smooth="yes"/>
      <point x="431.503" y="1828"/>
      <point x="397.583" y="1799.99"/>
      <point x="384" y="1720" type="qcurve" smooth="yes"/>
      <point x="362" y="1598" type="line" smooth="yes"/>
      <point x="347.663" y="1516.5"/>
      <point x="371.503" y="1488"/>
    </contour>
    <contour>
      <point x="983" y="1488" type="qcurve" smooth="yes"/>
      <point x="1125" y="1488" type="line" smooth="yes"/>
      <point x="1206.5" y="1488"/>
      <point x="1239.66" y="1516.5"/>
      <point x="1254" y="1598" type="qcurve" smooth="yes"/>
      <point x="1276" y="1720" type="line" smooth="yes"/>
      <point x="1289.58" y="1799.99"/>
      <point x="1266.5" y="1828"/>
      <point x="1185" y="1828" type="qcurve" smooth="yes"/>
      <point x="1043" y="1828" type="line" smooth="yes"/>
      <point x="961.503" y="1828"/>
      <point x="927.583" y="1799.99"/>
      <point x="914" y="1720" type="qcurve" smooth="yes"/>
      <point x="892" y="1598" type="line" smooth="yes"/>
      <point x="877.663" y="1516.5"/>
      <point x="901.503" y="1488"/>
    </contour>
  </outline>
</glyph>
<glyph name="uni040B" format="2">
  <advance width="2161"/>
  <unicode hex="040B"/>
  <outline>
    <contour>
      <point x="364" y="0" type="line"/>
      <point x="936" y="0" type="line"/>
      <point x="1084" y="849" type="line"/>
      <point x="1257" y="849" type="line" smooth="yes"/>
      <point x="1371.7" y="849"/>
      <point x="1469.85" y="739.552"/>
      <point x="1454" y="649" type="qcurve" smooth="yes"/>
      <point x="1341" y="0" type="line"/>
      <point x="1913" y="0" type="line"/>
      <point x="2009" y="551" type="line" smooth="yes"/>
      <point x="2026.62" y="651.5"/>
      <point x="1990.66" y="781"/>
      <point x="1895.59" y="856"/>
      <point x="1747.5" y="885"/>
      <point x="1653" y="885" type="qcurve" smooth="yes"/>
      <point x="1090" y="885" type="line"/>
      <point x="1174" y="1364" type="line"/>
      <point x="1650" y="1364" type="line"/>
      <point x="1656" y="1400" type="line"/>
      <point x="132" y="1400" type="line"/>
      <point x="126" y="1364" type="line"/>
      <point x="602" y="1364" type="line"/>
    </contour>
  </outline>
</glyph>
<glyph name="uni040F" format="2">
  <advance width="2063"/>
  <unicode hex="040F"/>
  <outline>
    <contour>
      <point x="83" y="0" type="line"/>
      <point x="654" y="0" type="line"/>
      <point x="736" y="-300" type="line"/>
      <point x="1121" y="-300" type="line"/>
      <point x="1173" y="0" type="line"/>
      <point x="1743" y="0" type="line"/>
      <point x="1987" y="1400" type="line"/>
      <point x="1415" y="1400" type="line"/>
      <point x="1177" y="36" type="line"/>
      <point x="661" y="36" type="line"/>
      <point x="899" y="1400" type="line"/>
      <point x="327" y="1400" type="line"/>
    </contour>
  </outline>
  <guideline angle="260.1" color="1,0,0,1" x="913" y="0"/>
</glyph>
<glyph name="uni0411" format="2">
  <advance width="1881"/>
  <unicode hex="0411"/>
  <outline>
    <contour>
      <point x="83" y="0" type="line"/>
      <point x="1219" y="0" type="line" smooth="yes"/>
      <point x="1408" y="0"/>
      <point x="1650.75" y="100.75"/>
      <point x="1677" y="253" type="qcurve" smooth="yes"/>
      <point x="1729" y="551" type="line" smooth="yes"/>
      <point x="1746.62" y="651.5"/>
      <point x="1710.66" y="781"/>
      <point x="1615.59" y="856"/>
      <point x="1467.5" y="885"/>
      <point x="1373" y="885" type="qcurve" smooth="yes"/>
      <point x="809" y="885" type="line"/>
      <point x="893" y="1364" type="line"/>
      <point x="1783" y="1364" type="line"/>
      <point x="1789" y="1400" type="line"/>
      <point x="327" y="1400" type="line"/>
    </contour>
    <contour>
      <point x="661" y="36" type="line"/>
      <point x="803" y="849" type="line"/>
      <point x="977" y="849" type="line" smooth="yes"/>
      <point x="1091.7" y="849"/>
      <point x="1189.85" y="739.552"/>
      <point x="1174" y="649" type="qcurve" smooth="yes"/>
      <point x="1095" y="192" type="line" smooth="yes"/>
      <point x="1082.17" y="121.822"/>
      <point x="949.699" y="36"/>
      <point x="835" y="36" type="qcurve" smooth="yes"/>
    </contour>
  </outline>
</glyph>
<glyph name="uni0420" format="2">
  <advance width="1854"/>
  <unicode hex="0420"/>
  <outline>
    <contour>
      <point x="83" y="0" type="line"/>
      <point x="655" y="0" type="line"/>
      <point x="732" y="440" type="line"/>
      <point x="1310" y="440" type="line" smooth="yes"/>
      <point x="1404.5" y="440"/>
      <point x="1562.41" y="469"/>
      <point x="1683.34" y="544"/>
      <point x="1764.38" y="673.5"/>
      <point x="1782" y="774" type="qcurve" smooth="yes"/>
      <point x="1833" y="1066" type="line" smooth="yes"/>
      <point x="1868.25" y="1267"/>
      <point x="1666" y="1400"/>
      <point x="1477" y="1400" type="qcurve" smooth="yes"/>
      <point x="327" y="1400" type="line"/>
    </contour>
    <contour>
      <point x="738" y="476" type="line"/>
      <point x="893" y="1364" type="line"/>
      <point x="1081" y="1364" type="line" smooth="yes"/>
      <point x="1195.7" y="1364"/>
      <point x="1293.85" y="1254.55"/>
      <point x="1278" y="1164" type="qcurve" smooth="yes"/>
      <point x="1193" y="676" type="line" smooth="yes"/>
      <point x="1177.15" y="585.448"/>
      <point x="1040.7" y="476"/>
      <point x="926" y="476" type="qcurve" smooth="yes"/>
    </contour>
  </outline>
  <guideline angle="90" color="0.4,0.4,0.4,1" name="halfwidth" x="927" y="0"/>
</glyph>
<glyph name="uni0431" format="2">
  <advance width="1663"/>
  <unicode hex="0431"/>
  <outline>
    <contour>
      <point x="1583" y="1522" type="line"/>
      <point x="1581" y="1510" type="line" smooth="yes"/>
      <point x="1577.98" y="1491.89"/>
      <point x="1548.92" y="1473.51"/>
      <point x="1521" y="1472" type="qcurve" smooth="yes"/>
      <point x="701" y="1436" type="line" smooth="yes"/>
      <point x="512.35" y="1427.7"/>
      <point x="255.448" y="1219.12"/>
      <point x="223" y="1035" type="qcurve" smooth="yes"/>
      <point x="89" y="265" type="line" smooth="yes"/>
      <point x="63.3436" y="117.098"/>
      <point x="188.933" y="-6"/>
      <point x="364" y="-6" type="qcurve" smooth="yes"/>
      <point x="1059" y="-6" type="line" smooth="yes"/>
      <point x="1236.33" y="-6"/>
      <point x="1403.34" y="117.608"/>
      <point x="1429" y="264" type="qcurve" smooth="yes"/>
      <point x="1508" y="720" type="line" smooth="yes"/>
      <point x="1532.15" y="860.356"/>
      <point x="1410.84" y="984"/>
      <point x="1232" y="984" type="qcurve" smooth="yes"/>
      <point x="563" y="984" type="line" smooth="yes"/>
      <point x="416.608" y="984"/>
      <point x="254.712" y="900.816"/>
      <point x="220" y="808" type="qcurve"/>
      <point x="228" y="857" type="line" smooth="yes"/>
      <point x="246.11" y="958.871"/>
      <point x="399.147" y="1064.23"/>
      <point x="498" y="1068" type="qcurve" smooth="yes"/>
      <point x="1237" y="1099" type="line" smooth="yes"/>
      <point x="1321.75" y="1102.38"/>
      <point x="1445.06" y="1137.06"/>
      <point x="1532.44" y="1216.94"/>
      <point x="1589" y="1350.62"/>
      <point x="1607" y="1453" type="qcurve" smooth="yes"/>
      <point x="1619" y="1522" type="line"/>
    </contour>
    <contour>
      <point x="571" y="26" type="line"/>
      <point x="571" y="26"/>
      <point x="571" y="26"/>
      <point x="571" y="26" type="qcurve"/>
      <point x="733" y="952" type="line"/>
      <point x="733" y="952"/>
      <point x="733" y="952"/>
      <point x="733" y="952" type="qcurve"/>
      <point x="1025" y="952" type="line"/>
      <point x="1025" y="952"/>
      <point x="1025" y="952"/>
      <point x="1025" y="952" type="qcurve"/>
      <point x="863" y="26" type="line"/>
      <point x="863" y="26"/>
      <point x="863" y="26"/>
      <point x="863" y="26" type="qcurve"/>
    </contour>
  </outline>
</glyph>
<glyph name="uni043D" format="2">
  <advance width="1608"/>
  <unicode hex="043D"/>
  <outline>
    <contour>
      <point x="52" y="0" type="line"/>
      <point x="576" y="0" type="line"/>
      <point x="666" y="517" type="line"/>
      <point x="884" y="517" type="line"/>
      <point x="794" y="0" type="line"/>
      <point x="1318" y="0" type="line"/>
      <point x="1497" y="1024" type="line"/>
      <point x="973" y="1024" type="line"/>
      <point x="890" y="549" type="line"/>
      <point x="672" y="549" type="line"/>
      <point x="755" y="1024" type="line"/>
      <point x="231" y="1024" type="line"/>
    </contour>
  </outline>
</glyph>
<glyph name="uni043E" format="2">
  <advance width="1661"/>
  <unicode hex="043E"/>
  <anchor x="917" y="1174" name="top"/>
  <anchor x="686" y="-150" name="bottom"/>
  <anchor x="1517" y="776" name="horn"/>
  <anchor x="729" y="0" name="ogonek"/>
  <outline>
    <contour>
      <point x="86" y="258" type="line" smooth="yes"/>
      <point x="61.8528" y="119.154"/>
      <point x="184.516" y="-6"/>
      <point x="346" y="-6" type="qcurve" smooth="yes"/>
      <point x="1074" y="-6" type="line" smooth="yes"/>
      <point x="1236.99" y="-6"/>
      <point x="1401.85" y="119.154"/>
      <point x="1426" y="258" type="qcurve" smooth="yes"/>
      <point x="1517" y="776" type="line" smooth="yes"/>
      <point x="1539.64" y="907.3"/>
      <point x="1414.98" y="1030"/>
      <point x="1255" y="1030" type="qcurve" smooth="yes"/>
      <point x="527" y="1030" type="line" smooth="yes"/>
      <point x="367.025" y="1030"/>
      <point x="199.638" y="907.3"/>
      <point x="177" y="776" type="qcurve" smooth="yes"/>
    </contour>
    <contour>
      <point x="570" y="26" type="qcurve"/>
      <point x="740" y="998" type="line"/>
      <point x="740" y="998"/>
      <point x="740" y="998"/>
      <point x="740" y="998" type="qcurve"/>
      <point x="1032" y="998" type="line"/>
      <point x="1032" y="998"/>
      <point x="1032" y="998"/>
      <point x="1032" y="998" type="qcurve"/>
      <point x="862" y="26" type="line"/>
      <point x="862" y="26"/>
      <point x="862" y="26"/>
      <point x="862" y="26" type="qcurve"/>
      <point x="570" y="26" type="line"/>
      <point x="570" y="26"/>
      <point x="570" y="26"/>
    </contour>
  </outline>
</glyph>
<glyph name="uni0446" format="2">
  <advance width="1672"/>
  <unicode hex="0446"/>
  <outline>
    <contour>
      <point x="52" y="0" type="line"/>
      <point x="1125" y="0" type="line"/>
      <point x="1092" y="-364" type="line"/>
      <point x="1509" y="-364" type="line"/>
      <point x="1578" y="32" type="line"/>
      <point x="1288" y="32" type="line"/>
      <point x="1461" y="1024" type="line"/>
      <point x="937" y="1024" type="line"/>
      <point x="764" y="32" type="line"/>
      <point x="582" y="32" type="line"/>
      <point x="755" y="1024" type="line"/>
      <point x="231" y="1024" type="line"/>
    </contour>
  </outline>
</glyph>
<glyph name="uni044D" format="2">
  <advance width="1656"/>
  <unicode hex="044D"/>
  <outline>
    <contour>
      <point x="365" y="-6" type="qcurve" smooth="yes"/>
      <point x="1051" y="-6" type="line" smooth="yes"/>
      <point x="1229.09" y="-6"/>
      <point x="1396.34" y="117.608"/>
      <point x="1422" y="264" type="qcurve" smooth="yes"/>
      <point x="1511" y="770" type="line" smooth="yes"/>
      <point x="1535.15" y="910.356"/>
      <point x="1405.07" y="1030"/>
      <point x="1230" y="1030" type="qcurve" smooth="yes"/>
      <point x="548" y="1030" type="line" smooth="yes"/>
      <point x="372.933" y="1030"/>
      <point x="205.147" y="912.846"/>
      <point x="181" y="774" type="qcurve" smooth="yes"/>
      <point x="170" y="710" type="line"/>
      <point x="684" y="652" type="line"/>
      <point x="744" y="998" type="line"/>
      <point x="744" y="998"/>
      <point x="744" y="998"/>
      <point x="744" y="998" type="qcurve"/>
      <point x="1026" y="998" type="line"/>
      <point x="1026" y="998"/>
      <point x="1026" y="998"/>
      <point x="1026" y="998" type="qcurve"/>
      <point x="946" y="538" type="line"/>
      <point x="428" y="538" type="line"/>
      <point x="423" y="509" type="line"/>
      <point x="941" y="509" type="line"/>
      <point x="856" y="26" type="line"/>
      <point x="856" y="26"/>
      <point x="856" y="26"/>
      <point x="856" y="26" type="qcurve"/>
      <point x="570" y="26" type="line"/>
      <point x="570" y="26"/>
      <point x="570" y="26"/>
      <point x="570" y="26" type="qcurve"/>
      <point x="635" y="394" type="line"/>
      <point x="100" y="336" type="line"/>
      <point x="88" y="264" type="line" smooth="yes"/>
      <point x="62.3436" y="117.608"/>
      <point x="186.914" y="-6"/>
    </contour>
  </outline>
</glyph>
<glyph name="uni044F" format="2">
  <advance width="1635"/>
  <unicode hex="044F"/>
  <outline>
    <contour>
      <point x="-31" y="0" type="line"/>
      <point x="579" y="0" type="line"/>
      <point x="893" y="410" type="line"/>
      <point x="893" y="410" type="line"/>
      <point x="821" y="0" type="line"/>
      <point x="1345" y="0" type="line"/>
      <point x="1524" y="1024" type="line"/>
      <point x="565" y="1024" type="line" smooth="yes"/>
      <point x="385.405" y="1024"/>
      <point x="197.883" y="902.754"/>
      <point x="176" y="779" type="qcurve" smooth="yes"/>
      <point x="154" y="656" type="line" smooth="yes"/>
      <point x="136.644" y="554.884"/>
      <point x="226.546" y="437.11"/>
      <point x="342" y="419" type="qcurve"/>
      <point x="342" y="419" type="line"/>
    </contour>
    <contour>
      <point x="815" y="443" type="line" smooth="yes"/>
      <point x="732.749" y="443"/>
      <point x="650.399" y="527.92"/>
      <point x="667" y="623" type="qcurve" smooth="yes"/>
      <point x="700" y="812" type="line" smooth="yes"/>
      <point x="716.601" y="907.834"/>
      <point x="828.749" y="992"/>
      <point x="911" y="992" type="qcurve" smooth="yes"/>
      <point x="994" y="992" type="line"/>
      <point x="898" y="443" type="line"/>
    </contour>
  </outline>
  <guideline angle="0" color="1,0,0,1" x="0" y="408"/>
</glyph>
<glyph name="uni0451" format="2">
  <advance width="1654"/>
  <unicode hex="0451"/>
  <anchor x="973" y="1532" name="top"/>
  <anchor x="679" y="-150" name="bottom"/>
  <anchor x="952" y="-6" name="ogonek"/>
  <outline>
    <contour>
      <point x="94" y="304" type="line" smooth="yes"/>
      <point x="66.0798" y="141.006"/>
      <point x="220.675" y="-6"/>
      <point x="438" y="-6" type="qcurve" smooth="yes"/>
      <point x="954" y="-6" type="line" smooth="yes"/>
      <point x="1171.32" y="-6"/>
      <point x="1393.83" y="118.062"/>
      <point x="1421" y="272" type="qcurve"/>
      <point x="1423" y="282" type="line"/>
      <point x="934" y="368" type="line"/>
      <point x="874" y="26" type="line"/>
      <point x="874" y="26"/>
      <point x="874" y="26"/>
      <point x="874" y="26" type="qcurve"/>
      <point x="550" y="26" type="line"/>
      <point x="550" y="26"/>
      <point x="550" y="26"/>
      <point x="550" y="26" type="qcurve"/>
      <point x="636" y="518" type="line"/>
      <point x="1464" y="518" type="line"/>
      <point x="1501" y="730" type="line" smooth="yes"/>
      <point x="1528.17" y="888.466"/>
      <point x="1352.32" y="1030"/>
      <point x="1135" y="1030" type="qcurve" smooth="yes"/>
      <point x="619" y="1030" type="line" smooth="yes"/>
      <point x="403.184" y="1030"/>
      <point x="196.166" y="886.957"/>
      <point x="169" y="730" type="qcurve" smooth="yes"/>
    </contour>
    <contour>
      <point x="641" y="550" type="line"/>
      <point x="720" y="998" type="line"/>
      <point x="720" y="998"/>
      <point x="720" y="998"/>
      <point x="720" y="998" type="qcurve"/>
      <point x="1044" y="998" type="line"/>
      <point x="1044" y="998"/>
      <point x="1044" y="998"/>
      <point x="1044" y="998" type="qcurve"/>
      <point x="965" y="550" type="line"/>
    </contour>
    <contour>
      <point x="563" y="1112" type="qcurve" smooth="yes"/>
      <point x="705" y="1112" type="line" smooth="yes"/>
      <point x="786.497" y="1112"/>
      <point x="819.663" y="1140.5"/>
      <point x="834" y="1222" type="qcurve" smooth="yes"/>
      <point x="856" y="1344" type="line" smooth="yes"/>
      <point x="869.583" y="1423.99"/>
      <point x="846.497" y="1452"/>
      <point x="765" y="1452" type="qcurve" smooth="yes"/>
      <point x="623" y="1452" type="line" smooth="yes"/>
      <point x="541.503" y="1452"/>
      <point x="507.583" y="1423.99"/>
      <point x="494" y="1344" type="qcurve" smooth="yes"/>
      <point x="472" y="1222" type="line" smooth="yes"/>
      <point x="457.663" y="1140.5"/>
      <point x="481.503" y="1112"/>
    </contour>
    <contour>
      <point x="1093" y="1112" type="qcurve" smooth="yes"/>
      <point x="1235" y="1112" type="line" smooth="yes"/>
      <point x="1316.5" y="1112"/>
      <point x="1349.66" y="1140.5"/>
      <point x="1364" y="1222" type="qcurve" smooth="yes"/>
      <point x="1386" y="1344" type="line" smooth="yes"/>
      <point x="1399.58" y="1423.99"/>
      <point x="1376.5" y="1452"/>
      <point x="1295" y="1452" type="qcurve" smooth="yes"/>
      <point x="1153" y="1452" type="line" smooth="yes"/>
      <point x="1071.5" y="1452"/>
      <point x="1037.58" y="1423.99"/>
      <point x="1024" y="1344" type="qcurve" smooth="yes"/>
      <point x="1002" y="1222" type="line" smooth="yes"/>
      <point x="987.663" y="1140.5"/>
      <point x="1011.5" y="1112"/>
    </contour>
  </outline>
  <guideline angle="0" color="1,0,0,1" x="0" y="-1030"/>
</glyph>
<glyph name="uni0457" format="2">
  <advance width="883"/>
  <unicode hex="0457"/>
  <anchor x="295" y="-150" name="bottom"/>
  <anchor x="589" y="1532" name="top"/>
  <anchor x="93" y="0" name="ogonek"/>
  <outline>
    <contour>
      <point x="62" y="0" type="line"/>
      <point x="586" y="0" type="line"/>
      <point x="765" y="1024" type="line"/>
      <point x="241" y="1024" type="line"/>
    </contour>
    <contour>
      <point x="179" y="1112" type="qcurve" smooth="yes"/>
      <point x="321" y="1112" type="line" smooth="yes"/>
      <point x="402.497" y="1112"/>
      <point x="435.663" y="1140.5"/>
      <point x="450" y="1222" type="qcurve" smooth="yes"/>
      <point x="472" y="1344" type="line" smooth="yes"/>
      <point x="485.583" y="1423.99"/>
      <point x="462.497" y="1452"/>
      <point x="381" y="1452" type="qcurve" smooth="yes"/>
      <point x="239" y="1452" type="line" smooth="yes"/>
      <point x="157.503" y="1452"/>
      <point x="123.583" y="1423.99"/>
      <point x="110" y="1344" type="qcurve" smooth="yes"/>
      <point x="88" y="1222" type="line" smooth="yes"/>
      <point x="73.6626" y="1140.5"/>
      <point x="97.5032" y="1112"/>
    </contour>
    <contour>
      <point x="709" y="1112" type="qcurve" smooth="yes"/>
      <point x="851" y="1112" type="line" smooth="yes"/>
      <point x="932.497" y="1112"/>
      <point x="965.663" y="1140.5"/>
      <point x="980" y="1222" type="qcurve" smooth="yes"/>
      <point x="1002" y="1344" type="line" smooth="yes"/>
      <point x="1015.58" y="1423.99"/>
      <point x="992.497" y="1452"/>
      <point x="911" y="1452" type="qcurve" smooth="yes"/>
      <point x="769" y="1452" type="line" smooth="yes"/>
      <point x="687.503" y="1452"/>
      <point x="653.583" y="1423.99"/>
      <point x="640" y="1344" type="qcurve" smooth="yes"/>
      <point x="618" y="1222" type="line" smooth="yes"/>
      <point x="603.663" y="1140.5"/>
      <point x="627.503" y="1112"/>
    </contour>
  </outline>
</glyph>
<glyph name="uni045E" format="2">
  <advance width="1287"/>
  <unicode hex="045E"/>
  <anchor x="930" y="1561" name="top"/>
  <anchor x="904" y="-115" name="bottom"/>
  <outline>
    <contour>
      <point x="-163" y="-428" type="line"/>
      <point x="252" y="-428" type="line" smooth="yes"/>
      <point x="291" y="-428"/>
      <point x="348.719" y="-416.312"/>
      <point x="398.031" y="-385.188"/>
      <point x="444.875" y="-330.75"/>
      <point x="473" y="-288" type="qcurve" smooth="yes"/>
      <point x="1338" y="1024" type="line"/>
      <point x="1301" y="1024" type="line"/>
      <point x="827" y="307" type="line"/>
      <point x="599" y="1024" type="line"/>
      <point x="70" y="1024" type="line"/>
      <point x="479" y="-225" type="line"/>
      <point x="444" y="-278" type="line" smooth="yes"/>
      <point x="394.951" y="-352.705"/>
      <point x="327.65" y="-396"/>
      <point x="262" y="-396" type="qcurve" smooth="yes"/>
      <point x="-164" y="-396" type="line"/>
    </contour>
    <contour>
      <point x="860" y="1099" type="qcurve" smooth="yes"/>
      <point x="986.375" y="1099"/>
      <point x="1139.75" y="1137.59"/>
      <point x="1229.75" y="1223.66"/>
      <point x="1274.38" y="1361.62"/>
      <point x="1292" y="1461" type="qcurve"/>
      <point x="1027" y="1461" type="line"/>
      <point x="1006.75" y="1347"/>
      <point x="974.688" y="1215.38"/>
      <point x="938.312" y="1148.62"/>
      <point x="891.25" y="1131"/>
      <point x="856" y="1131" type="qcurve" smooth="yes"/>
      <point x="819.625" y="1131"/>
      <point x="777.531" y="1148.62"/>
      <point x="764.219" y="1215.38"/>
      <point x="778.75" y="1347"/>
      <point x="799" y="1461" type="qcurve"/>
      <point x="534" y="1461" type="line"/>
      <point x="516.375" y="1361.62"/>
      <point x="519.062" y="1223.66"/>
      <point x="586.938" y="1137.59"/>
      <point x="733.625" y="1099"/>
    </contour>
  </outline>
</glyph>
<glyph name="uni045F" format="2">
  <advance width="1603"/>
  <unicode hex="045F"/>
  <outline>
    <contour>
      <point x="62" y="0" type="line"/>
      <point x="438" y="0" type="line"/>
      <point x="522" y="-280" type="line"/>
      <point x="878" y="-280" type="line"/>
      <point x="927" y="0" type="line"/>
      <point x="1303" y="0" type="line"/>
      <point x="1482" y="1024" type="line"/>
      <point x="958" y="1024" type="line"/>
      <point x="785" y="32" type="line"/>
      <point x="592" y="32" type="line"/>
      <point x="765" y="1024" type="line"/>
      <point x="241" y="1024" type="line"/>
    </contour>
  </outline>
  <guideline angle="260.1" color="1,0,0,1" x="725.701" y="0"/>
</glyph>
<glyph name="uni046A" format="2">
  <advance width="2462"/>
  <unicode hex="046A"/>
  <outline>
    <contour>
      <point x="81" y="0" type="line"/>
      <point x="637" y="0" type="line"/>
      <point x="724" y="497" type="line" smooth="yes"/>
      <point x="739.847" y="587.552"/>
      <point x="831.939" y="687"/>
      <point x="924" y="687" type="qcurve" smooth="yes"/>
      <point x="945" y="687" type="line"/>
      <point x="825" y="0" type="line"/>
      <point x="1397" y="0" type="line"/>
      <point x="1517" y="687" type="line"/>
      <point x="1536" y="687" type="line" smooth="yes"/>
      <point x="1628.06" y="687"/>
      <point x="1688.85" y="587.552"/>
      <point x="1673" y="497" type="qcurve" smooth="yes"/>
      <point x="1586" y="0" type="line"/>
      <point x="2142" y="0" type="line"/>
      <point x="2210" y="389" type="line" smooth="yes"/>
      <point x="2227.62" y="489.5"/>
      <point x="2191.66" y="619"/>
      <point x="2096.59" y="694"/>
      <point x="1948.5" y="723"/>
      <point x="1854" y="723" type="qcurve" smooth="yes"/>
      <point x="1546" y="723" type="line"/>
      <point x="2259" y="1382" type="line"/>
      <point x="2262" y="1400" type="line"/>
      <point x="449" y="1400" type="line"/>
      <point x="446" y="1382" type="line"/>
      <point x="929" y="723" type="line"/>
      <point x="621" y="723" type="line" smooth="yes"/>
      <point x="526.5" y="723"/>
      <point x="368.594" y="694"/>
      <point x="247.656" y="619"/>
      <point x="166.625" y="489.5"/>
      <point x="149" y="389" type="qcurve" smooth="yes"/>
    </contour>
    <contour>
      <point x="1514" y="740" type="line"/>
      <point x="1113" y="1364" type="line"/>
      <point x="2190" y="1364" type="line"/>
    </contour>
  </outline>
</glyph>
<glyph name="uni0475" format="2">
  <advance width="1408"/>
  <unicode hex="0475"/>
  <outline>
    <contour>
      <point x="405" y="0" type="line"/>
      <point x="664" y="0" type="line"/>
      <point x="1275" y="930" type="line" smooth="yes"/>
      <point x="1299.9" y="967.73"/>
      <point x="1347.99" y="992"/>
      <point x="1391" y="992" type="qcurve" smooth="yes"/>
      <point x="1445" y="992" type="line"/>
      <point x="1459" y="1024" type="line"/>
      <point x="1397" y="1024" type="line" smooth="yes"/>
      <point x="1345.69" y="1024"/>
      <point x="1276.18" y="985.276"/>
      <point x="1246" y="940" type="qcurve" smooth="yes"/>
      <point x="834" y="317" type="line"/>
      <point x="607" y="1024" type="line"/>
      <point x="70" y="1024" type="line"/>
    </contour>
  </outline>
</glyph>
<glyph name="uni0493" format="2">
  <advance width="1397"/>
  <unicode hex="0493"/>
  <outline>
    <contour>
      <point x="152" y="0" type="line"/>
      <point x="676" y="0" type="line"/>
      <point x="760" y="480" type="line"/>
      <point x="1118" y="480" type="line"/>
      <point x="1123" y="512" type="line"/>
      <point x="765" y="512" type="line"/>
      <point x="849" y="992" type="line"/>
      <point x="1400" y="992" type="line"/>
      <point x="1406" y="1024" type="line"/>
      <point x="331" y="1024" type="line"/>
      <point x="241" y="512" type="line"/>
      <point x="141" y="512" type="line"/>
      <point x="136" y="480" type="line"/>
      <point x="236" y="480" type="line"/>
    </contour>
  </outline>
</glyph>
<glyph name="uni0496" format="2">
  <advance width="2919"/>
  <unicode hex="0496"/>
  <outline>
    <contour>
      <point x="-120" y="0" type="line"/>
      <point x="582" y="0" type="line"/>
      <point x="1088" y="604" type="line"/>
      <point x="983" y="0" type="line"/>
      <point x="1555" y="0" type="line"/>
      <point x="1660" y="604" type="line"/>
      <point x="1956" y="0" type="line" name="ATT"/>
      <point x="2279" y="0" type="line"/>
      <point x="2361" y="-300" type="line"/>
      <point x="2746" y="-300" type="line"/>
      <point x="2804" y="36" type="line"/>
      <point x="2638" y="36" type="line"/>
      <point x="2117" y="1004" type="line"/>
      <point x="2762" y="1400" type="line"/>
      <point x="2699" y="1400" type="line"/>
      <point x="1691" y="779" type="line"/>
      <point x="1799" y="1400" type="line"/>
      <point x="1227" y="1400" type="line"/>
      <point x="1119" y="779" type="line"/>
      <point x="327" y="1400" type="line"/>
      <point x="264" y="1400" type="line"/>
      <point x="772" y="1004" type="line"/>
    </contour>
  </outline>
</glyph>
<glyph name="uni04B0" format="2">
  <advance width="1898"/>
  <unicode hex="04B0"/>
  <outline>
    <contour>
      <point x="546" y="0" type="line"/>
      <point x="1117" y="0" type="line"/>
      <point x="1174" y="325" type="line"/>
      <point x="1458" y="325" type="line"/>
      <point x="1463" y="357" type="line"/>
      <point x="1179" y="357" type="line"/>
      <point x="1231" y="655" type="line"/>
      <point x="2024" y="1400" type="line"/>
      <point x="1975" y="1400" type="line"/>
      <point x="1226" y="696" type="line"/>
      <point x="804" y="1400" type="line"/>
      <point x="127" y="1400" type="line"/>
      <point x="644" y="562" type="line"/>
      <point x="608" y="357" type="line"/>
      <point x="324" y="357" type="line"/>
      <point x="319" y="325" type="line"/>
      <point x="603" y="325" type="line"/>
    </contour>
  </outline>
  <guideline angle="260.1" color="1,0,0,1" x="795.858" y="0"/>
</glyph>
<glyph name="uni04B3" format="2">
  <advance width="1556"/>
  <unicode hex="04B3"/>
  <outline>
    <contour>
      <point x="-39" y="0" type="line"/>
      <point x="8" y="0" type="line"/>
      <point x="460" y="368" type="line"/>
      <point x="673" y="0" type="line"/>
      <point x="937" y="0" type="line"/>
      <point x="1021" y="-280" type="line"/>
      <point x="1377" y="-280" type="line"/>
      <point x="1432" y="32" type="line"/>
      <point x="1296" y="32" type="line"/>
      <point x="910" y="677" type="line"/>
      <point x="1340" y="1024" type="line"/>
      <point x="1293" y="1024" type="line"/>
      <point x="895" y="702" type="line"/>
      <point x="705" y="1024" type="line"/>
      <point x="70" y="1024" type="line"/>
      <point x="446" y="394" type="line"/>
    </contour>
  </outline>
</glyph>
<glyph name="uni04DD" format="2">
  <advance width="2624"/>
  <unicode hex="04DD"/>
  <anchor x="1456" y="1508" name="top"/>
  <outline>
    <contour>
      <point x="-111" y="0" type="line"/>
      <point x="581" y="0" type="line"/>
      <point x="1009" y="449" type="line"/>
      <point x="931" y="0" type="line"/>
      <point x="1455" y="0" type="line"/>
      <point x="1533" y="449" type="line"/>
      <point x="1805" y="0" type="line"/>
      <point x="2497" y="0" type="line"/>
      <point x="1993" y="740" type="line"/>
      <point x="2581" y="1024" type="line"/>
      <point x="2509" y="1024" type="line"/>
      <point x="1553" y="563" type="line"/>
      <point x="1634" y="1024" type="line"/>
      <point x="1110" y="1024" type="line"/>
      <point x="1029" y="563" type="line"/>
      <point x="235" y="1024" type="line"/>
      <point x="163" y="1024" type="line"/>
      <point x="651" y="740" type="line"/>
    </contour>
    <contour>
      <point x="1046" y="1088" type="qcurve" smooth="yes"/>
      <point x="1188" y="1088" type="line" smooth="yes"/>
      <point x="1269.5" y="1088"/>
      <point x="1302.66" y="1116.5"/>
      <point x="1317" y="1198" type="qcurve" smooth="yes"/>
      <point x="1339" y="1320" type="line" smooth="yes"/>
      <point x="1352.58" y="1399.99"/>
      <point x="1329.5" y="1428"/>
      <point x="1248" y="1428" type="qcurve" smooth="yes"/>
      <point x="1106" y="1428" type="line" smooth="yes"/>
      <point x="1024.5" y="1428"/>
      <point x="990.583" y="1399.99"/>
      <point x="977" y="1320" type="qcurve" smooth="yes"/>
      <point x="955" y="1198" type="line" smooth="yes"/>
      <point x="940.663" y="1116.5"/>
      <point x="964.503" y="1088"/>
    </contour>
    <contour>
      <point x="1576" y="1088" type="qcurve" smooth="yes"/>
      <point x="1718" y="1088" type="line" smooth="yes"/>
      <point x="1799.5" y="1088"/>
      <point x="1832.66" y="1116.5"/>
      <point x="1847" y="1198" type="qcurve" smooth="yes"/>
      <point x="1869" y="1320" type="line" smooth="yes"/>
      <point x="1882.58" y="1399.99"/>
      <point x="1859.5" y="1428"/>
      <point x="1778" y="1428" type="qcurve" smooth="yes"/>
      <point x="1636" y="1428" type="line" smooth="yes"/>
      <point x="1554.5" y="1428"/>
      <point x="1520.58" y="1399.99"/>
      <point x="1507" y="1320" type="qcurve" smooth="yes"/>
      <point x="1485" y="1198" type="line" smooth="yes"/>
      <point x="1470.66" y="1116.5"/>
      <point x="1494.5" y="1088"/>
    </contour>
  </outline>
</glyph>
<glyph name="uni04E5" format="2">
  <advance width="1688"/>
  <unicode hex="04E5"/>
  <anchor x="987" y="1508" name="top"/>
  <outline>
    <contour>
      <point x="52" y="0" type="line"/>
      <point x="555" y="0" type="line"/>
      <point x="1018" y="866" type="line"/>
      <point x="867" y="0" type="line"/>
      <point x="1391" y="0" type="line"/>
      <point x="1570" y="1024" type="line"/>
      <point x="1067" y="1024" type="line"/>
      <point x="604" y="160" type="line"/>
      <point x="755" y="1024" type="line"/>
      <point x="231" y="1024" type="line"/>
    </contour>
    <contour>
      <point x="577" y="1088" type="qcurve" smooth="yes"/>
      <point x="719" y="1088" type="line" smooth="yes"/>
      <point x="800.497" y="1088"/>
      <point x="833.663" y="1116.5"/>
      <point x="848" y="1198" type="qcurve" smooth="yes"/>
      <point x="870" y="1320" type="line" smooth="yes"/>
      <point x="883.583" y="1399.99"/>
      <point x="860.497" y="1428"/>
      <point x="779" y="1428" type="qcurve" smooth="yes"/>
      <point x="637" y="1428" type="line" smooth="yes"/>
      <point x="555.503" y="1428"/>
      <point x="521.583" y="1399.99"/>
      <point x="508" y="1320" type="qcurve" smooth="yes"/>
      <point x="486" y="1198" type="line" smooth="yes"/>
      <point x="471.663" y="1116.5"/>
      <point x="495.503" y="1088"/>
    </contour>
    <contour>
      <point x="1107" y="1088" type="qcurve" smooth="yes"/>
      <point x="1249" y="1088" type="line" smooth="yes"/>
      <point x="1330.5" y="1088"/>
      <point x="1363.66" y="1116.5"/>
      <point x="1378" y="1198" type="qcurve" smooth="yes"/>
      <point x="1400" y="1320" type="line" smooth="yes"/>
      <point x="1413.58" y="1399.99"/>
      <point x="1390.5" y="1428"/>
      <point x="1309" y="1428" type="qcurve" smooth="yes"/>
      <point x="1167" y="1428" type="line" smooth="yes"/>
      <point x="1085.5" y="1428"/>
      <point x="1051.58" y="1399.99"/>
      <point x="1038" y="1320" type="qcurve" smooth="yes"/>
      <point x="1016" y="1198" type="line" smooth="yes"/>
      <point x="1001.66" y="1116.5"/>
      <point x="1025.5" y="1088"/>
    </contour>
  </outline>
</glyph>
<glyph name="uni04E6" format="2">
  <advance width="2098"/>
  <unicode hex="04E6"/>
  <anchor x="1272" y="1918" name="top"/>
  <anchor x="910" y="-160" name="bottom"/>
  <anchor x="1984" y="1076" name="horn"/>
  <anchor x="953" y="0" name="ogonek"/>
  <outline>
    <contour>
      <point x="248" y="1076" type="qcurve" smooth="yes"/>
      <point x="119" y="336" type="line" smooth="yes"/>
      <point x="82.7792" y="129.24"/>
      <point x="270.786" y="-10"/>
      <point x="470" y="-10" type="qcurve" smooth="yes"/>
      <point x="1384" y="-10" type="line" smooth="yes"/>
      <point x="1583.21" y="-10"/>
      <point x="1822.02" y="127.73"/>
      <point x="1859" y="336" type="qcurve" smooth="yes"/>
      <point x="1988" y="1076" type="line" smooth="yes"/>
      <point x="2023.25" y="1277"/>
      <point x="1821" y="1410"/>
      <point x="1632" y="1410" type="qcurve" smooth="yes"/>
      <point x="718" y="1410" type="line" smooth="yes"/>
      <point x="529" y="1410"/>
      <point x="283.25" y="1277"/>
    </contour>
    <contour>
      <point x="872" y="1374" type="line"/>
      <point x="872" y="1374"/>
      <point x="872" y="1374"/>
      <point x="872" y="1374" type="qcurve"/>
      <point x="1468" y="1374" type="line"/>
      <point x="1468" y="1374"/>
      <point x="1468" y="1374"/>
      <point x="1468" y="1374" type="qcurve"/>
      <point x="1233" y="26" type="line"/>
      <point x="1233" y="26"/>
      <point x="1233" y="26"/>
      <point x="1233" y="26" type="qcurve"/>
      <point x="637" y="26" type="line"/>
      <point x="637" y="26"/>
      <point x="637" y="26"/>
      <point x="637" y="26" type="qcurve"/>
    </contour>
    <contour>
      <point x="862" y="1498" type="qcurve" smooth="yes"/>
      <point x="1004" y="1498" type="line" smooth="yes"/>
      <point x="1085.5" y="1498"/>
      <point x="1118.66" y="1526.5"/>
      <point x="1133" y="1608" type="qcurve" smooth="yes"/>
      <point x="1155" y="1730" type="line" smooth="yes"/>
      <point x="1168.58" y="1809.99"/>
      <point x="1145.5" y="1838"/>
      <point x="1064" y="1838" type="qcurve" smooth="yes"/>
      <point x="922" y="1838" type="line" smooth="yes"/>
      <point x="840.503" y="1838"/>
      <point x="806.583" y="1809.99"/>
      <point x="793" y="1730" type="qcurve" smooth="yes"/>
      <point x="771" y="1608" type="line" smooth="yes"/>
      <point x="756.663" y="1526.5"/>
      <point x="780.503" y="1498"/>
    </contour>
    <contour>
      <point x="1392" y="1498" type="qcurve" smooth="yes"/>
      <point x="1534" y="1498" type="line" smooth="yes"/>
      <point x="1615.5" y="1498"/>
      <point x="1648.66" y="1526.5"/>
      <point x="1663" y="1608" type="qcurve" smooth="yes"/>
      <point x="1685" y="1730" type="line" smooth="yes"/>
      <point x="1698.58" y="1809.99"/>
      <point x="1675.5" y="1838"/>
      <point x="1594" y="1838" type="qcurve" smooth="yes"/>
      <point x="1452" y="1838" type="line" smooth="yes"/>
      <point x="1370.5" y="1838"/>
      <point x="1336.58" y="1809.99"/>
      <point x="1323" y="1730" type="qcurve" smooth="yes"/>
      <point x="1301" y="1608" type="line" smooth="yes"/>
      <point x="1286.66" y="1526.5"/>
      <point x="1310.5" y="1498"/>
    </contour>
  </outline>
</glyph>
<glyph name="uni04F4" format="2">
  <advance width="2007"/>
  <unicode hex="04F4"/>
  <anchor x="1188" y="1908" name="top"/>
  <outline>
    <contour>
      <point x="1141" y="0" type="line"/>
      <point x="1687" y="0" type="line"/>
      <point x="1931" y="1400" type="line"/>
      <point x="1385" y="1400" type="line"/>
      <point x="1222" y="466" type="line"/>
      <point x="690" y="466" type="line"/>
      <point x="690" y="466"/>
      <point x="690" y="466"/>
      <point x="690" y="466" type="qcurve"/>
      <point x="853" y="1400" type="line"/>
      <point x="307" y="1400" type="line"/>
      <point x="205" y="814" type="line" smooth="yes"/>
      <point x="187" y="711.25"/>
      <point x="217.625" y="565.562"/>
      <point x="306.875" y="472.938"/>
      <point x="450.75" y="430"/>
      <point x="546" y="430" type="qcurve" smooth="yes"/>
      <point x="1216" y="430" type="line"/>
    </contour>
    <contour>
      <point x="778" y="1488" type="qcurve" smooth="yes"/>
      <point x="920" y="1488" type="line" smooth="yes"/>
      <point x="1001.5" y="1488"/>
      <point x="1034.66" y="1516.5"/>
      <point x="1049" y="1598" type="qcurve" smooth="yes"/>
      <point x="1071" y="1720" type="line" smooth="yes"/>
      <point x="1084.58" y="1799.99"/>
      <point x="1061.5" y="1828"/>
      <point x="980" y="1828" type="qcurve" smooth="yes"/>
      <point x="838" y="1828" type="line" smooth="yes"/>
      <point x="756.503" y="1828"/>
      <point x="722.583" y="1799.99"/>
      <point x="709" y="1720" type="qcurve" smooth="yes"/>
      <point x="687" y="1598" type="line" smooth="yes"/>
      <point x="672.663" y="1516.5"/>
      <point x="696.503" y="1488"/>
    </contour>
    <contour>
      <point x="1308" y="1488" type="qcurve" smooth="yes"/>
      <point x="1450" y="1488" type="line" smooth="yes"/>
      <point x="1531.5" y="1488"/>
      <point x="1564.66" y="1516.5"/>
      <point x="1579" y="1598" type="qcurve" smooth="yes"/>
      <point x="1601" y="1720" type="line" smooth="yes"/>
      <point x="1614.58" y="1799.99"/>
      <point x="1591.5" y="1828"/>
      <point x="1510" y="1828" type="qcurve" smooth="yes"/>
      <point x="1368" y="1828" type="line" smooth="yes"/>
      <point x="1286.5" y="1828"/>
      <point x="1252.58" y="1799.99"/>
      <point x="1239" y="1720" type="qcurve" smooth="yes"/>
      <point x="1217" y="1598" type="line" smooth="yes"/>
      <point x="1202.66" y="1516.5"/>
      <point x="1226.5" y="1488"/>
    </contour>
  </outline>
</glyph>
<glyph name="uni1E3E" format="2">
  <advance width="2213"/>
  <unicode hex="1E3E"/>
  <anchor x="1257" y="1550" name="top"/>
  <anchor x="960" y="-150" name="bottom"/>
  <anchor x="1096" y="1500" name="topright"/>
  <outline>
    <contour>
      <point x="83" y="0" type="line"/>
      <point x="121" y="0" type="line"/>
      <point x="284" y="936" type="line"/>
      <point x="774" y="212" type="line"/>
      <point x="1490" y="967" type="line"/>
      <point x="1321" y="0" type="line"/>
      <point x="1893" y="0" type="line"/>
      <point x="2137" y="1400" type="line"/>
      <point x="1855" y="1400" type="line"/>
      <point x="1187" y="694" type="line"/>
      <point x="709" y="1400" type="line"/>
      <point x="327" y="1400" type="line"/>
    </contour>
    <contour>
      <point x="1052" y="1500" type="line"/>
      <point x="1096" y="1500" type="line"/>
      <point x="1797" y="1800" type="line"/>
      <point x="1163" y="1800" type="line"/>
    </contour>
  </outline>
</glyph>
<glyph name="uni1E45" format="2">
  <advance width="1618"/>
  <unicode hex="1E45"/>
  <anchor x="900" y="1174" name="top"/>
  <anchor x="669" y="-150" name="bottom"/>
  <outline>
    <contour>
      <point x="62" y="0" type="line"/>
      <point x="586" y="0" type="line"/>
      <point x="759" y="992" type="line"/>
      <point x="977" y="992" type="line"/>
      <point x="977" y="992"/>
      <point x="977" y="992"/>
      <point x="977" y="992" type="qcurve"/>
      <point x="804" y="0" type="line"/>
      <point x="1328" y="0" type="line"/>
      <point x="1454" y="724" type="line" smooth="yes"/>
      <point x="1481" y="878.5"/>
      <point x="1336" y="1024"/>
      <point x="1141" y="1024" type="qcurve" smooth="yes"/>
      <point x="841" y="1024" type="line" smooth="yes"/>
      <point x="813.834" y="1024"/>
      <point x="772.828" y="1009.58"/>
      <point x="760" y="996" type="qcurve"/>
      <point x="765" y="1024" type="line"/>
      <point x="241" y="1024" type="line"/>
    </contour>
    <contour>
      <point x="685" y="1174" type="qcurve" smooth="yes"/>
      <point x="857" y="1174" type="line" smooth="yes"/>
      <point x="938.497" y="1174"/>
      <point x="972.417" y="1202.01"/>
      <point x="986" y="1282" type="qcurve" smooth="yes"/>
      <point x="1010" y="1414" type="line" smooth="yes"/>
      <point x="1023.58" y="1493.99"/>
      <point x="1000.5" y="1522"/>
      <point x="919" y="1522" type="qcurve" smooth="yes"/>
      <point x="747" y="1522" type="line" smooth="yes"/>
      <point x="665.503" y="1522"/>
      <point x="631.583" y="1493.99"/>
      <point x="618" y="1414" type="qcurve" smooth="yes"/>
      <point x="594" y="1282" type="line" smooth="yes"/>
      <point x="580.417" y="1202.01"/>
      <point x="603.503" y="1174"/>
    </contour>
  </outline>
  <guideline angle="0" x="0" y="988"/>
  <guideline angle="0" x="0" y="870"/>
  <guideline angle="0" x="0" y="1513"/>
</glyph>
<glyph name="uni1EA0" format="2">
  <advance width="1824"/>
  <unicode hex="1EA0"/>
  <anchor x="1063" y="1550" name="top"/>
  <anchor x="766" y="-150" name="bottom"/>
  <anchor x="1044" y="0" name="ogonek_in"/>
  <outline>
    <contour>
      <point x="-120" y="0" type="line"/>
      <point x="-75" y="0" type="line"/>
      <point x="159" y="338" type="line"/>
      <point x="940" y="338" type="line"/>
      <point x="1044" y="0" type="line"/>
      <point x="1704" y="0" type="line"/>
      <point x="1224" y="1400" type="line"/>
      <point x="850" y="1400" type="line"/>
    </contour>
    <contour>
      <point x="184" y="374" type="line"/>
      <point x="700" y="1119" type="line"/>
      <point x="929" y="374" type="line"/>
    </contour>
    <contour>
      <point x="618" y="-451" type="qcurve" smooth="yes"/>
      <point x="790" y="-451" type="line" smooth="yes"/>
      <point x="871.497" y="-451"/>
      <point x="904.908" y="-422.497"/>
      <point x="920" y="-341" type="qcurve" smooth="yes"/>
      <point x="943" y="-209" type="line" smooth="yes"/>
      <point x="956.583" y="-129.012"/>
      <point x="933.497" y="-101"/>
      <point x="852" y="-101" type="qcurve" smooth="yes"/>
      <point x="680" y="-101" type="line" smooth="yes"/>
      <point x="598.503" y="-101"/>
      <point x="564.583" y="-129.012"/>
      <point x="551" y="-209" type="qcurve" smooth="yes"/>
      <point x="528" y="-341" type="line" smooth="yes"/>
      <point x="512.908" y="-422.497"/>
      <point x="536.503" y="-451"/>
    </contour>
  </outline>
  <guideline angle="0" x="0" y="-100"/>
</glyph>
<glyph name="uni1EAA" format="2">
  <advance width="1824"/>
  <unicode hex="1EAA"/>
  <anchor x="1063" y="1550" name="top"/>
  <anchor x="766" y="-150" name="bottom"/>
  <anchor x="1044" y="0" name="ogonek_in"/>
  <outline>
    <contour>
      <point x="-120" y="0" type="line"/>
      <point x="-75" y="0" type="line"/>
      <point x="159" y="338" type="line"/>
      <point x="940" y="338" type="line"/>
      <point x="1044" y="0" type="line"/>
      <point x="1704" y="0" type="line"/>
      <point x="1224" y="1400" type="line"/>
      <point x="850" y="1400" type="line"/>
    </contour>
    <contour>
      <point x="184" y="374" type="line"/>
      <point x="700" y="1119" type="line"/>
      <point x="929" y="374" type="line"/>
    </contour>
    <contour>
      <point x="694" y="1476" type="line"/>
      <point x="733" y="1476" type="line"/>
      <point x="985" y="1746" type="line"/>
      <point x="1124" y="1476" type="line"/>
      <point x="1545" y="1476" type="line"/>
      <point x="1300" y="1776" type="line"/>
      <point x="975" y="1776" type="line"/>
    </contour>
    <contour>
      <point x="807" y="1884" type="qcurve"/>
      <point x="836" y="1879" type="line"/>
      <point x="849.583" y="1915.22"/>
      <point x="903.27" y="1953"/>
      <point x="941" y="1953" type="qcurve" smooth="yes"/>
      <point x="974.75" y="1953"/>
      <point x="1053.97" y="1926.44"/>
      <point x="1143.78" y="1894.56"/>
      <point x="1243.62" y="1868"/>
      <point x="1298" y="1868" type="qcurve" smooth="yes"/>
      <point x="1392.33" y="1868"/>
      <point x="1504.67" y="1979.85"/>
      <point x="1559" y="2127" type="qcurve"/>
      <point x="1530" y="2132" type="line"/>
      <point x="1516.42" y="2095.78"/>
      <point x="1461.73" y="2058"/>
      <point x="1424" y="2058" type="qcurve" smooth="yes"/>
      <point x="1390.25" y="2058"/>
      <point x="1312.03" y="2084.56"/>
      <point x="1225.22" y="2116.44"/>
      <point x="1130.88" y="2143"/>
      <point x="1081" y="2143" type="qcurve" smooth="yes"/>
      <point x="988.184" y="2143"/>
      <point x="862.086" y="2023.6"/>
    </contour>
  </outline>
</glyph>
<glyph name="uni1EB4" format="2">
  <advance width="1824"/>
  <unicode hex="1EB4"/>
  <anchor x="1198" y="2318" name="top"/>
  <anchor x="766" y="-150" name="bottom"/>
  <anchor x="1044" y="0" name="ogonek_in"/>
  <outline>
    <contour>
      <point x="-120" y="0" type="line"/>
      <point x="-75" y="0" type="line"/>
      <point x="159" y="338" type="line"/>
      <point x="940" y="338" type="line"/>
      <point x="1044" y="0" type="line"/>
      <point x="1704" y="0" type="line"/>
      <point x="1224" y="1400" type="line"/>
      <point x="850" y="1400" type="line"/>
    </contour>
    <contour>
      <point x="184" y="374" type="line"/>
      <point x="700" y="1119" type="line"/>
      <point x="929" y="374" type="line"/>
    </contour>
    <contour>
      <point x="775" y="1884" type="qcurve"/>
      <point x="804" y="1879" type="line"/>
      <point x="817.583" y="1915.22"/>
      <point x="871.27" y="1953"/>
      <point x="909" y="1953" type="qcurve" smooth="yes"/>
      <point x="942.75" y="1953"/>
      <point x="1021.97" y="1926.44"/>
      <point x="1111.78" y="1894.56"/>
      <point x="1211.62" y="1868"/>
      <point x="1266" y="1868" type="qcurve" smooth="yes"/>
      <point x="1360.33" y="1868"/>
      <point x="1472.67" y="1979.85"/>
      <point x="1527" y="2127" type="qcurve"/>
      <point x="1498" y="2132" type="line"/>
      <point x="1484.42" y="2095.78"/>
      <point x="1429.73" y="2058"/>
      <point x="1392" y="2058" type="qcurve" smooth="yes"/>
      <point x="1358.25" y="2058"/>
      <point x="1280.03" y="2084.56"/>
      <point x="1193.22" y="2116.44"/>
      <point x="1098.88" y="2143"/>
      <point x="1049" y="2143" type="qcurve" smooth="yes"/>
      <point x="956.184" y="2143"/>
      <point x="830.086" y="2023.6"/>
    </contour>
    <contour>
      <point x="1069" y="1468" type="qcurve" smooth="yes"/>
      <point x="1198" y="1468"/>
      <point x="1366.03" y="1492.53"/>
      <point x="1472.72" y="1560.22"/>
      <point x="1532.38" y="1680.38"/>
      <point x="1553" y="1776" type="qcurve"/>
      <point x="1227" y="1776" type="line"/>
      <point x="1208.25" y="1692.75"/>
      <point x="1175.59" y="1586.94"/>
      <point x="1138.66" y="1526.56"/>
      <point x="1092.88" y="1504"/>
      <point x="1061" y="1504" type="qcurve" smooth="yes"/>
      <point x="1024.62" y="1504"/>
      <point x="982.594" y="1530.78"/>
      <point x="968.156" y="1593.97"/>
      <point x="979.75" y="1698.38"/>
      <point x="997" y="1776" type="qcurve"/>
      <point x="671" y="1776" type="line"/>
      <point x="651.125" y="1683.75"/>
      <point x="665.625" y="1564.44"/>
      <point x="754.875" y="1495.06"/>
      <point x="929.125" y="1468"/>
    </contour>
  </outline>
</glyph>
<glyph name="uni1EB5" format="2">
  <advance width="1678"/>
  <unicode hex="1EB5"/>
  <anchor x="921" y="1174" name="top"/>
  <anchor x="683" y="-150" name="bottom"/>
  <anchor x="899" y="0" name="ogonek"/>
  <outline>
    <contour>
      <point x="327" y="0" type="qcurve" smooth="yes"/>
      <point x="791" y="0" type="line" smooth="yes"/>
      <point x="818.166" y="0"/>
      <point x="859.172" y="14.4172"/>
      <point x="872" y="28" type="qcurve"/>
      <point x="867" y="0" type="line"/>
      <point x="1391" y="0" type="line"/>
      <point x="1523" y="754" type="line" smooth="yes"/>
      <point x="1552.43" y="923.03"/>
      <point x="1407.81" y="1030"/>
      <point x="1275" y="1030" type="qcurve" smooth="yes"/>
      <point x="541" y="1030" type="line" smooth="yes"/>
      <point x="408.19" y="1030"/>
      <point x="225.411" y="919.411"/>
      <point x="199" y="770" type="qcurve"/>
      <point x="197" y="756" type="line"/>
      <point x="704" y="661" type="line"/>
      <point x="763" y="998" type="line"/>
      <point x="763" y="998"/>
      <point x="763" y="998"/>
      <point x="763" y="998" type="qcurve"/>
      <point x="1041" y="998" type="line"/>
      <point x="1041" y="998"/>
      <point x="1041" y="998"/>
      <point x="1041" y="998" type="qcurve"/>
      <point x="966" y="566" type="line"/>
      <point x="426" y="566" type="line" smooth="yes"/>
      <point x="303" y="566"/>
      <point x="112.5" y="467.5"/>
      <point x="87" y="322" type="qcurve" smooth="yes"/>
      <point x="75" y="254" type="line" smooth="yes"/>
      <point x="49.3436" y="104.589"/>
      <point x="203.246" y="0"/>
    </contour>
    <contour>
      <point x="571" y="32" type="qcurve"/>
      <point x="658" y="534" type="line"/>
      <point x="658" y="534"/>
      <point x="658" y="534"/>
      <point x="658" y="534" type="qcurve"/>
      <point x="960" y="534" type="line"/>
      <point x="873" y="32" type="line"/>
      <point x="571" y="32" type="line"/>
      <point x="571" y="32"/>
      <point x="571" y="32"/>
    </contour>
    <contour>
      <point x="944" y="1085" type="qcurve" smooth="yes"/>
      <point x="1059.88" y="1085"/>
      <point x="1202.56" y="1105.53"/>
      <point x="1288.44" y="1171.72"/>
      <point x="1333.62" y="1296.12"/>
      <point x="1352" y="1400" type="qcurve"/>
      <point x="1087" y="1400" type="line"/>
      <point x="1070.12" y="1305.5"/>
      <point x="1043.19" y="1193.44"/>
      <point x="1009.81" y="1134.56"/>
      <point x="963.375" y="1117"/>
      <point x="927" y="1117" type="qcurve" smooth="yes"/>
      <point x="888" y="1117"/>
      <point x="844.625" y="1135.69"/>
      <point x="830.375" y="1195.31"/>
      <point x="842.5" y="1307"/>
      <point x="859" y="1400" type="qcurve"/>
      <point x="594" y="1400" type="line"/>
      <point x="576" y="1299.12"/>
      <point x="583.562" y="1175.47"/>
      <point x="658.938" y="1107.78"/>
      <point x="814.25" y="1085"/>
    </contour>
    <contour>
      <point x="634" y="1508" type="qcurve"/>
      <point x="663" y="1503" type="line"/>
      <point x="676.583" y="1539.22"/>
      <point x="730.27" y="1577"/>
      <point x="768" y="1577" type="qcurve" smooth="yes"/>
      <point x="801.75" y="1577"/>
      <point x="880.969" y="1550.44"/>
      <point x="970.781" y="1518.56"/>
      <point x="1070.62" y="1492"/>
      <point x="1125" y="1492" type="qcurve" smooth="yes"/>
      <point x="1219.33" y="1492"/>
      <point x="1331.67" y="1603.85"/>
      <point x="1386" y="1751" type="qcurve"/>
      <point x="1357" y="1756" type="line"/>
      <point x="1343.42" y="1719.78"/>
      <point x="1288.73" y="1682"/>
      <point x="1251" y="1682" type="qcurve" smooth="yes"/>
      <point x="1217.25" y="1682"/>
      <point x="1139.03" y="1708.56"/>
      <point x="1052.22" y="1740.44"/>
      <point x="957.875" y="1767"/>
      <point x="908" y="1767" type="qcurve" smooth="yes"/>
      <point x="815.184" y="1767"/>
      <point x="689.086" y="1647.6"/>
    </contour>
  </outline>
  <guideline angle="260.1" color="1,0,0,1" x="848" y="-0"/>
  <guideline angle="90" x="429" y="0"/>
  <guideline angle="90" x="1159" y="0"/>
  <guideline angle="90" x="1129" y="0"/>
  <guideline angle="90" x="459" y="0"/>
</glyph>
<glyph name="uni1EBD" format="2">
  <advance width="1651"/>
  <unicode hex="1EBD"/>
  <anchor x="971" y="1521" name="top"/>
  <anchor x="679" y="-150" name="bottom"/>
  <anchor x="952" y="-6" name="ogonek"/>
  <outline>
    <contour>
      <point x="94" y="304" type="line" smooth="yes"/>
      <point x="66.0798" y="141.006"/>
      <point x="220.675" y="-6"/>
      <point x="438" y="-6" type="qcurve" smooth="yes"/>
      <point x="954" y="-6" type="line" smooth="yes"/>
      <point x="1171.32" y="-6"/>
      <point x="1393.83" y="118.062"/>
      <point x="1421" y="272" type="qcurve"/>
      <point x="1423" y="282" type="line"/>
      <point x="934" y="368" type="line"/>
      <point x="874" y="26" type="line"/>
      <point x="874" y="26"/>
      <point x="874" y="26"/>
      <point x="874" y="26" type="qcurve"/>
      <point x="550" y="26" type="line"/>
      <point x="550" y="26"/>
      <point x="550" y="26"/>
      <point x="550" y="26" type="qcurve"/>
      <point x="636" y="518" type="line"/>
      <point x="1464" y="518" type="line"/>
      <point x="1501" y="730" type="line" smooth="yes"/>
      <point x="1528.17" y="888.466"/>
      <point x="1352.32" y="1030"/>
      <point x="1135" y="1030" type="qcurve" smooth="yes"/>
      <point x="619" y="1030" type="line" smooth="yes"/>
      <point x="403.184" y="1030"/>
      <point x="196.166" y="886.957"/>
      <point x="169" y="730" type="qcurve" smooth="yes"/>
    </contour>
    <contour>
      <point x="641" y="550" type="line"/>
      <point x="720" y="998" type="line"/>
      <point x="720" y="998"/>
      <point x="720" y="998"/>
      <point x="720" y="998" type="qcurve"/>
      <point x="1044" y="998" type="line"/>
      <point x="1044" y="998"/>
      <point x="1044" y="998"/>
      <point x="1044" y="998" type="qcurve"/>
      <point x="965" y="550" type="line"/>
    </contour>
    <contour>
      <point x="538" y="1135" type="qcurve"/>
      <point x="567" y="1130" type="line"/>
      <point x="571.528" y="1145.85"/>
      <point x="613.387" y="1214"/>
      <point x="673" y="1214" type="qcurve" smooth="yes"/>
      <point x="709.375" y="1214"/>
      <point x="797" y="1184.31"/>
      <point x="890" y="1148.69"/>
      <point x="983.625" y="1119"/>
      <point x="1026" y="1119" type="qcurve" smooth="yes"/>
      <point x="1152" y="1119"/>
      <point x="1272" y="1310.75"/>
      <point x="1323" y="1448" type="qcurve"/>
      <point x="1294" y="1453" type="line"/>
      <point x="1289.47" y="1437.15"/>
      <point x="1246.61" y="1369"/>
      <point x="1187" y="1369" type="qcurve" smooth="yes"/>
      <point x="1150.62" y="1369"/>
      <point x="1063.31" y="1398.69"/>
      <point x="970.688" y="1434.31"/>
      <point x="877.375" y="1464"/>
      <point x="835" y="1464" type="qcurve" smooth="yes"/>
      <point x="709" y="1464"/>
      <point x="591.25" y="1284.25"/>
    </contour>
  </outline>
  <guideline angle="0" color="1,0,0,1" x="0" y="-1030"/>
  <guideline angle="90" x="349" y="0"/>
  <guideline angle="90" x="1079" y="0"/>
  <guideline angle="90" x="1049" y="0"/>
  <guideline angle="90" x="379" y="0"/>
</glyph>
<glyph name="uni1EBE" format="2">
  <advance width="1725"/>
  <unicode hex="1EBE"/>
  <anchor x="1111" y="1550" name="top"/>
  <anchor x="814" y="-150" name="bottom"/>
  <anchor x="1218" y="0" name="ogonek"/>
  <outline>
    <contour>
      <point x="83" y="0" type="line"/>
      <point x="1603" y="0" type="line"/>
      <point x="1609" y="36" type="line"/>
      <point x="661" y="36" type="line"/>
      <point x="777" y="700" type="line"/>
      <point x="1319" y="700" type="line"/>
      <point x="1325" y="736" type="line"/>
      <point x="783" y="736" type="line"/>
      <point x="893" y="1364" type="line"/>
      <point x="1821" y="1364" type="line"/>
      <point x="1827" y="1400" type="line"/>
      <point x="327" y="1400" type="line"/>
    </contour>
    <contour>
      <point x="704" y="1476" type="line"/>
      <point x="743" y="1476" type="line"/>
      <point x="968" y="1720" type="line"/>
      <point x="1054" y="1476" type="line"/>
      <point x="1474" y="1476" type="line"/>
      <point x="1289" y="1776" type="line"/>
      <point x="974" y="1776" type="line"/>
    </contour>
    <contour>
      <point x="1486" y="1650" type="line"/>
      <point x="1522" y="1650" type="line"/>
      <point x="2003" y="1876" type="line"/>
      <point x="1582" y="1876" type="line"/>
    </contour>
  </outline>
  <guideline angle="90" x="-122" y="0"/>
</glyph>
<glyph name="uni1EC9" format="2">
  <advance width="883"/>
  <unicode hex="1EC9"/>
  <anchor x="295" y="-150" name="bottom"/>
  <anchor x="526" y="1174" name="top"/>
  <anchor x="93" y="0" name="ogonek"/>
  <outline>
    <contour>
      <point x="62" y="0" type="line"/>
      <point x="586" y="0" type="line"/>
      <point x="765" y="1024" type="line"/>
      <point x="241" y="1024" type="line"/>
    </contour>
    <contour>
      <point x="419" y="1100" type="qcurve"/>
      <point x="560" y="1100" type="line"/>
      <point x="645.27" y="1124.15"/>
      <point x="789.663" y="1213.99"/>
      <point x="804" y="1297" type="qcurve" smooth="yes"/>
      <point x="818.337" y="1377.74"/>
      <point x="706.644" y="1480"/>
      <point x="601" y="1480" type="qcurve" smooth="yes"/>
      <point x="531.577" y="1480"/>
      <point x="416.939" y="1445.13"/>
      <point x="386" y="1424" type="qcurve"/>
      <point x="394" y="1398" type="line"/>
      <point x="415.883" y="1410.07"/>
      <point x="459.362" y="1427"/>
      <point x="482" y="1427" type="qcurve" smooth="yes"/>
      <point x="518.221" y="1427"/>
      <point x="562.81" y="1373.82"/>
      <point x="553" y="1321" type="qcurve" smooth="yes"/>
      <point x="541.681" y="1255.35"/>
      <point x="465.031" y="1149.05"/>
    </contour>
  </outline>
</glyph>
<glyph name="uni1ED5" format="2">
  <advance width="1658"/>
  <unicode hex="1ED5"/>
  <anchor x="984" y="1572" name="top"/>
  <anchor x="683" y="-150" name="bottom"/>
  <anchor x="1514" y="776" name="horn"/>
  <anchor x="726" y="0" name="ogonek"/>
  <anchor x="1390" y="1298" name="topright"/>
  <outline>
    <contour>
      <point x="86" y="258" type="line" smooth="yes"/>
      <point x="61.8528" y="119.154"/>
      <point x="184.516" y="-6"/>
      <point x="346" y="-6" type="qcurve" smooth="yes"/>
      <point x="1074" y="-6" type="line" smooth="yes"/>
      <point x="1236.99" y="-6"/>
      <point x="1401.85" y="119.154"/>
      <point x="1426" y="258" type="qcurve" smooth="yes"/>
      <point x="1517" y="776" type="line" smooth="yes"/>
      <point x="1539.64" y="907.3"/>
      <point x="1414.98" y="1030"/>
      <point x="1255" y="1030" type="qcurve" smooth="yes"/>
      <point x="527" y="1030" type="line" smooth="yes"/>
      <point x="367.025" y="1030"/>
      <point x="199.638" y="907.3"/>
      <point x="177" y="776" type="qcurve" smooth="yes"/>
    </contour>
    <contour>
      <point x="570" y="26" type="qcurve"/>
      <point x="740" y="998" type="line"/>
      <point x="740" y="998"/>
      <point x="740" y="998"/>
      <point x="740" y="998" type="qcurve"/>
      <point x="1032" y="998" type="line"/>
      <point x="1032" y="998"/>
      <point x="1032" y="998"/>
      <point x="1032" y="998" type="qcurve"/>
      <point x="862" y="26" type="line"/>
      <point x="862" y="26"/>
      <point x="862" y="26"/>
      <point x="862" y="26" type="qcurve"/>
      <point x="570" y="26" type="line"/>
      <point x="570" y="26"/>
      <point x="570" y="26"/>
    </contour>
    <contour>
      <point x="508" y="1124" type="line"/>
      <point x="551" y="1124" type="line"/>
      <point x="809" y="1438" type="line"/>
      <point x="942" y="1124" type="line"/>
      <point x="1359" y="1124" type="line"/>
      <point x="1124" y="1472" type="line"/>
      <point x="799" y="1472" type="line"/>
    </contour>
    <contour>
      <point x="1330" y="1298" type="qcurve"/>
      <point x="1471" y="1298" type="line"/>
      <point x="1556.27" y="1322.15"/>
      <point x="1700.66" y="1411.99"/>
      <point x="1715" y="1495" type="qcurve" smooth="yes"/>
      <point x="1729.34" y="1575.74"/>
      <point x="1617.64" y="1678"/>
      <point x="1512" y="1678" type="qcurve" smooth="yes"/>
      <point x="1442.58" y="1678"/>
      <point x="1327.94" y="1643.13"/>
      <point x="1297" y="1622" type="qcurve"/>
      <point x="1305" y="1596" type="line"/>
      <point x="1326.88" y="1608.07"/>
      <point x="1370.36" y="1625"/>
      <point x="1393" y="1625" type="qcurve" smooth="yes"/>
      <point x="1429.22" y="1625"/>
      <point x="1473.81" y="1571.82"/>
      <point x="1464" y="1519" type="qcurve" smooth="yes"/>
      <point x="1452.68" y="1453.35"/>
      <point x="1376.03" y="1347.05"/>
    </contour>
  </outline>
</glyph>
<glyph name="uni1ED7" format="2">
  <advance width="1658"/>
  <unicode hex="1ED7"/>
  <anchor x="914" y="1174" name="top"/>
  <anchor x="683" y="-150" name="bottom"/>
  <anchor x="1514" y="776" name="horn"/>
  <anchor x="726" y="0" name="ogonek"/>
  <outline>
    <contour>
      <point x="86" y="258" type="line" smooth="yes"/>
      <point x="61.8528" y="119.154"/>
      <point x="184.516" y="-6"/>
      <point x="346" y="-6" type="qcurve" smooth="yes"/>
      <point x="1074" y="-6" type="line" smooth="yes"/>
      <point x="1236.99" y="-6"/>
      <point x="1401.85" y="119.154"/>
      <point x="1426" y="258" type="qcurve" smooth="yes"/>
      <point x="1517" y="776" type="line" smooth="yes"/>
      <point x="1539.64" y="907.3"/>
      <point x="1414.98" y="1030"/>
      <point x="1255" y="1030" type="qcurve" smooth="yes"/>
      <point x="527" y="1030" type="line" smooth="yes"/>
      <point x="367.025" y="1030"/>
      <point x="199.638" y="907.3"/>
      <point x="177" y="776" type="qcurve" smooth="yes"/>
    </contour>
    <contour>
      <point x="570" y="26" type="qcurve"/>
      <point x="740" y="998" type="line"/>
      <point x="740" y="998"/>
      <point x="740" y="998"/>
      <point x="740" y="998" type="qcurve"/>
      <point x="1032" y="998" type="line"/>
      <point x="1032" y="998"/>
      <point x="1032" y="998"/>
      <point x="1032" y="998" type="qcurve"/>
      <point x="862" y="26" type="line"/>
      <point x="862" y="26"/>
      <point x="862" y="26"/>
      <point x="862" y="26" type="qcurve"/>
      <point x="570" y="26" type="line"/>
      <point x="570" y="26"/>
      <point x="570" y="26"/>
    </contour>
    <contour>
      <point x="554" y="1124" type="line"/>
      <point x="593" y="1124" type="line"/>
      <point x="845" y="1394" type="line"/>
      <point x="984" y="1124" type="line"/>
      <point x="1405" y="1124" type="line"/>
      <point x="1160" y="1424" type="line"/>
      <point x="835" y="1424" type="line"/>
    </contour>
    <contour>
      <point x="667" y="1532" type="qcurve"/>
      <point x="696" y="1527" type="line"/>
      <point x="709.583" y="1563.22"/>
      <point x="763.27" y="1601"/>
      <point x="801" y="1601" type="qcurve" smooth="yes"/>
      <point x="834.75" y="1601"/>
      <point x="913.969" y="1574.44"/>
      <point x="1003.78" y="1542.56"/>
      <point x="1103.62" y="1516"/>
      <point x="1158" y="1516" type="qcurve" smooth="yes"/>
      <point x="1252.33" y="1516"/>
      <point x="1364.67" y="1627.85"/>
      <point x="1419" y="1775" type="qcurve"/>
      <point x="1390" y="1780" type="line"/>
      <point x="1376.42" y="1743.78"/>
      <point x="1321.73" y="1706"/>
      <point x="1284" y="1706" type="qcurve" smooth="yes"/>
      <point x="1250.25" y="1706"/>
      <point x="1172.03" y="1732.56"/>
      <point x="1085.22" y="1764.44"/>
      <point x="990.875" y="1791"/>
      <point x="941" y="1791" type="qcurve" smooth="yes"/>
      <point x="848.184" y="1791"/>
      <point x="722.086" y="1671.6"/>
    </contour>
  </outline>
  <guideline angle="90" x="466" y="0"/>
  <guideline angle="90" x="1196" y="0"/>
  <guideline angle="90" x="1166" y="0"/>
  <guideline angle="90" x="496" y="0"/>
</glyph>
<glyph name="uni1ED8" format="2">
  <advance width="2095"/>
  <unicode hex="1ED8"/>
  <anchor x="1263" y="1866" name="top"/>
  <anchor x="910" y="-160" name="bottom"/>
  <anchor x="1984" y="1076" name="horn"/>
  <anchor x="953" y="0" name="ogonek"/>
  <anchor x="1728" y="1586" name="topright"/>
  <outline>
    <contour>
      <point x="248" y="1076" type="qcurve" smooth="yes"/>
      <point x="119" y="336" type="line" smooth="yes"/>
      <point x="82.7792" y="129.24"/>
      <point x="270.786" y="-10"/>
      <point x="470" y="-10" type="qcurve" smooth="yes"/>
      <point x="1384" y="-10" type="line" smooth="yes"/>
      <point x="1583.21" y="-10"/>
      <point x="1822.02" y="127.73"/>
      <point x="1859" y="336" type="qcurve" smooth="yes"/>
      <point x="1988" y="1076" type="line" smooth="yes"/>
      <point x="2023.25" y="1277"/>
      <point x="1821" y="1410"/>
      <point x="1632" y="1410" type="qcurve" smooth="yes"/>
      <point x="718" y="1410" type="line" smooth="yes"/>
      <point x="529" y="1410"/>
      <point x="283.25" y="1277"/>
    </contour>
    <contour>
      <point x="872" y="1374" type="line"/>
      <point x="872" y="1374"/>
      <point x="872" y="1374"/>
      <point x="872" y="1374" type="qcurve"/>
      <point x="1468" y="1374" type="line"/>
      <point x="1468" y="1374"/>
      <point x="1468" y="1374"/>
      <point x="1468" y="1374" type="qcurve"/>
      <point x="1233" y="26" type="line"/>
      <point x="1233" y="26"/>
      <point x="1233" y="26"/>
      <point x="1233" y="26" type="qcurve"/>
      <point x="637" y="26" type="line"/>
      <point x="637" y="26"/>
      <point x="637" y="26"/>
      <point x="637" y="26" type="qcurve"/>
    </contour>
    <contour>
      <point x="815" y="1486" type="line"/>
      <point x="874" y="1486" type="line"/>
      <point x="1116" y="1708" type="line"/>
      <point x="1250" y="1486" type="line"/>
      <point x="1711" y="1486" type="line"/>
      <point x="1481" y="1786" type="line"/>
      <point x="1143" y="1786" type="line"/>
    </contour>
    <contour>
      <point x="762" y="-461" type="qcurve" smooth="yes"/>
      <point x="934" y="-461" type="line" smooth="yes"/>
      <point x="1015.5" y="-461"/>
      <point x="1048.91" y="-432.497"/>
      <point x="1064" y="-351" type="qcurve" smooth="yes"/>
      <point x="1087" y="-219" type="line" smooth="yes"/>
      <point x="1100.58" y="-139.012"/>
      <point x="1077.5" y="-111"/>
      <point x="996" y="-111" type="qcurve" smooth="yes"/>
      <point x="824" y="-111" type="line" smooth="yes"/>
      <point x="742.503" y="-111"/>
      <point x="708.583" y="-139.012"/>
      <point x="695" y="-219" type="qcurve" smooth="yes"/>
      <point x="672" y="-351" type="line" smooth="yes"/>
      <point x="656.908" y="-432.497"/>
      <point x="680.503" y="-461"/>
    </contour>
  </outline>
  <guideline angle="0" x="0" y="-110"/>
</glyph>
<glyph name="uni1ED9" format="2">
  <advance width="1658"/>
  <unicode hex="1ED9"/>
  <anchor x="984" y="1572" name="top"/>
  <anchor x="683" y="-150" name="bottom"/>
  <anchor x="1514" y="776" name="horn"/>
  <anchor x="726" y="0" name="ogonek"/>
  <anchor x="1390" y="1298" name="topright"/>
  <outline>
    <contour>
      <point x="86" y="258" type="line" smooth="yes"/>
      <point x="61.8528" y="119.154"/>
      <point x="184.516" y="-6"/>
      <point x="346" y="-6" type="qcurve" smooth="yes"/>
      <point x="1074" y="-6" type="line" smooth="yes"/>
      <point x="1236.99" y="-6"/>
      <point x="1401.85" y="119.154"/>
      <point x="1426" y="258" type="qcurve" smooth="yes"/>
      <point x="1517" y="776" type="line" smooth="yes"/>
      <point x="1539.64" y="907.3"/>
      <point x="1414.98" y="1030"/>
      <point x="1255" y="1030" type="qcurve" smooth="yes"/>
      <point x="527" y="1030" type="line" smooth="yes"/>
      <point x="367.025" y="1030"/>
      <point x="199.638" y="907.3"/>
      <point x="177" y="776" type="qcurve" smooth="yes"/>
    </contour>
    <contour>
      <point x="570" y="26" type="qcurve"/>
      <point x="740" y="998" type="line"/>
      <point x="740" y="998"/>
      <point x="740" y="998"/>
      <point x="740" y="998" type="qcurve"/>
      <point x="1032" y="998" type="line"/>
      <point x="1032" y="998"/>
      <point x="1032" y="998"/>
      <point x="1032" y="998" type="qcurve"/>
      <point x="862" y="26" type="line"/>
      <point x="862" y="26"/>
      <point x="862" y="26"/>
      <point x="862" y="26" type="qcurve"/>
      <point x="570" y="26" type="line"/>
      <point x="570" y="26"/>
      <point x="570" y="26"/>
    </contour>
    <contour>
      <point x="508" y="1124" type="line"/>
      <point x="551" y="1124" type="line"/>
      <point x="809" y="1438" type="line"/>
      <point x="942" y="1124" type="line"/>
      <point x="1359" y="1124" type="line"/>
      <point x="1124" y="1472" type="line"/>
      <point x="799" y="1472" type="line"/>
    </contour>
    <contour>
      <point x="538" y="-439" type="qcurve" smooth="yes"/>
      <point x="710" y="-439" type="line" smooth="yes"/>
      <point x="791.497" y="-439"/>
      <point x="825.417" y="-410.988"/>
      <point x="839" y="-331" type="qcurve" smooth="yes"/>
      <point x="863" y="-199" type="line" smooth="yes"/>
      <point x="876.583" y="-119.012"/>
      <point x="853.497" y="-91"/>
      <point x="772" y="-91" type="qcurve" smooth="yes"/>
      <point x="600" y="-91" type="line" smooth="yes"/>
      <point x="518.503" y="-91"/>
      <point x="484.583" y="-119.012"/>
      <point x="471" y="-199" type="qcurve" smooth="yes"/>
      <point x="447" y="-331" type="line" smooth="yes"/>
      <point x="433.417" y="-410.988"/>
      <point x="456.503" y="-439"/>
    </contour>
  </outline>
  <guideline angle="0" x="0" y="-100"/>
</glyph>
